han_Regular.ufo
<glyph name="uni4E28" format="2">
  <advance width="1000"/>
  <unicode hex="2F01"/>
  <unicode hex="4E28"/>
  <outline>
    <contour>
      <point x="528" y="-64" type="line"/>
      <point x="528" y="824" type="line"/>
      <point x="458" y="824" type="line"/>
      <point x="458" y="-64" type="line"/>
    </contour>
  </outline>
</glyph>
<glyph name="uni4E36" format="2">
  <advance width="1000"/>
  <unicode hex="2F02"/>
  <unicode hex="4E36"/>
  <outline>
    <contour>
      <point x="717" y="219" type="line"/>
      <point x="602" y="364"/>
      <point x="466" y="511"/>
      <point x="317" y="638" type="curve"/>
      <point x="266" y="588" type="line"/>
      <point x="419" y="454"/>
      <point x="546" y="315"/>
      <point x="659" y="172" type="curve"/>
    </contour>
  </outline>
</glyph>
<glyph name="uni4E8C" format="2">
  <advance width="1000"/>
  <unicode hex="2F06"/>
  <unicode hex="4E8C"/>
  <outline>
    <contour>
      <point x="883" y="727" type="line"/>
      <point x="118" y="727" type="line"/>
      <point x="118" y="661" type="line"/>
      <point x="883" y="661" type="line"/>
    </contour>
    <contour>
      <point x="945" y="99" type="line"/>
      <point x="55" y="99" type="line"/>
      <point x="55" y="31" type="line"/>
      <point x="945" y="31" type="line"/>
    </contour>
  </outline>
</glyph>
<glyph name="uni5165" format="2">
  <advance width="1000"/>
  <unicode hex="2F0A"/>
  <unicode hex="5165"/>
  <outline>
    <contour>
      <point x="201" y="780" type="line"/>
      <point x="201" y="719" type="line"/>
      <point x="468" y="719" type="line"/>
      <point x="468" y="569" type="line" smooth="yes"/>
      <point x="468" y="337"/>
      <point x="372" y="187"/>
      <point x="50" y="-3" type="curve"/>
      <point x="91" y="-62" type="line"/>
      <point x="376" y="111"/>
      <point x="483" y="251"/>
      <point x="498" y="438" type="curve"/>
      <point x="505" y="438" type="line"/>
      <point x="520" y="251"/>
      <point x="632" y="111"/>
      <point x="909" y="-60" type="curve"/>
      <point x="950" y="-2" type="line"/>
      <point x="634" y="187"/>
      <point x="536" y="337"/>
      <point x="536" y="569" type="curve" smooth="yes"/>
      <point x="536" y="780" type="line"/>
    </contour>
  </outline>
</glyph>
<glyph name="uni516B" format="2">
  <advance width="1000"/>
  <unicode hex="2F0B"/>
  <unicode hex="516B"/>
  <outline>
    <contour>
      <point x="955" y="-3" type="line"/>
      <point x="760" y="192"/>
      <point x="693" y="406"/>
      <point x="685" y="813" type="curve"/>
      <point x="616" y="809" type="line"/>
      <point x="625" y="387"/>
      <point x="700" y="154"/>
      <point x="907" y="-58" type="curve"/>
    </contour>
    <contour>
      <point x="99" y="-58" type="line"/>
      <point x="283" y="140"/>
      <point x="364" y="372"/>
      <point x="373" y="793" type="curve"/>
      <point x="304" y="799" type="line"/>
      <point x="298" y="396"/>
      <point x="224" y="176"/>
      <point x="51" y="-7" type="curve"/>
    </contour>
  </outline>
</glyph>
<glyph name="uni5196" format="2">
  <advance width="1000"/>
  <unicode hex="2F0D"/>
  <unicode hex="5196"/>
  <outline>
    <contour>
      <point x="154" y="254" type="line"/>
      <point x="154" y="436" type="line"/>
      <point x="846" y="436" type="line"/>
      <point x="846" y="254" type="line"/>
      <point x="915" y="254" type="line"/>
      <point x="915" y="502" type="line"/>
      <point x="85" y="502" type="line"/>
      <point x="85" y="254" type="line"/>
    </contour>
  </outline>
</glyph>
<glyph name="uni51AB" format="2">
  <advance width="1000"/>
  <unicode hex="2F0E"/>
  <unicode hex="51AB"/>
  <outline>
    <contour>
      <point x="265" y="-40" type="line"/>
      <point x="462" y="57"/>
      <point x="650" y="216"/>
      <point x="760" y="374" type="curve"/>
      <point x="710" y="420" type="line"/>
      <point x="592" y="258"/>
      <point x="416" y="111"/>
      <point x="226" y="20" type="curve"/>
    </contour>
    <contour>
      <point x="566" y="565" type="line"/>
      <point x="500" y="630"/>
      <point x="402" y="704"/>
      <point x="307" y="768" type="curve"/>
      <point x="264" y="716" type="line"/>
      <point x="362" y="650"/>
      <point x="451" y="581"/>
      <point x="521" y="513" type="curve"/>
    </contour>
  </outline>
</glyph>
<glyph name="uni51F5" format="2">
  <advance width="1000"/>
  <unicode hex="2F10"/>
  <unicode hex="51F5"/>
  <outline>
    <contour>
      <point x="840" y="793" type="line"/>
      <point x="840" y="61" type="line"/>
      <point x="160" y="61" type="line"/>
      <point x="160" y="793" type="line"/>
      <point x="92" y="793" type="line"/>
      <point x="92" y="-71" type="line"/>
      <point x="160" y="-71" type="line"/>
      <point x="160" y="-3" type="line"/>
      <point x="840" y="-3" type="line"/>
      <point x="840" y="-71" type="line"/>
      <point x="908" y="-71" type="line"/>
      <point x="908" y="793" type="line"/>
    </contour>
  </outline>
</glyph>
<glyph name="uni5315" format="2">
  <advance width="1000"/>
  <unicode hex="2F14"/>
  <unicode hex="5315"/>
  <outline>
    <contour>
      <point x="229" y="372" type="line"/>
      <point x="461" y="433"/>
      <point x="700" y="536"/>
      <point x="854" y="639" type="curve"/>
      <point x="814" y="694" type="line"/>
      <point x="666" y="594"/>
      <point x="425" y="490"/>
      <point x="208" y="436" type="curve"/>
    </contour>
    <contour>
      <point x="786" y="-28" type="line" smooth="yes"/>
      <point x="841" y="-28"/>
      <point x="864" y="-6"/>
      <point x="864" y="48" type="curve" smooth="yes"/>
      <point x="864" y="258" type="line"/>
      <point x="798" y="273" type="line"/>
      <point x="798" y="36" type="line"/>
      <point x="348" y="36" type="line" smooth="yes"/>
      <point x="274" y="36"/>
      <point x="253" y="53"/>
      <point x="253" y="127" type="curve" smooth="yes"/>
      <point x="253" y="824" type="line"/>
      <point x="184" y="824" type="line"/>
      <point x="184" y="113" type="line" smooth="yes"/>
      <point x="184" y="10"/>
      <point x="227" y="-28"/>
      <point x="330" y="-28" type="curve" smooth="yes"/>
    </contour>
  </outline>
</glyph>
<glyph name="uni531A" format="2">
  <advance width="1000"/>
  <unicode hex="2F15"/>
  <unicode hex="531A"/>
  <outline>
    <contour>
      <point x="917" y="-6" type="line"/>
      <point x="917" y="58" type="line"/>
      <point x="186" y="58" type="line"/>
      <point x="186" y="713" type="line"/>
      <point x="911" y="713" type="line"/>
      <point x="911" y="776" type="line"/>
      <point x="117" y="776" type="line"/>
      <point x="117" y="-6" type="line"/>
    </contour>
  </outline>
</glyph>
<glyph name="uni535C" format="2">
  <advance width="1000"/>
  <unicode hex="2F18"/>
  <unicode hex="535C"/>
  <outline>
    <contour>
      <point x="856" y="275" type="line"/>
      <point x="419" y="517" type="line" smooth="yes"/>
      <point x="407" y="524"/>
      <point x="396" y="524"/>
      <point x="387" y="511" type="curve" smooth="yes"/>
      <point x="374" y="493" type="line"/>
      <point x="340" y="493" type="line"/>
      <point x="334" y="449" type="line"/>
      <point x="369" y="451" type="line"/>
      <point x="369" y="460"/>
      <point x="373" y="466"/>
      <point x="385" y="459" type="curve" smooth="yes"/>
      <point x="821" y="218" type="line"/>
    </contour>
    <contour>
      <point x="369" y="-64" type="line"/>
      <point x="369" y="824" type="line"/>
      <point x="300" y="824" type="line"/>
      <point x="300" y="-64" type="line"/>
    </contour>
  </outline>
</glyph>
<glyph name="uni5369" format="2">
  <advance width="1000"/>
  <unicode hex="2F19"/>
  <unicode hex="5369"/>
  <outline>
    <contour>
      <point x="315" y="-69" type="line"/>
      <point x="315" y="723" type="line"/>
      <point x="686" y="723" type="line"/>
      <point x="686" y="175" type="line"/>
      <point x="448" y="175" type="line"/>
      <point x="465" y="111" type="line"/>
      <point x="684" y="111" type="line" smooth="yes"/>
      <point x="732" y="111"/>
      <point x="754" y="133"/>
      <point x="754" y="179" type="curve" smooth="yes"/>
      <point x="754" y="785" type="line"/>
      <point x="247" y="785" type="line"/>
      <point x="247" y="-69" type="line"/>
    </contour>
  </outline>
</glyph>
<glyph name="uni5382" format="2">
  <advance width="1000"/>
  <unicode hex="2F1A"/>
  <unicode hex="5382"/>
  <outline>
    <contour>
      <point x="101" y="-60" type="line"/>
      <point x="194" y="103"/>
      <point x="218" y="325"/>
      <point x="218" y="591" type="curve" smooth="yes"/>
      <point x="218" y="749" type="line"/>
      <point x="196" y="722" type="line"/>
      <point x="938" y="722" type="line"/>
      <point x="938" y="784" type="line"/>
      <point x="148" y="784" type="line"/>
      <point x="148" y="593" type="line" smooth="yes"/>
      <point x="148" y="333"/>
      <point x="127" y="137"/>
      <point x="44" y="-6" type="curve"/>
    </contour>
  </outline>
</glyph>
<glyph name="uni5915" format="2">
  <advance width="1000"/>
  <unicode hex="2F23"/>
  <unicode hex="5915"/>
  <outline>
    <contour>
      <point x="671" y="251" type="line"/>
      <point x="588" y="326"/>
      <point x="478" y="414"/>
      <point x="389" y="476" type="curve"/>
      <point x="343" y="430" type="line"/>
      <point x="432" y="365"/>
      <point x="542" y="277"/>
      <point x="622" y="203" type="curve"/>
    </contour>
    <contour>
      <point x="96" y="345" type="line"/>
      <point x="295" y="462"/>
      <point x="438" y="622"/>
      <point x="508" y="810" type="curve"/>
      <point x="443" y="826" type="line"/>
      <point x="374" y="650"/>
      <point x="247" y="510"/>
      <point x="59" y="401" type="curve"/>
    </contour>
    <contour>
      <point x="819" y="642" type="line"/>
      <point x="740" y="328"/>
      <point x="554" y="124"/>
      <point x="163" y="4" type="curve"/>
      <point x="193" y="-60" type="line"/>
      <point x="603" y="70"/>
      <point x="804" y="288"/>
      <point x="889" y="652" type="curve"/>
      <point x="889" y="702" type="line"/>
      <point x="401" y="702" type="line"/>
      <point x="401" y="642" type="line"/>
    </contour>
  </outline>
</glyph>
<glyph name="uni5927" format="2">
  <advance width="1000"/>
  <unicode hex="2F24"/>
  <unicode hex="5927"/>
  <outline>
    <contour>
      <point x="82" y="-61" type="line"/>
      <point x="359" y="98"/>
      <point x="471" y="219"/>
      <point x="490" y="414" type="curve"/>
      <point x="497" y="414" type="line"/>
      <point x="515" y="220"/>
      <point x="639" y="98"/>
      <point x="918" y="-61" type="curve"/>
      <point x="955" y="-2" type="line"/>
      <point x="636" y="175"/>
      <point x="526" y="313"/>
      <point x="526" y="532" type="curve" smooth="yes"/>
      <point x="526" y="824" type="line"/>
      <point x="459" y="824" type="line"/>
      <point x="459" y="532" type="line" smooth="yes"/>
      <point x="459" y="313"/>
      <point x="361" y="175"/>
      <point x="45" y="-2" type="curve"/>
    </contour>
    <contour>
      <point x="943" y="499" type="line"/>
      <point x="943" y="561" type="line"/>
      <point x="57" y="561" type="line"/>
      <point x="57" y="499" type="line"/>
    </contour>
  </outline>
</glyph>
<glyph name="uni5B50" format="2">
  <advance width="1000"/>
  <unicode hex="2F26"/>
  <unicode hex="5B50"/>
  <outline>
    <contour>
      <point x="948" y="368" type="line"/>
      <point x="948" y="431" type="line"/>
      <point x="52" y="431" type="line"/>
      <point x="52" y="368" type="line"/>
    </contour>
    <contour>
      <point x="791" y="723" type="line"/>
      <point x="730" y="659"/>
      <point x="617" y="587"/>
      <point x="480" y="537" type="curve"/>
      <point x="480" y="9" type="line"/>
      <point x="242" y="9" type="line"/>
      <point x="257" y="-53" type="line"/>
      <point x="467" y="-53" type="line" smooth="yes"/>
      <point x="522" y="-53"/>
      <point x="547" y="-28"/>
      <point x="547" y="27" type="curve" smooth="yes"/>
      <point x="547" y="498" type="line"/>
      <point x="692" y="559"/>
      <point x="819" y="646"/>
      <point x="883" y="733" type="curve"/>
      <point x="883" y="785" type="line"/>
      <point x="129" y="785" type="line"/>
      <point x="129" y="723" type="line"/>
    </contour>
  </outline>
</glyph>
<glyph name="uni5B80" format="2">
  <advance width="1000"/>
  <unicode hex="2F27"/>
  <unicode hex="5B80"/>
  <outline>
    <contour>
      <point x="148" y="411" type="line"/>
      <point x="148" y="587" type="line"/>
      <point x="852" y="587" type="line"/>
      <point x="852" y="411" type="line"/>
      <point x="920" y="411" type="line"/>
      <point x="920" y="651" type="line"/>
      <point x="80" y="651" type="line"/>
      <point x="80" y="411" type="line"/>
    </contour>
    <contour>
      <point x="558" y="696" type="line"/>
      <point x="533" y="740"/>
      <point x="503" y="787"/>
      <point x="472" y="830" type="curve"/>
      <point x="417" y="796" type="line"/>
      <point x="448" y="752"/>
      <point x="478" y="708"/>
      <point x="504" y="663" type="curve"/>
    </contour>
  </outline>
</glyph>
<glyph name="uni5BF8" format="2">
  <advance width="1000"/>
  <unicode hex="2F28"/>
  <unicode hex="5BF8"/>
  <outline>
    <contour>
      <point x="465" y="208" type="line"/>
      <point x="413" y="295"/>
      <point x="327" y="400"/>
      <point x="254" y="469" type="curve"/>
      <point x="206" y="427" type="line"/>
      <point x="276" y="357"/>
      <point x="357" y="259"/>
      <point x="414" y="167" type="curve"/>
    </contour>
    <contour>
      <point x="944" y="641" type="line"/>
      <point x="56" y="641" type="line"/>
      <point x="56" y="579" type="line"/>
      <point x="944" y="579" type="line"/>
    </contour>
    <contour>
      <point x="621" y="-43" type="line" smooth="yes"/>
      <point x="675" y="-43"/>
      <point x="699" y="-22"/>
      <point x="699" y="33" type="curve" smooth="yes"/>
      <point x="699" y="833" type="line"/>
      <point x="631" y="833" type="line"/>
      <point x="631" y="20" type="line"/>
      <point x="362" y="20" type="line"/>
      <point x="378" y="-43" type="line"/>
    </contour>
  </outline>
</glyph>
<glyph name="uni5C38" format="2">
  <advance width="1000"/>
  <unicode hex="2F2B"/>
  <unicode hex="5C38"/>
  <outline>
    <contour>
      <point x="99" y="-65" type="line"/>
      <point x="188" y="70"/>
      <point x="218" y="242"/>
      <point x="218" y="447" type="curve" smooth="yes"/>
      <point x="218" y="467" type="line"/>
      <point x="831" y="467" type="line"/>
      <point x="831" y="380" type="line"/>
      <point x="899" y="380" type="line"/>
      <point x="899" y="781" type="line"/>
      <point x="150" y="781" type="line"/>
      <point x="150" y="447" type="line" smooth="yes"/>
      <point x="150" y="239"/>
      <point x="120" y="100"/>
      <point x="42" y="-15" type="curve"/>
    </contour>
    <contour>
      <point x="218" y="721" type="line"/>
      <point x="831" y="721" type="line"/>
      <point x="831" y="527" type="line"/>
      <point x="218" y="527" type="line"/>
    </contour>
  </outline>
</glyph>
<glyph name="uni5DDB" format="2">
  <advance width="1000"/>
  <unicode hex="2F2E"/>
  <unicode hex="5DDB"/>
  <outline>
    <contour>
      <point x="360" y="-38" type="line"/>
      <point x="312" y="98"/>
      <point x="222" y="287"/>
      <point x="153" y="402" type="curve"/>
      <point x="225" y="510"/>
      <point x="299" y="676"/>
      <point x="344" y="804" type="curve"/>
      <point x="280" y="825" type="line"/>
      <point x="240" y="700"/>
      <point x="166" y="537"/>
      <point x="77" y="402" type="curve"/>
      <point x="164" y="259"/>
      <point x="246" y="81"/>
      <point x="298" y="-63" type="curve"/>
    </contour>
    <contour>
      <point x="644" y="-37" type="line"/>
      <point x="587" y="107"/>
      <point x="493" y="296"/>
      <point x="424" y="403" type="curve"/>
      <point x="502" y="513"/>
      <point x="581" y="681"/>
      <point x="628" y="804" type="curve"/>
      <point x="564" y="826" type="line"/>
      <point x="517" y="696"/>
      <point x="443" y="541"/>
      <point x="348" y="403" type="curve"/>
      <point x="436" y="262"/>
      <point x="524" y="85"/>
      <point x="581" y="-61" type="curve"/>
    </contour>
    <contour>
      <point x="922" y="-28" type="line"/>
      <point x="858" y="115"/>
      <point x="768" y="292"/>
      <point x="697" y="402" type="curve"/>
      <point x="772" y="507"/>
      <point x="853" y="674"/>
      <point x="899" y="797" type="curve"/>
      <point x="836" y="821" type="line"/>
      <point x="793" y="693"/>
      <point x="713" y="534"/>
      <point x="621" y="402" type="curve"/>
      <point x="710" y="259"/>
      <point x="799" y="85"/>
      <point x="861" y="-56" type="curve"/>
    </contour>
  </outline>
</glyph>
<glyph name="uni5DE5" format="2">
  <advance width="1000"/>
  <unicode hex="2F2F"/>
  <unicode hex="5DE5"/>
  <outline>
    <contour>
      <point x="949" y="3" type="line"/>
      <point x="949" y="69" type="line"/>
      <point x="51" y="69" type="line"/>
      <point x="51" y="3" type="line"/>
    </contour>
    <contour>
      <point x="527" y="33" type="line"/>
      <point x="527" y="727" type="line"/>
      <point x="457" y="727" type="line"/>
      <point x="457" y="33" type="line"/>
    </contour>
    <contour>
      <point x="916" y="690" type="line"/>
      <point x="916" y="754" type="line"/>
      <point x="84" y="754" type="line"/>
      <point x="84" y="690" type="line"/>
    </contour>
  </outline>
</glyph>
<glyph name="uni5DFE" format="2">
  <advance width="1000"/>
  <unicode hex="2F31"/>
  <unicode hex="5DFE"/>
  <outline>
    <contour>
      <point x="173" y="61" type="line"/>
      <point x="173" y="598" type="line"/>
      <point x="829" y="598" type="line"/>
      <point x="829" y="139" type="line"/>
      <point x="648" y="139" type="line"/>
      <point x="665" y="77" type="line"/>
      <point x="816" y="77" type="line" smooth="yes"/>
      <point x="871" y="77"/>
      <point x="895" y="99"/>
      <point x="895" y="154" type="curve" smooth="yes"/>
      <point x="895" y="660" type="line"/>
      <point x="107" y="660" type="line"/>
      <point x="107" y="61" type="line"/>
    </contour>
    <contour>
      <point x="526" y="-74" type="line"/>
      <point x="526" y="834" type="line"/>
      <point x="458" y="834" type="line"/>
      <point x="458" y="-74" type="line"/>
    </contour>
  </outline>
</glyph>
<glyph name="uni5E7F" format="2">
  <advance width="1000"/>
  <unicode hex="2F34"/>
  <unicode hex="5E7F"/>
  <outline>
    <contour>
      <point x="102" y="-62" type="line"/>
      <point x="193" y="85"/>
      <point x="220" y="294"/>
      <point x="220" y="543" type="curve" smooth="yes"/>
      <point x="220" y="652" type="line"/>
      <point x="918" y="652" type="line"/>
      <point x="918" y="712" type="line"/>
      <point x="150" y="712" type="line"/>
      <point x="150" y="538" type="line" smooth="yes"/>
      <point x="150" y="292"/>
      <point x="125" y="116"/>
      <point x="43" y="-14" type="curve"/>
    </contour>
    <contour>
      <point x="590" y="702" type="line"/>
      <point x="568" y="754"/>
      <point x="545" y="799"/>
      <point x="515" y="843" type="curve"/>
      <point x="451" y="818" type="line"/>
      <point x="480" y="774"/>
      <point x="505" y="729"/>
      <point x="527" y="680" type="curve"/>
    </contour>
  </outline>
</glyph>
<glyph name="uni5EFE" format="2">
  <advance width="1000"/>
  <unicode hex="2F36"/>
  <unicode hex="5EFE"/>
  <outline>
    <contour>
      <point x="103" y="-65" type="line"/>
      <point x="289" y="71"/>
      <point x="341" y="224"/>
      <point x="341" y="490" type="curve" smooth="yes"/>
      <point x="341" y="822" type="line"/>
      <point x="274" y="822" type="line"/>
      <point x="274" y="489" type="line" smooth="yes"/>
      <point x="274" y="239"/>
      <point x="225" y="105"/>
      <point x="57" y="-13" type="curve"/>
    </contour>
    <contour>
      <point x="946" y="397" type="line"/>
      <point x="946" y="460" type="line"/>
      <point x="54" y="460" type="line"/>
      <point x="54" y="397" type="line"/>
    </contour>
    <contour>
      <point x="727" y="-59" type="line"/>
      <point x="727" y="822" type="line"/>
      <point x="660" y="822" type="line"/>
      <point x="660" y="-59" type="line"/>
    </contour>
  </outline>
</glyph>
<glyph name="uni5F0B" format="2">
  <advance width="1000"/>
  <unicode hex="2F37"/>
  <unicode hex="5F0B"/>
  <outline>
    <contour>
      <point x="916" y="601" type="line"/>
      <point x="57" y="471" type="line"/>
      <point x="69" y="410" type="line"/>
      <point x="925" y="539" type="line"/>
    </contour>
    <contour>
      <point x="799" y="687" type="line"/>
      <point x="737" y="731"/>
      <point x="644" y="786"/>
      <point x="577" y="816" type="curve"/>
      <point x="540" y="764" type="line"/>
      <point x="606" y="732"/>
      <point x="699" y="678"/>
      <point x="761" y="633" type="curve"/>
    </contour>
    <contour>
      <point x="817" y="-41" type="curve" smooth="yes"/>
      <point x="868" y="-61"/>
      <point x="907" y="-45"/>
      <point x="916" y="11" type="curve" smooth="yes"/>
      <point x="950" y="215" type="line"/>
      <point x="890" y="238" type="line"/>
      <point x="853" y="18" type="line"/>
      <point x="606" y="108"/>
      <point x="431" y="423"/>
      <point x="431" y="777" type="curve" smooth="yes"/>
      <point x="431" y="829" type="line"/>
      <point x="363" y="829" type="line"/>
      <point x="363" y="776" type="line" smooth="yes"/>
      <point x="363" y="393"/>
      <point x="555" y="59"/>
    </contour>
  </outline>
</glyph>
<glyph name="uni5F13" format="2">
  <advance width="1000"/>
  <unicode hex="2F38"/>
  <unicode hex="5F13"/>
  <outline>
    <contour>
      <point x="161" y="257" type="line"/>
      <point x="184" y="342"/>
      <point x="201" y="432"/>
      <point x="214" y="512" type="curve"/>
      <point x="199" y="499" type="line"/>
      <point x="864" y="499" type="line"/>
      <point x="864" y="790" type="line"/>
      <point x="100" y="790" type="line"/>
      <point x="100" y="729" type="line"/>
      <point x="798" y="729" type="line"/>
      <point x="798" y="559" type="line"/>
      <point x="154" y="559" type="line"/>
      <point x="143" y="466"/>
      <point x="122" y="364"/>
      <point x="94" y="257" type="curve"/>
    </contour>
    <contour>
      <point x="696" y="-40" type="line" smooth="yes"/>
      <point x="807" y="-40"/>
      <point x="861" y="-1"/>
      <point x="881" y="88" type="curve" smooth="yes"/>
      <point x="892" y="137"/>
      <point x="902" y="206"/>
      <point x="907" y="318" type="curve"/>
      <point x="140" y="318" type="line"/>
      <point x="140" y="257" type="line"/>
      <point x="837" y="257" type="line"/>
      <point x="833" y="197"/>
      <point x="828" y="152"/>
      <point x="817" y="106" type="curve" smooth="yes"/>
      <point x="803" y="47"/>
      <point x="778" y="23"/>
      <point x="688" y="23" type="curve" smooth="yes"/>
      <point x="475" y="23" type="line"/>
      <point x="491" y="-40" type="line"/>
    </contour>
  </outline>
</glyph>
<glyph name="uni5F50" format="2">
  <advance width="1000"/>
  <unicode hex="2F39"/>
  <unicode hex="5F50"/>
  <outline>
    <contour>
      <point x="823" y="365" type="line"/>
      <point x="823" y="427" type="line"/>
      <point x="154" y="427" type="line"/>
      <point x="154" y="365" type="line"/>
    </contour>
    <contour>
      <point x="103" y="40" type="line"/>
      <point x="838" y="40" type="line"/>
      <point x="838" y="103" type="line"/>
      <point x="103" y="103" type="line"/>
    </contour>
    <contour>
      <point x="859" y="732" type="line"/>
      <point x="121" y="732" type="line"/>
      <point x="121" y="669" type="line"/>
      <point x="790" y="669" type="line"/>
      <point x="790" y="-39" type="line"/>
      <point x="859" y="-39" type="line"/>
    </contour>
  </outline>
</glyph>
<glyph name="uni5F61" format="2">
  <advance width="1000"/>
  <unicode hex="2F3A"/>
  <unicode hex="5F61"/>
  <outline>
    <contour>
      <point x="138" y="-49" type="line"/>
      <point x="439" y="3"/>
      <point x="729" y="127"/>
      <point x="896" y="306" type="curve"/>
      <point x="848" y="352" type="line"/>
      <point x="677" y="176"/>
      <point x="408" y="66"/>
      <point x="114" y="15" type="curve"/>
    </contour>
    <contour>
      <point x="156" y="248" type="line"/>
      <point x="419" y="300"/>
      <point x="669" y="407"/>
      <point x="823" y="558" type="curve"/>
      <point x="778" y="606" type="line"/>
      <point x="626" y="463"/>
      <point x="396" y="361"/>
      <point x="134" y="313" type="curve"/>
    </contour>
    <contour>
      <point x="155" y="518" type="line"/>
      <point x="405" y="567"/>
      <point x="621" y="663"/>
      <point x="757" y="783" type="curve"/>
      <point x="715" y="831" type="line"/>
      <point x="573" y="713"/>
      <point x="376" y="630"/>
      <point x="131" y="581" type="curve"/>
    </contour>
  </outline>
</glyph>
<glyph name="uni5F73" format="2">
  <advance width="1000"/>
  <unicode hex="2F3B"/>
  <unicode hex="5F73"/>
  <outline>
    <contour>
      <point x="548" y="-74" type="line"/>
      <point x="548" y="391" type="line"/>
      <point x="479" y="391" type="line"/>
      <point x="479" y="-74" type="line"/>
    </contour>
    <contour>
      <point x="766" y="610" type="line"/>
      <point x="635" y="485"/>
      <point x="376" y="344"/>
      <point x="148" y="287" type="curve"/>
      <point x="170" y="224" type="line"/>
      <point x="403" y="286"/>
      <point x="661" y="423"/>
      <point x="814" y="568" type="curve"/>
    </contour>
    <contour>
      <point x="194" y="487" type="line"/>
      <point x="400" y="544"/>
      <point x="598" y="648"/>
      <point x="732" y="780" type="curve"/>
      <point x="683" y="826" type="line"/>
      <point x="565" y="707"/>
      <point x="374" y="604"/>
      <point x="171" y="551" type="curve"/>
    </contour>
  </outline>
</glyph>
<glyph name="uni5FC3" format="2">
  <advance width="1000"/>
  <unicode hex="2F3C"/>
  <unicode hex="5FC3"/>
  <outline>
    <contour>
      <point x="703" y="654" type="line"/>
      <point x="602" y="715"/>
      <point x="454" y="784"/>
      <point x="314" y="824" type="curve"/>
      <point x="286" y="769" type="line"/>
      <point x="418" y="729"/>
      <point x="571" y="660"/>
      <point x="671" y="599" type="curve"/>
    </contour>
    <contour>
      <point x="112" y="59" type="line"/>
      <point x="171" y="205"/>
      <point x="203" y="382"/>
      <point x="212" y="532" type="curve"/>
      <point x="148" y="537" type="line"/>
      <point x="139" y="392"/>
      <point x="106" y="217"/>
      <point x="48" y="84" type="curve"/>
    </contour>
    <contour>
      <point x="952" y="108" type="line"/>
      <point x="922" y="255"/>
      <point x="873" y="424"/>
      <point x="819" y="551" type="curve"/>
      <point x="758" y="530" type="line"/>
      <point x="811" y="408"/>
      <point x="859" y="239"/>
      <point x="886" y="91" type="curve"/>
    </contour>
    <contour>
      <point x="667" y="-49" type="line" smooth="yes"/>
      <point x="717" y="-49"/>
      <point x="741" y="-27"/>
      <point x="741" y="24" type="curve" smooth="yes"/>
      <point x="741" y="277" type="line"/>
      <point x="676" y="295" type="line"/>
      <point x="676" y="12" type="line"/>
      <point x="479" y="12" type="line" smooth="yes"/>
      <point x="417" y="12"/>
      <point x="397" y="29"/>
      <point x="397" y="91" type="curve" smooth="yes"/>
      <point x="397" y="619" type="line"/>
      <point x="330" y="619" type="line"/>
      <point x="330" y="80" type="line" smooth="yes"/>
      <point x="330" y="-14"/>
      <point x="373" y="-49"/>
      <point x="467" y="-49" type="curve" smooth="yes"/>
    </contour>
  </outline>
</glyph>
<glyph name="uni624B" format="2">
  <advance width="1000"/>
  <unicode hex="2F3F"/>
  <unicode hex="624B"/>
  <outline>
    <contour>
      <point x="464" y="-52" type="line" smooth="yes"/>
      <point x="518" y="-52"/>
      <point x="542" y="-30"/>
      <point x="542" y="24" type="curve" smooth="yes"/>
      <point x="542" y="738" type="line"/>
      <point x="476" y="738" type="line"/>
      <point x="476" y="10" type="line"/>
      <point x="242" y="10" type="line"/>
      <point x="257" y="-52" type="line"/>
    </contour>
    <contour>
      <point x="949" y="242" type="line"/>
      <point x="949" y="302" type="line"/>
      <point x="51" y="302" type="line"/>
      <point x="51" y="242" type="line"/>
    </contour>
    <contour>
      <point x="924" y="477" type="line"/>
      <point x="924" y="537" type="line"/>
      <point x="77" y="537" type="line"/>
      <point x="77" y="477" type="line"/>
    </contour>
    <contour>
      <point x="116" y="687" type="line"/>
      <point x="370" y="691"/>
      <point x="666" y="710"/>
      <point x="891" y="773" type="curve"/>
      <point x="861" y="829" type="line"/>
      <point x="649" y="770"/>
      <point x="369" y="750"/>
      <point x="104" y="746" type="curve"/>
    </contour>
  </outline>
</glyph>
<glyph name="uni652F" format="2">
  <advance width="1000"/>
  <unicode hex="2F40"/>
  <unicode hex="652F"/>
  <outline>
    <contour>
      <point x="459" y="834" type="line"/>
      <point x="459" y="427" type="line"/>
      <point x="525" y="427" type="line"/>
      <point x="525" y="834" type="line"/>
    </contour>
    <contour>
      <point x="947" y="690" type="line"/>
      <point x="53" y="690" type="line"/>
      <point x="53" y="631" type="line"/>
      <point x="947" y="631" type="line"/>
    </contour>
    <contour>
      <point x="192" y="326" type="line"/>
      <point x="348" y="120"/>
      <point x="555" y="-3"/>
      <point x="925" y="-57" type="curve"/>
      <point x="943" y="4" type="line"/>
      <point x="584" y="55"/>
      <point x="391" y="171"/>
      <point x="251" y="360" type="curve"/>
    </contour>
    <contour>
      <point x="844" y="452" type="line"/>
      <point x="98" y="452" type="line"/>
      <point x="98" y="392" type="line"/>
      <point x="787" y="392" type="line"/>
      <point x="774" y="402" type="line"/>
      <point x="673" y="198"/>
      <point x="455" y="64"/>
      <point x="51" y="3" type="curve"/>
      <point x="73" y="-59" type="line"/>
      <point x="508" y="11"/>
      <point x="738" y="160"/>
      <point x="844" y="407" type="curve"/>
    </contour>
  </outline>
</glyph>
<glyph name="uni6534" format="2">
  <advance width="1000"/>
  <unicode hex="2F41"/>
  <unicode hex="6534"/>
  <outline>
    <contour>
      <point x="510" y="633" type="line"/>
      <point x="915" y="633" type="line"/>
      <point x="915" y="693" type="line"/>
      <point x="510" y="693" type="line"/>
      <point x="510" y="835" type="line"/>
      <point x="442" y="835" type="line"/>
      <point x="442" y="449" type="line"/>
      <point x="510" y="449" type="line"/>
    </contour>
    <contour>
      <point x="205" y="357" type="line"/>
      <point x="387" y="141"/>
      <point x="588" y="32"/>
      <point x="931" y="-53" type="curve"/>
      <point x="953" y="13" type="line"/>
      <point x="627" y="92"/>
      <point x="429" y="189"/>
      <point x="258" y="395" type="curve"/>
    </contour>
    <contour>
      <point x="764" y="416" type="line"/>
      <point x="650" y="233"/>
      <point x="425" y="81"/>
      <point x="51" y="15" type="curve"/>
      <point x="74" y="-51" type="line"/>
      <point x="493" y="24"/>
      <point x="729" y="211"/>
      <point x="843" y="424" type="curve"/>
      <point x="844" y="477" type="line"/>
      <point x="101" y="477" type="line"/>
      <point x="101" y="416" type="line"/>
    </contour>
  </outline>
</glyph>
<glyph name="uni6587" format="2">
  <advance width="1000"/>
  <unicode hex="2F42"/>
  <unicode hex="6587"/>
  <outline>
    <contour>
      <point x="957" y="3" type="line"/>
      <point x="556" y="139"/>
      <point x="313" y="312"/>
      <point x="266" y="637" type="curve"/>
      <point x="201" y="616" type="line"/>
      <point x="257" y="282"/>
      <point x="509" y="84"/>
      <point x="929" y="-58" type="curve"/>
    </contour>
    <contour>
      <point x="73" y="-60" type="line"/>
      <point x="482" y="79"/>
      <point x="709" y="260"/>
      <point x="776" y="616" type="curve"/>
      <point x="712" y="638" type="line"/>
      <point x="653" y="293"/>
      <point x="439" y="135"/>
      <point x="45" y="2" type="curve"/>
    </contour>
    <contour>
      <point x="945" y="608" type="line"/>
      <point x="945" y="670" type="line"/>
      <point x="55" y="670" type="line"/>
      <point x="55" y="608" type="line"/>
    </contour>
    <contour>
      <point x="556" y="699" type="line"/>
      <point x="525" y="748"/>
      <point x="491" y="796"/>
      <point x="453" y="842" type="curve"/>
      <point x="399" y="805" type="line"/>
      <point x="439" y="756"/>
      <point x="473" y="711"/>
      <point x="502" y="662" type="curve"/>
    </contour>
  </outline>
</glyph>
<glyph name="uni65A4" format="2">
  <advance width="1000"/>
  <unicode hex="2F44"/>
  <unicode hex="65A4"/>
  <outline>
    <contour>
      <point x="669" y="-64" type="line"/>
      <point x="669" y="458" type="line"/>
      <point x="601" y="458" type="line"/>
      <point x="601" y="-64" type="line"/>
    </contour>
    <contour>
      <point x="939" y="416" type="line"/>
      <point x="939" y="478" type="line"/>
      <point x="214" y="478" type="line"/>
      <point x="214" y="416" type="line"/>
    </contour>
    <contour>
      <point x="858" y="818" type="line"/>
      <point x="667" y="768"/>
      <point x="457" y="754"/>
      <point x="181" y="748" type="curve"/>
      <point x="181" y="523" type="line" smooth="yes"/>
      <point x="181" y="291"/>
      <point x="156" y="129"/>
      <point x="63" y="-10" type="curve"/>
      <point x="119" y="-54" type="line"/>
      <point x="215" y="92"/>
      <point x="247" y="273"/>
      <point x="247" y="513" type="curve" smooth="yes"/>
      <point x="247" y="688" type="line"/>
      <point x="480" y="695"/>
      <point x="687" y="706"/>
      <point x="887" y="760" type="curve"/>
    </contour>
  </outline>
</glyph>
<glyph name="uni65B9" format="2">
  <advance width="1000"/>
  <unicode hex="2F45"/>
  <unicode hex="65B9"/>
  <outline>
    <contour>
      <point x="106" y="-66" type="line"/>
      <point x="320" y="92"/>
      <point x="393" y="297"/>
      <point x="393" y="550" type="curve" smooth="yes"/>
      <point x="393" y="643" type="line"/>
      <point x="326" y="643" type="line"/>
      <point x="326" y="552" type="line" smooth="yes"/>
      <point x="326" y="305"/>
      <point x="262" y="135"/>
      <point x="60" y="-15" type="curve"/>
    </contour>
    <contour>
      <point x="626" y="-46" type="line" smooth="yes"/>
      <point x="748" y="-46"/>
      <point x="789" y="5"/>
      <point x="808" y="99" type="curve" smooth="yes"/>
      <point x="825" y="183"/>
      <point x="831" y="284"/>
      <point x="831" y="437" type="curve"/>
      <point x="356" y="437" type="line"/>
      <point x="356" y="377" type="line"/>
      <point x="764" y="377" type="line"/>
      <point x="763" y="261"/>
      <point x="756" y="171"/>
      <point x="742" y="112" type="curve" smooth="yes"/>
      <point x="729" y="51"/>
      <point x="705" y="17"/>
      <point x="621" y="17" type="curve" smooth="yes"/>
      <point x="446" y="17" type="line"/>
      <point x="462" y="-46" type="line"/>
    </contour>
    <contour>
      <point x="944" y="608" type="line"/>
      <point x="944" y="669" type="line"/>
      <point x="56" y="669" type="line"/>
      <point x="56" y="608" type="line"/>
    </contour>
    <contour>
      <point x="552" y="696" type="line"/>
      <point x="525" y="746"/>
      <point x="493" y="794"/>
      <point x="459" y="839" type="curve"/>
      <point x="403" y="807" type="line"/>
      <point x="440" y="760"/>
      <point x="469" y="714"/>
      <point x="495" y="667" type="curve"/>
    </contour>
  </outline>
</glyph>
<glyph name="uni65E5" format="2">
  <advance width="1000"/>
  <unicode hex="2F47"/>
  <unicode hex="65E5"/>
  <outline>
    <contour>
      <point x="219" y="-70" type="line"/>
      <point x="219" y="8" type="line"/>
      <point x="782" y="8" type="line"/>
      <point x="782" y="-70" type="line"/>
      <point x="848" y="-70" type="line"/>
      <point x="848" y="782" type="line"/>
      <point x="152" y="782" type="line"/>
      <point x="152" y="-70" type="line"/>
    </contour>
    <contour>
      <point x="219" y="721" type="line"/>
      <point x="782" y="721" type="line"/>
      <point x="782" y="70" type="line"/>
      <point x="219" y="70" type="line"/>
    </contour>
    <contour>
      <point x="808" y="373" type="line"/>
      <point x="808" y="433" type="line"/>
      <point x="192" y="433" type="line"/>
      <point x="192" y="373" type="line"/>
    </contour>
  </outline>
</glyph>
<glyph name="uni66F0" format="2">
  <advance width="1000"/>
  <unicode hex="2F48"/>
  <unicode hex="66F0"/>
  <outline>
    <contour>
      <point x="179" y="-70" type="line"/>
      <point x="179" y="8" type="line"/>
      <point x="821" y="8" type="line"/>
      <point x="821" y="-70" type="line"/>
      <point x="888" y="-70" type="line"/>
      <point x="888" y="764" type="line"/>
      <point x="112" y="764" type="line"/>
      <point x="112" y="-70" type="line"/>
    </contour>
    <contour>
      <point x="730" y="365" type="line"/>
      <point x="730" y="425" type="line"/>
      <point x="151" y="425" type="line"/>
      <point x="151" y="365" type="line"/>
    </contour>
    <contour>
      <point x="179" y="703" type="line"/>
      <point x="821" y="703" type="line"/>
      <point x="821" y="69" type="line"/>
      <point x="179" y="69" type="line"/>
    </contour>
  </outline>
</glyph>
<glyph name="uni6BD4" format="2">
  <advance width="1000"/>
  <unicode hex="2F50"/>
  <unicode hex="6BD4"/>
  <outline>
    <contour>
      <point x="183" y="469" type="line"/>
      <point x="458" y="469" type="line"/>
      <point x="458" y="530" type="line"/>
      <point x="183" y="530" type="line"/>
    </contour>
    <contour>
      <point x="190" y="14" type="line"/>
      <point x="190" y="833" type="line"/>
      <point x="125" y="833" type="line"/>
      <point x="125" y="75" type="line" smooth="yes"/>
      <point x="125" y="36"/>
      <point x="119" y="21"/>
      <point x="85" y="8" type="curve"/>
    </contour>
    <contour>
      <point x="105" y="-51" type="line"/>
      <point x="227" y="-13"/>
      <point x="372" y="39"/>
      <point x="479" y="83" type="curve"/>
      <point x="466" y="144" type="line"/>
      <point x="356" y="99"/>
      <point x="209" y="46"/>
      <point x="85" y="8" type="curve"/>
    </contour>
    <contour>
      <point x="868" y="-50" type="line" smooth="yes"/>
      <point x="916" y="-50"/>
      <point x="936" y="-30"/>
      <point x="936" y="18" type="curve" smooth="yes"/>
      <point x="936" y="233" type="line"/>
      <point x="873" y="252" type="line"/>
      <point x="873" y="12" type="line"/>
      <point x="665" y="12" type="line" smooth="yes"/>
      <point x="613" y="12"/>
      <point x="595" y="28"/>
      <point x="595" y="77" type="curve" smooth="yes"/>
      <point x="595" y="833" type="line"/>
      <point x="530" y="833" type="line"/>
      <point x="530" y="73" type="line" smooth="yes"/>
      <point x="530" y="-16"/>
      <point x="564" y="-50"/>
      <point x="658" y="-50" type="curve" smooth="yes"/>
    </contour>
    <contour>
      <point x="580" y="402" type="line"/>
      <point x="711" y="462"/>
      <point x="845" y="545"/>
      <point x="934" y="628" type="curve"/>
      <point x="891" y="675" type="line"/>
      <point x="806" y="594"/>
      <point x="686" y="515"/>
      <point x="553" y="459" type="curve"/>
    </contour>
  </outline>
</glyph>
<glyph name="uni6C0F" format="2">
  <advance width="1000"/>
  <unicode hex="2F52"/>
  <unicode hex="6C0F"/>
  <outline>
    <contour>
      <point x="195" y="409" type="line"/>
      <point x="921" y="409" type="line"/>
      <point x="921" y="469" type="line"/>
      <point x="195" y="469" type="line"/>
    </contour>
    <contour>
      <point x="831" y="-51" type="curve" smooth="yes"/>
      <point x="873" y="-71"/>
      <point x="914" y="-60"/>
      <point x="919" y="-12" type="curve" smooth="yes"/>
      <point x="944" y="212" type="line"/>
      <point x="885" y="233" type="line"/>
      <point x="862" y="5" type="line"/>
      <point x="683" y="98"/>
      <point x="595" y="303"/>
      <point x="595" y="686" type="curve" smooth="yes"/>
      <point x="595" y="745" type="line"/>
      <point x="530" y="745" type="line"/>
      <point x="530" y="676" type="line" smooth="yes"/>
      <point x="530" y="281"/>
      <point x="634" y="43"/>
    </contour>
    <contour>
      <point x="135" y="-49" type="line"/>
      <point x="279" y="-19"/>
      <point x="424" y="16"/>
      <point x="534" y="49" type="curve"/>
      <point x="522" y="109" type="line"/>
      <point x="406" y="75"/>
      <point x="258" y="39"/>
      <point x="120" y="11" type="curve"/>
    </contour>
    <contour>
      <point x="217" y="5" type="line"/>
      <point x="217" y="692" type="line"/>
      <point x="459" y="698"/>
      <point x="683" y="721"/>
      <point x="876" y="768" type="curve"/>
      <point x="850" y="827" type="line"/>
      <point x="657" y="781"/>
      <point x="429" y="757"/>
      <point x="151" y="752" type="curve"/>
      <point x="151" y="49" type="line" smooth="yes"/>
      <point x="151" y="25"/>
      <point x="143" y="17"/>
      <point x="120" y="11" type="curve"/>
    </contour>
  </outline>
</glyph>
<glyph name="uni6C34" format="2">
  <advance width="1000"/>
  <unicode hex="2F54"/>
  <unicode hex="6C34"/>
  <outline>
    <contour>
      <point x="453" y="-45" type="line" smooth="yes"/>
      <point x="508" y="-45"/>
      <point x="531" y="-24"/>
      <point x="531" y="31" type="curve" smooth="yes"/>
      <point x="531" y="502" type="line"/>
      <point x="538" y="502" type="line"/>
      <point x="567" y="303"/>
      <point x="700" y="188"/>
      <point x="920" y="42" type="curve"/>
      <point x="959" y="99" type="line"/>
      <point x="680" y="276"/>
      <point x="531" y="445"/>
      <point x="531" y="734" type="curve" smooth="yes"/>
      <point x="531" y="834" type="line"/>
      <point x="465" y="834" type="line"/>
      <point x="465" y="18" type="line"/>
      <point x="277" y="18" type="line"/>
      <point x="296" y="-45" type="line"/>
    </contour>
    <contour>
      <point x="622" y="358" type="line"/>
      <point x="726" y="432"/>
      <point x="836" y="539"/>
      <point x="912" y="641" type="curve"/>
      <point x="859" y="684" type="line"/>
      <point x="783" y="582"/>
      <point x="685" y="482"/>
      <point x="583" y="412" type="curve"/>
    </contour>
    <contour>
      <point x="317" y="551" type="line"/>
      <point x="293" y="378"/>
      <point x="221" y="235"/>
      <point x="39" y="93" type="curve"/>
      <point x="86" y="42" type="line"/>
      <point x="281" y="201"/>
      <point x="360" y="362"/>
      <point x="384" y="560" type="curve"/>
      <point x="384" y="612" type="line"/>
      <point x="63" y="612" type="line"/>
      <point x="63" y="551" type="line"/>
    </contour>
  </outline>
</glyph>
<glyph name="uni723F" format="2">
  <advance width="1000"/>
  <unicode hex="2F59"/>
  <unicode hex="723F"/>
  <outline>
    <contour>
      <point x="782" y="299" type="line"/>
      <point x="782" y="360" type="line"/>
      <point x="109" y="360" type="line"/>
      <point x="109" y="299" type="line"/>
    </contour>
    <contour>
      <point x="753" y="833" type="line"/>
      <point x="753" y="-67" type="line"/>
      <point x="820" y="-67" type="line"/>
      <point x="820" y="833" type="line"/>
    </contour>
    <contour>
      <point x="148" y="-61" type="line"/>
      <point x="326" y="23"/>
      <point x="416" y="131"/>
      <point x="416" y="318" type="curve" smooth="yes"/>
      <point x="416" y="343" type="line"/>
      <point x="350" y="343" type="line"/>
      <point x="350" y="315" type="line" smooth="yes"/>
      <point x="350" y="153"/>
      <point x="273" y="72"/>
      <point x="112" y="-3" type="curve"/>
    </contour>
    <contour>
      <point x="790" y="512" type="line"/>
      <point x="790" y="573" type="line"/>
      <point x="288" y="573" type="line"/>
      <point x="288" y="800" type="line"/>
      <point x="222" y="800" type="line"/>
      <point x="222" y="512" type="line"/>
    </contour>
  </outline>
</glyph>
<glyph name="uni74DC" format="2">
  <advance width="1000"/>
  <unicode hex="2F60"/>
  <unicode hex="74DC"/>
  <outline>
    <contour>
      <point x="100" y="-71" type="line"/>
      <point x="215" y="129"/>
      <point x="225" y="311"/>
      <point x="225" y="627" type="curve" smooth="yes"/>
      <point x="225" y="703" type="line"/>
      <point x="211" y="679" type="line"/>
      <point x="439" y="683"/>
      <point x="710" y="707"/>
      <point x="891" y="762" type="curve"/>
      <point x="861" y="821" type="line"/>
      <point x="679" y="766"/>
      <point x="411" y="743"/>
      <point x="160" y="741" type="curve"/>
      <point x="160" y="623" type="line" smooth="yes"/>
      <point x="160" y="322"/>
      <point x="144" y="142"/>
      <point x="42" y="-34" type="curve"/>
    </contour>
    <contour>
      <point x="744" y="-40" type="line"/>
      <point x="711" y="50"/>
      <point x="655" y="176"/>
      <point x="610" y="252" type="curve"/>
      <point x="558" y="226" type="line"/>
      <point x="602" y="150"/>
      <point x="658" y="19"/>
      <point x="688" y="-67" type="curve"/>
    </contour>
    <contour>
      <point x="961" y="-31" type="line"/>
      <point x="856" y="162"/>
      <point x="826" y="327"/>
      <point x="826" y="637" type="curve" smooth="yes"/>
      <point x="826" y="749" type="line"/>
      <point x="761" y="749" type="line"/>
      <point x="761" y="640" type="line" smooth="yes"/>
      <point x="761" y="328"/>
      <point x="790" y="140"/>
      <point x="903" y="-70" type="curve"/>
    </contour>
    <contour>
      <point x="327" y="-40" type="line"/>
      <point x="450" y="-24"/>
      <point x="569" y="-2"/>
      <point x="682" y="25" type="curve"/>
      <point x="670" y="85" type="line"/>
      <point x="573" y="61"/>
      <point x="464" y="39"/>
      <point x="364" y="27" type="curve"/>
      <point x="376" y="5" type="line"/>
      <point x="479" y="113"/>
      <point x="514" y="214"/>
      <point x="515" y="715" type="curve"/>
      <point x="450" y="715" type="line"/>
      <point x="450" y="229"/>
      <point x="416" y="122"/>
      <point x="310" y="13" type="curve"/>
    </contour>
  </outline>
</glyph>
<glyph name="uni7530" format="2">
  <advance width="1000"/>
  <unicode hex="2F65"/>
  <unicode hex="7530"/>
  <outline>
    <contour>
      <point x="159" y="-69" type="line"/>
      <point x="159" y="8" type="line"/>
      <point x="841" y="8" type="line"/>
      <point x="841" y="-69" type="line"/>
      <point x="906" y="-69" type="line"/>
      <point x="906" y="784" type="line"/>
      <point x="94" y="784" type="line"/>
      <point x="94" y="-69" type="line"/>
    </contour>
    <contour>
      <point x="868" y="372" type="line"/>
      <point x="868" y="430" type="line"/>
      <point x="123" y="430" type="line"/>
      <point x="123" y="372" type="line"/>
    </contour>
    <contour>
      <point x="524" y="43" type="line"/>
      <point x="524" y="753" type="line"/>
      <point x="460" y="753" type="line"/>
      <point x="460" y="43" type="line"/>
    </contour>
    <contour>
      <point x="159" y="725" type="line"/>
      <point x="841" y="725" type="line"/>
      <point x="841" y="67" type="line"/>
      <point x="159" y="67" type="line"/>
    </contour>
  </outline>
</glyph>
<glyph name="uni758B" format="2">
  <advance width="1000"/>
  <unicode hex="2F66"/>
  <unicode hex="758B"/>
  <outline>
    <contour>
      <point x="83" y="-45" type="line"/>
      <point x="202" y="77"/>
      <point x="222" y="133"/>
      <point x="227" y="234" type="curve"/>
      <point x="234" y="234" type="line"/>
      <point x="243" y="98"/>
      <point x="348" y="-22"/>
      <point x="572" y="-22" type="curve" smooth="yes"/>
      <point x="943" y="-22" type="line"/>
      <point x="952" y="40" type="line"/>
      <point x="565" y="40" type="line" smooth="yes"/>
      <point x="370" y="40"/>
      <point x="264" y="159"/>
      <point x="264" y="339" type="curve" smooth="yes"/>
      <point x="264" y="519" type="line"/>
      <point x="198" y="519" type="line"/>
      <point x="198" y="345" type="line" smooth="yes"/>
      <point x="198" y="196"/>
      <point x="171" y="133"/>
      <point x="40" y="6" type="curve"/>
    </contour>
    <contour>
      <point x="539" y="24" type="line"/>
      <point x="539" y="743" type="line"/>
      <point x="472" y="743" type="line"/>
      <point x="472" y="24" type="line"/>
    </contour>
    <contour>
      <point x="876" y="350" type="line"/>
      <point x="876" y="410" type="line"/>
      <point x="509" y="410" type="line"/>
      <point x="509" y="350" type="line"/>
    </contour>
    <contour>
      <point x="760" y="517" type="line"/>
      <point x="835" y="580"/>
      <point x="899" y="655"/>
      <point x="933" y="728" type="curve"/>
      <point x="933" y="780" type="line"/>
      <point x="86" y="780" type="line"/>
      <point x="86" y="718" type="line"/>
      <point x="869" y="718" type="line"/>
      <point x="861" y="728" type="line"/>
      <point x="832" y="672"/>
      <point x="777" y="613"/>
      <point x="715" y="563" type="curve"/>
    </contour>
  </outline>
</glyph>
<glyph name="uni76BF" format="2">
  <advance width="1000"/>
  <unicode hex="2F6B"/>
  <unicode hex="76BF"/>
  <outline>
    <contour>
      <point x="187" y="23" type="line"/>
      <point x="187" y="702" type="line"/>
      <point x="814" y="702" type="line"/>
      <point x="814" y="23" type="line"/>
      <point x="878" y="23" type="line"/>
      <point x="878" y="762" type="line"/>
      <point x="123" y="762" type="line"/>
      <point x="123" y="23" type="line"/>
    </contour>
    <contour>
      <point x="954" y="-14" type="line"/>
      <point x="954" y="47" type="line"/>
      <point x="46" y="47" type="line"/>
      <point x="46" y="-14" type="line"/>
    </contour>
    <contour>
      <point x="414" y="21" type="line"/>
      <point x="414" y="739" type="line"/>
      <point x="353" y="739" type="line"/>
      <point x="353" y="21" type="line"/>
    </contour>
    <contour>
      <point x="640" y="21" type="line"/>
      <point x="640" y="739" type="line"/>
      <point x="579" y="739" type="line"/>
      <point x="579" y="21" type="line"/>
    </contour>
  </outline>
</glyph>
<glyph name="uni77DB" format="2">
  <advance width="1000"/>
  <unicode hex="2F6D"/>
  <unicode hex="77DB"/>
  <outline>
    <contour>
      <point x="491" y="-57" type="line" smooth="yes"/>
      <point x="547" y="-57"/>
      <point x="571" y="-34"/>
      <point x="571" y="23" type="curve" smooth="yes"/>
      <point x="571" y="453" type="line"/>
      <point x="481" y="453" type="line"/>
      <point x="436" y="360"/>
      <point x="331" y="250"/>
      <point x="44" y="107" type="curve"/>
      <point x="77" y="49" type="line"/>
      <point x="377" y="206"/>
      <point x="475" y="311"/>
      <point x="500" y="420" type="curve"/>
      <point x="507" y="420" type="line"/>
      <point x="507" y="1" type="line"/>
      <point x="298" y="1" type="line"/>
      <point x="315" y="-57" type="line"/>
    </contour>
    <contour>
      <point x="663" y="489" type="line"/>
      <point x="561" y="550"/>
      <point x="384" y="638"/>
      <point x="269" y="687" type="curve"/>
      <point x="234" y="640" type="line"/>
      <point x="352" y="590"/>
      <point x="518" y="508"/>
      <point x="623" y="445" type="curve"/>
    </contour>
    <contour>
      <point x="513" y="519" type="line"/>
      <point x="649" y="570"/>
      <point x="778" y="650"/>
      <point x="855" y="750" type="curve"/>
      <point x="855" y="800" type="line"/>
      <point x="144" y="800" type="line"/>
      <point x="144" y="740" type="line"/>
      <point x="798" y="740" type="line"/>
      <point x="780" y="755" type="line"/>
      <point x="721" y="687"/>
      <point x="600" y="610"/>
      <point x="468" y="565" type="curve"/>
    </contour>
    <contour>
      <point x="876" y="440" type="line"/>
      <point x="835" y="361"/>
      <point x="754" y="273"/>
      <point x="669" y="210" type="curve"/>
      <point x="716" y="166" type="line"/>
      <point x="814" y="241"/>
      <point x="907" y="349"/>
      <point x="949" y="450" type="curve"/>
      <point x="949" y="500" type="line"/>
      <point x="51" y="500" type="line"/>
      <point x="51" y="440" type="line"/>
    </contour>
  </outline>
</glyph>
<glyph name="uni77E2" format="2">
  <advance width="1000"/>
  <unicode hex="2F6E"/>
  <unicode hex="77E2"/>
  <outline>
    <contour>
      <point x="942" y="407" type="line"/>
      <point x="58" y="407" type="line"/>
      <point x="58" y="344" type="line"/>
      <point x="942" y="344" type="line"/>
    </contour>
    <contour>
      <point x="906" y="690" type="line"/>
      <point x="234" y="690" type="line"/>
      <point x="234" y="628" type="line"/>
      <point x="906" y="628" type="line"/>
    </contour>
    <contour>
      <point x="104" y="463" type="line"/>
      <point x="208" y="557"/>
      <point x="288" y="699"/>
      <point x="321" y="818" type="curve"/>
      <point x="258" y="833" type="line"/>
      <point x="225" y="718"/>
      <point x="153" y="599"/>
      <point x="55" y="509" type="curve"/>
    </contour>
    <contour>
      <point x="77" y="-66" type="line"/>
      <point x="376" y="66"/>
      <point x="474" y="165"/>
      <point x="491" y="325" type="curve"/>
      <point x="498" y="325" type="line"/>
      <point x="515" y="165"/>
      <point x="626" y="66"/>
      <point x="925" y="-66" type="curve"/>
      <point x="954" y="-5" type="line"/>
      <point x="633" y="134"/>
      <point x="527" y="241"/>
      <point x="527" y="420" type="curve" smooth="yes"/>
      <point x="527" y="680" type="line"/>
      <point x="459" y="680" type="line"/>
      <point x="459" y="420" type="line" smooth="yes"/>
      <point x="459" y="241"/>
      <point x="368" y="134"/>
      <point x="48" y="-4" type="curve"/>
    </contour>
  </outline>
</glyph>
<glyph name="uni77F3" format="2">
  <advance width="1000"/>
  <unicode hex="2F6F"/>
  <unicode hex="77F3"/>
  <outline>
    <contour>
      <point x="316" y="-69" type="line"/>
      <point x="316" y="398" type="line"/>
      <point x="794" y="398" type="line"/>
      <point x="794" y="-69" type="line"/>
      <point x="860" y="-69" type="line"/>
      <point x="860" y="459" type="line"/>
      <point x="308" y="459" type="line"/>
      <point x="250" y="382" type="line"/>
      <point x="250" y="-69" type="line"/>
    </contour>
    <contour>
      <point x="819" y="1" type="line"/>
      <point x="819" y="62" type="line"/>
      <point x="278" y="62" type="line"/>
      <point x="278" y="1" type="line"/>
    </contour>
    <contour>
      <point x="76" y="214" type="line"/>
      <point x="275" y="335"/>
      <point x="421" y="514"/>
      <point x="492" y="729" type="curve"/>
      <point x="426" y="737" type="line"/>
      <point x="362" y="547"/>
      <point x="235" y="386"/>
      <point x="42" y="269" type="curve"/>
    </contour>
    <contour>
      <point x="938" y="717" type="line"/>
      <point x="938" y="780" type="line"/>
      <point x="66" y="780" type="line"/>
      <point x="66" y="717" type="line"/>
    </contour>
  </outline>
</glyph>
<glyph name="uni79BE" format="2">
  <advance width="1000"/>
  <unicode hex="2F72"/>
  <unicode hex="79BE"/>
  <outline>
    <contour>
      <point x="524" y="-75" type="line"/>
      <point x="524" y="414" type="line"/>
      <point x="531" y="414" type="line"/>
      <point x="550" y="290"/>
      <point x="654" y="183"/>
      <point x="915" y="26" type="curve"/>
      <point x="952" y="80" type="line"/>
      <point x="679" y="240"/>
      <point x="572" y="352"/>
      <point x="540" y="490" type="curve"/>
      <point x="524" y="490" type="line"/>
      <point x="524" y="738" type="line"/>
      <point x="459" y="738" type="line"/>
      <point x="459" y="490" type="line"/>
      <point x="443" y="490" type="line"/>
      <point x="413" y="358"/>
      <point x="311" y="240"/>
      <point x="50" y="81" type="curve"/>
      <point x="87" y="26" type="line"/>
      <point x="337" y="183"/>
      <point x="436" y="290"/>
      <point x="452" y="414" type="curve"/>
      <point x="459" y="414" type="line"/>
      <point x="459" y="-75" type="line"/>
    </contour>
    <contour>
      <point x="935" y="442" type="line"/>
      <point x="935" y="504" type="line"/>
      <point x="65" y="504" type="line"/>
      <point x="65" y="442" type="line"/>
    </contour>
    <contour>
      <point x="122" y="680" type="line"/>
      <point x="388" y="684"/>
      <point x="683" y="709"/>
      <point x="884" y="766" type="curve"/>
      <point x="857" y="824" type="line"/>
      <point x="666" y="770"/>
      <point x="381" y="744"/>
      <point x="110" y="742" type="curve"/>
    </contour>
  </outline>
</glyph>
<glyph name="uni7ACB" format="2">
  <advance width="1000"/>
  <unicode hex="2F74"/>
  <unicode hex="7ACB"/>
  <outline>
    <contour>
      <point x="598" y="22" type="line"/>
      <point x="686" y="174"/>
      <point x="757" y="369"/>
      <point x="800" y="526" type="curve"/>
      <point x="730" y="543" type="line"/>
      <point x="686" y="375"/>
      <point x="617" y="186"/>
      <point x="525" y="22" type="curve"/>
    </contour>
    <contour>
      <point x="948" y="-20" type="line"/>
      <point x="948" y="42" type="line"/>
      <point x="52" y="42" type="line"/>
      <point x="52" y="-20" type="line"/>
    </contour>
    <contour>
      <point x="405" y="130" type="line"/>
      <point x="373" y="257"/>
      <point x="312" y="424"/>
      <point x="258" y="535" type="curve"/>
      <point x="195" y="510" type="line"/>
      <point x="251" y="395"/>
      <point x="309" y="234"/>
      <point x="340" y="108" type="curve"/>
    </contour>
    <contour>
      <point x="938" y="604" type="line"/>
      <point x="938" y="666" type="line"/>
      <point x="62" y="666" type="line"/>
      <point x="62" y="604" type="line"/>
    </contour>
    <contour>
      <point x="558" y="705" type="line"/>
      <point x="529" y="752"/>
      <point x="499" y="796"/>
      <point x="465" y="839" type="curve"/>
      <point x="410" y="806" type="line"/>
      <point x="445" y="764"/>
      <point x="475" y="721"/>
      <point x="503" y="673" type="curve"/>
    </contour>
  </outline>
</glyph>
<glyph name="uni7AF9" format="2">
  <advance width="1000"/>
  <unicode hex="2F75"/>
  <unicode hex="7AF9"/>
  <outline>
    <contour>
      <point x="720" y="-60" type="line" smooth="yes"/>
      <point x="774" y="-60"/>
      <point x="798" y="-38"/>
      <point x="798" y="17" type="curve" smooth="yes"/>
      <point x="798" y="612" type="line"/>
      <point x="734" y="612" type="line"/>
      <point x="734" y="5" type="line"/>
      <point x="541" y="5" type="line"/>
      <point x="559" y="-60" type="line"/>
    </contour>
    <contour>
      <point x="324" y="-74" type="line"/>
      <point x="324" y="599" type="line"/>
      <point x="260" y="599" type="line"/>
      <point x="260" y="-74" type="line"/>
    </contour>
    <contour>
      <point x="82" y="374" type="line"/>
      <point x="196" y="490"/>
      <point x="294" y="682"/>
      <point x="325" y="830" type="curve"/>
      <point x="265" y="840" type="line"/>
      <point x="230" y="685"/>
      <point x="140" y="526"/>
      <point x="35" y="417" type="curve"/>
    </contour>
    <contour>
      <point x="496" y="578" type="line"/>
      <point x="496" y="636" type="line"/>
      <point x="217" y="636" type="line"/>
      <point x="217" y="578" type="line"/>
    </contour>
    <contour>
      <point x="453" y="364" type="line"/>
      <point x="563" y="486"/>
      <point x="651" y="674"/>
      <point x="684" y="830" type="curve"/>
      <point x="623" y="839" type="line"/>
      <point x="588" y="682"/>
      <point x="504" y="516"/>
      <point x="406" y="406" type="curve"/>
    </contour>
    <contour>
      <point x="954" y="577" type="line"/>
      <point x="954" y="636" type="line"/>
      <point x="582" y="636" type="line"/>
      <point x="582" y="577" type="line"/>
    </contour>
  </outline>
</glyph>
<glyph name="uni7C73" format="2">
  <advance width="1000"/>
  <unicode hex="2F76"/>
  <unicode hex="7C73"/>
  <outline>
    <contour>
      <point x="524" y="-75" type="line"/>
      <point x="524" y="372" type="line"/>
      <point x="531" y="372" type="line"/>
      <point x="551" y="248"/>
      <point x="685" y="129"/>
      <point x="928" y="-9" type="curve"/>
      <point x="961" y="47" type="line"/>
      <point x="724" y="177"/>
      <point x="580" y="303"/>
      <point x="539" y="441" type="curve"/>
      <point x="524" y="441" type="line"/>
      <point x="524" y="835" type="line"/>
      <point x="459" y="835" type="line"/>
      <point x="459" y="441" type="line"/>
      <point x="444" y="441" type="line"/>
      <point x="404" y="304"/>
      <point x="269" y="178"/>
      <point x="38" y="46" type="curve"/>
      <point x="74" y="-9" type="line"/>
      <point x="312" y="129"/>
      <point x="432" y="248"/>
      <point x="452" y="372" type="curve"/>
      <point x="459" y="372" type="line"/>
      <point x="459" y="-75" type="line"/>
    </contour>
    <contour>
      <point x="353" y="559" type="line"/>
      <point x="302" y="641"/>
      <point x="234" y="725"/>
      <point x="175" y="782" type="curve"/>
      <point x="125" y="746" type="line"/>
      <point x="187" y="682"/>
      <point x="252" y="600"/>
      <point x="302" y="522" type="curve"/>
    </contour>
    <contour>
      <point x="938" y="398" type="line"/>
      <point x="938" y="459" type="line"/>
      <point x="59" y="459" type="line"/>
      <point x="59" y="398" type="line"/>
    </contour>
    <contour>
      <point x="688" y="514" type="line"/>
      <point x="756" y="581"/>
      <point x="825" y="679"/>
      <point x="864" y="756" type="curve"/>
      <point x="808" y="789" type="line"/>
      <point x="769" y="711"/>
      <point x="709" y="623"/>
      <point x="641" y="555" type="curve"/>
    </contour>
  </outline>
</glyph>
<glyph name="uni7F51" format="2">
  <advance width="1000"/>
  <unicode hex="2F79"/>
  <unicode hex="7F51"/>
  <outline>
    <contour>
      <point x="852" y="0" type="line"/>
      <point x="668" y="0" type="line"/>
      <point x="682" y="-59" type="line"/>
      <point x="841" y="-59" type="line" smooth="yes"/>
      <point x="892" y="-59"/>
      <point x="915" y="-39"/>
      <point x="915" y="11" type="curve" smooth="yes"/>
      <point x="915" y="794" type="line"/>
      <point x="86" y="794" type="line"/>
      <point x="86" y="-74" type="line"/>
      <point x="148" y="-74" type="line"/>
      <point x="148" y="737" type="line"/>
      <point x="852" y="737" type="line"/>
    </contour>
    <contour>
      <point x="500" y="198" type="line"/>
      <point x="436" y="346"/>
      <point x="331" y="531"/>
      <point x="255" y="642" type="curve"/>
      <point x="205" y="604" type="line"/>
      <point x="286" y="491"/>
      <point x="388" y="299"/>
      <point x="452" y="150" type="curve"/>
    </contour>
    <contour>
      <point x="232" y="57" type="line"/>
      <point x="351" y="233"/>
      <point x="426" y="411"/>
      <point x="477" y="652" type="curve"/>
      <point x="417" y="666" type="line"/>
      <point x="375" y="442"/>
      <point x="293" y="249"/>
      <point x="183" y="99" type="curve"/>
    </contour>
    <contour>
      <point x="800" y="133" type="line"/>
      <point x="734" y="296"/>
      <point x="631" y="507"/>
      <point x="548" y="635" type="curve"/>
      <point x="498" y="598" type="line"/>
      <point x="583" y="469"/>
      <point x="683" y="261"/>
      <point x="747" y="95" type="curve"/>
    </contour>
    <contour>
      <point x="505" y="36" type="line"/>
      <point x="641" y="219"/>
      <point x="723" y="394"/>
      <point x="775" y="652" type="curve"/>
      <point x="715" y="665" type="line"/>
      <point x="670" y="424"/>
      <point x="582" y="239"/>
      <point x="456" y="78" type="curve"/>
    </contour>
  </outline>
</glyph>
<glyph name="uni7F8A" format="2">
  <advance width="1000"/>
  <unicode hex="2F7A"/>
  <unicode hex="7F8A"/>
  <outline>
    <contour>
      <point x="946" y="169" type="line"/>
      <point x="946" y="229" type="line"/>
      <point x="54" y="229" type="line"/>
      <point x="54" y="169" type="line"/>
    </contour>
    <contour>
      <point x="525" y="-74" type="line"/>
      <point x="525" y="638" type="line"/>
      <point x="459" y="638" type="line"/>
      <point x="459" y="-74" type="line"/>
    </contour>
    <contour>
      <point x="879" y="390" type="line"/>
      <point x="879" y="450" type="line"/>
      <point x="121" y="450" type="line"/>
      <point x="121" y="390" type="line"/>
    </contour>
    <contour>
      <point x="377" y="697" type="line"/>
      <point x="351" y="747"/>
      <point x="319" y="798"/>
      <point x="284" y="843" type="curve"/>
      <point x="230" y="812" type="line"/>
      <point x="264" y="768"/>
      <point x="296" y="718"/>
      <point x="321" y="669" type="curve"/>
    </contour>
    <contour>
      <point x="917" y="601" type="line"/>
      <point x="917" y="661" type="line"/>
      <point x="82" y="661" type="line"/>
      <point x="82" y="601" type="line"/>
    </contour>
    <contour>
      <point x="654" y="633" type="line"/>
      <point x="701" y="687"/>
      <point x="743" y="763"/>
      <point x="770" y="820" type="curve"/>
      <point x="712" y="844" type="line"/>
      <point x="683" y="779"/>
      <point x="640" y="704"/>
      <point x="585" y="636" type="curve"/>
    </contour>
  </outline>
</glyph>
<glyph name="uni8001" format="2">
  <advance width="1000"/>
  <unicode hex="2F7C"/>
  <unicode hex="8001"/>
  <outline>
    <contour>
      <point x="413" y="834" type="line"/>
      <point x="413" y="490" type="line"/>
      <point x="477" y="490" type="line"/>
      <point x="477" y="834" type="line"/>
    </contour>
    <contour>
      <point x="946" y="511" type="line"/>
      <point x="54" y="511" type="line"/>
      <point x="54" y="453" type="line"/>
      <point x="946" y="453" type="line"/>
    </contour>
    <contour>
      <point x="728" y="711" type="line"/>
      <point x="110" y="711" type="line"/>
      <point x="110" y="653" type="line"/>
      <point x="728" y="653" type="line"/>
    </contour>
    <contour>
      <point x="820" y="-47" type="line" smooth="yes"/>
      <point x="870" y="-47"/>
      <point x="890" y="-32"/>
      <point x="890" y="14" type="curve" smooth="yes"/>
      <point x="890" y="135" type="line"/>
      <point x="824" y="151" type="line"/>
      <point x="824" y="13" type="line"/>
      <point x="433" y="13" type="line" smooth="yes"/>
      <point x="373" y="13"/>
      <point x="365" y="24"/>
      <point x="365" y="73" type="curve" smooth="yes"/>
      <point x="365" y="323" type="line"/>
      <point x="298" y="323" type="line"/>
      <point x="298" y="68" type="line" smooth="yes"/>
      <point x="298" y="-16"/>
      <point x="325" y="-47"/>
      <point x="416" y="-47" type="curve" smooth="yes"/>
    </contour>
    <contour>
      <point x="341" y="147" type="line"/>
      <point x="535" y="164"/>
      <point x="711" y="201"/>
      <point x="861" y="263" type="curve"/>
      <point x="830" y="317" type="line"/>
      <point x="687" y="258"/>
      <point x="517" y="221"/>
      <point x="333" y="205" type="curve"/>
    </contour>
    <contour>
      <point x="63" y="163" type="line"/>
      <point x="408" y="288"/>
      <point x="701" y="467"/>
      <point x="915" y="746" type="curve"/>
      <point x="865" y="781" type="line"/>
      <point x="663" y="515"/>
      <point x="405" y="356"/>
      <point x="36" y="221" type="curve"/>
    </contour>
  </outline>
</glyph>
<glyph name="uni8012" format="2">
  <advance width="1000"/>
  <unicode hex="2F7E"/>
  <unicode hex="8012"/>
  <outline>
    <contour>
      <point x="523" y="-75" type="line"/>
      <point x="523" y="264" type="line"/>
      <point x="530" y="264" type="line"/>
      <point x="558" y="143"/>
      <point x="705" y="59"/>
      <point x="938" y="-40" type="curve"/>
      <point x="967" y="18" type="line"/>
      <point x="738" y="109"/>
      <point x="582" y="199"/>
      <point x="539" y="320" type="curve"/>
      <point x="523" y="320" type="line"/>
      <point x="523" y="835" type="line"/>
      <point x="459" y="835" type="line"/>
      <point x="459" y="320" type="line"/>
      <point x="444" y="320" type="line"/>
      <point x="399" y="198"/>
      <point x="254" y="108"/>
      <point x="33" y="18" type="curve"/>
      <point x="64" y="-39" type="line"/>
      <point x="297" y="59"/>
      <point x="424" y="143"/>
      <point x="452" y="264" type="curve"/>
      <point x="459" y="264" type="line"/>
      <point x="459" y="-75" type="line"/>
    </contour>
    <contour>
      <point x="949" y="290" type="line"/>
      <point x="949" y="349" type="line"/>
      <point x="51" y="349" type="line"/>
      <point x="51" y="290" type="line"/>
    </contour>
    <contour>
      <point x="903" y="491" type="line"/>
      <point x="903" y="550" type="line"/>
      <point x="97" y="550" type="line"/>
      <point x="97" y="491" type="line"/>
    </contour>
    <contour>
      <point x="924" y="688" type="line"/>
      <point x="924" y="747" type="line"/>
      <point x="76" y="747" type="line"/>
      <point x="76" y="688" type="line"/>
    </contour>
  </outline>
</glyph>
<glyph name="uni807F" format="2">
  <advance width="1000"/>
  <unicode hex="2F80"/>
  <unicode hex="807F"/>
  <outline>
    <contour>
      <point x="461" y="834" type="line"/>
      <point x="461" y="-74" type="line"/>
      <point x="524" y="-74" type="line"/>
      <point x="524" y="834" type="line"/>
    </contour>
    <contour>
      <point x="949" y="62" type="line"/>
      <point x="949" y="119" type="line"/>
      <point x="51" y="119" type="line"/>
      <point x="51" y="62" type="line"/>
    </contour>
    <contour>
      <point x="912" y="224" type="line"/>
      <point x="912" y="280" type="line"/>
      <point x="88" y="280" type="line"/>
      <point x="88" y="224" type="line"/>
    </contour>
    <contour>
      <point x="954" y="596" type="line"/>
      <point x="46" y="596" type="line"/>
      <point x="46" y="539" type="line"/>
      <point x="954" y="539" type="line"/>
    </contour>
    <contour>
      <point x="870" y="382" type="line"/>
      <point x="870" y="753" type="line"/>
      <point x="116" y="753" type="line"/>
      <point x="116" y="697" type="line"/>
      <point x="806" y="697" type="line"/>
      <point x="806" y="437" type="line"/>
      <point x="110" y="437" type="line"/>
      <point x="110" y="382" type="line"/>
    </contour>
  </outline>
</glyph>
<glyph name="uni821B" format="2">
  <advance width="1000"/>
  <unicode hex="2F87"/>
  <unicode hex="821B"/>
  <outline>
    <contour>
      <point x="751" y="834" type="line"/>
      <point x="751" y="-74" type="line"/>
      <point x="815" y="-74" type="line"/>
      <point x="815" y="834" type="line"/>
    </contour>
    <contour>
      <point x="960" y="245" type="line"/>
      <point x="512" y="245" type="line"/>
      <point x="512" y="186" type="line"/>
      <point x="960" y="186" type="line"/>
    </contour>
    <contour>
      <point x="954" y="651" type="line"/>
      <point x="519" y="651" type="line"/>
      <point x="519" y="593" type="line"/>
      <point x="954" y="593" type="line"/>
    </contour>
    <contour>
      <point x="532" y="186" type="line"/>
      <point x="563" y="279"/>
      <point x="590" y="419"/>
      <point x="602" y="517" type="curve"/>
      <point x="541" y="522" type="line"/>
      <point x="530" y="429"/>
      <point x="502" y="284"/>
      <point x="467" y="186" type="curve"/>
    </contour>
    <contour>
      <point x="79" y="322" type="line"/>
      <point x="197" y="464"/>
      <point x="254" y="625"/>
      <point x="280" y="824" type="curve"/>
      <point x="219" y="832" type="line"/>
      <point x="192" y="638"/>
      <point x="142" y="499"/>
      <point x="38" y="373" type="curve"/>
    </contour>
    <contour>
      <point x="372" y="293" type="line"/>
      <point x="320" y="348"/>
      <point x="266" y="395"/>
      <point x="210" y="439" type="curve"/>
      <point x="174" y="389" type="line"/>
      <point x="230" y="346"/>
      <point x="286" y="298"/>
      <point x="342" y="239" type="curve"/>
    </contour>
    <contour>
      <point x="115" y="-73" type="line"/>
      <point x="358" y="131"/>
      <point x="451" y="351"/>
      <point x="478" y="649" type="curve"/>
      <point x="478" y="694" type="line"/>
      <point x="209" y="694" type="line"/>
      <point x="209" y="635" type="line"/>
      <point x="414" y="635" type="line"/>
      <point x="387" y="373"/>
      <point x="309" y="173"/>
      <point x="74" y="-21" type="curve"/>
    </contour>
  </outline>
</glyph>
<glyph name="uni826E" format="2">
  <advance width="1000"/>
  <unicode hex="2F89"/>
  <unicode hex="826E"/>
  <outline>
    <contour>
      <point x="230" y="360" type="line"/>
      <point x="841" y="360" type="line"/>
      <point x="841" y="803" type="line"/>
      <point x="165" y="803" type="line"/>
      <point x="165" y="58" type="line" smooth="yes"/>
      <point x="165" y="21"/>
      <point x="157" y="10"/>
      <point x="125" y="0" type="curve"/>
      <point x="230" y="-6" type="line"/>
    </contour>
    <contour>
      <point x="949" y="-6" type="line"/>
      <point x="707" y="65"/>
      <point x="553" y="171"/>
      <point x="475" y="390" type="curve"/>
      <point x="418" y="367" type="line"/>
      <point x="507" y="130"/>
      <point x="670" y="9"/>
      <point x="926" y="-65" type="curve"/>
    </contour>
    <contour>
      <point x="631" y="109" type="line"/>
      <point x="716" y="150"/>
      <point x="818" y="217"/>
      <point x="889" y="279" type="curve"/>
      <point x="849" y="324" type="line"/>
      <point x="790" y="269"/>
      <point x="688" y="199"/>
      <point x="598" y="159" type="curve"/>
    </contour>
    <contour>
      <point x="799" y="557" type="line"/>
      <point x="799" y="612" type="line"/>
      <point x="210" y="612" type="line"/>
      <point x="210" y="557" type="line"/>
    </contour>
    <contour>
      <point x="230" y="746" type="line"/>
      <point x="776" y="746" type="line"/>
      <point x="776" y="416" type="line"/>
      <point x="230" y="416" type="line"/>
    </contour>
    <contour>
      <point x="142" y="-58" type="line"/>
      <point x="262" y="-30"/>
      <point x="395" y="9"/>
      <point x="507" y="50" type="curve"/>
      <point x="493" y="108" type="line"/>
      <point x="376" y="66"/>
      <point x="249" y="28"/>
      <point x="125" y="0" type="curve"/>
    </contour>
  </outline>
</glyph>
<glyph name="uni8840" format="2">
  <advance width="1000"/>
  <unicode hex="2F8E"/>
  <unicode hex="8840"/>
  <outline>
    <contour>
      <point x="185" y="12" type="line"/>
      <point x="185" y="620" type="line"/>
      <point x="815" y="620" type="line"/>
      <point x="815" y="12" type="line"/>
      <point x="880" y="12" type="line"/>
      <point x="880" y="680" type="line"/>
      <point x="121" y="680" type="line"/>
      <point x="121" y="12" type="line"/>
    </contour>
    <contour>
      <point x="954" y="-25" type="line"/>
      <point x="954" y="36" type="line"/>
      <point x="46" y="36" type="line"/>
      <point x="46" y="-25" type="line"/>
    </contour>
    <contour>
      <point x="412" y="10" type="line"/>
      <point x="412" y="657" type="line"/>
      <point x="351" y="657" type="line"/>
      <point x="351" y="10" type="line"/>
    </contour>
    <contour>
      <point x="642" y="10" type="line"/>
      <point x="642" y="657" type="line"/>
      <point x="581" y="657" type="line"/>
      <point x="581" y="10" type="line"/>
    </contour>
    <contour>
      <point x="462" y="641" type="line"/>
      <point x="503" y="696"/>
      <point x="528" y="758"/>
      <point x="549" y="817" type="curve"/>
      <point x="483" y="831" type="line"/>
      <point x="464" y="768"/>
      <point x="432" y="702"/>
      <point x="393" y="642" type="curve"/>
    </contour>
  </outline>
</glyph>
<glyph name="uni8863" format="2">
  <advance width="1000"/>
  <unicode hex="2F90"/>
  <unicode hex="8863"/>
  <outline>
    <contour>
      <point x="960" y="-6" type="line"/>
      <point x="718" y="154"/>
      <point x="582" y="357"/>
      <point x="548" y="632" type="curve"/>
      <point x="490" y="630" type="line"/>
      <point x="521" y="332"/>
      <point x="669" y="108"/>
      <point x="924" y="-61" type="curve"/>
    </contour>
    <contour>
      <point x="237" y="-61" type="line"/>
      <point x="364" y="-25"/>
      <point x="493" y="17"/>
      <point x="606" y="63" type="curve"/>
      <point x="589" y="122" type="line"/>
      <point x="512" y="90"/>
      <point x="414" y="55"/>
      <point x="321" y="26" type="curve"/>
      <point x="321" y="385" type="line"/>
      <point x="255" y="340" type="line"/>
      <point x="255" y="46" type="line" smooth="yes"/>
      <point x="255" y="17"/>
      <point x="245" y="6"/>
      <point x="219" y="-3" type="curve"/>
    </contour>
    <contour>
      <point x="68" y="211" type="line"/>
      <point x="270" y="306"/>
      <point x="430" y="452"/>
      <point x="493" y="627" type="curve"/>
      <point x="439" y="647" type="line"/>
      <point x="374" y="488"/>
      <point x="226" y="355"/>
      <point x="38" y="269" type="curve"/>
    </contour>
    <contour>
      <point x="944" y="607" type="line"/>
      <point x="944" y="668" type="line"/>
      <point x="58" y="668" type="line"/>
      <point x="58" y="607" type="line"/>
    </contour>
    <contour>
      <point x="660" y="262" type="line"/>
      <point x="755" y="321"/>
      <point x="853" y="403"/>
      <point x="922" y="472" type="curve"/>
      <point x="878" y="516" type="line"/>
      <point x="814" y="449"/>
      <point x="719" y="370"/>
      <point x="629" y="316" type="curve"/>
    </contour>
    <contour>
      <point x="562" y="698" type="line"/>
      <point x="529" y="748"/>
      <point x="495" y="798"/>
      <point x="456" y="843" type="curve"/>
      <point x="402" y="806" type="line"/>
      <point x="443" y="757"/>
      <point x="477" y="711"/>
      <point x="507" y="663" type="curve"/>
    </contour>
  </outline>
</glyph>
<glyph name="uni8A00" format="2">
  <advance width="1000"/>
  <unicode hex="2F94"/>
  <unicode hex="8A00"/>
  <outline>
    <contour>
      <point x="55" y="662" type="line"/>
      <point x="945" y="662" type="line"/>
      <point x="945" y="720" type="line"/>
      <point x="55" y="720" type="line"/>
    </contour>
    <contour>
      <point x="164" y="563" type="line"/>
      <point x="164" y="507" type="line"/>
      <point x="836" y="507" type="line"/>
      <point x="836" y="563" type="line"/>
    </contour>
    <contour>
      <point x="836" y="352" type="line"/>
      <point x="836" y="408" type="line"/>
      <point x="164" y="408" type="line"/>
      <point x="164" y="352" type="line"/>
    </contour>
    <contour>
      <point x="225" y="-74" type="line"/>
      <point x="225" y="-18" type="line"/>
      <point x="775" y="-18" type="line"/>
      <point x="775" y="-74" type="line"/>
      <point x="840" y="-74" type="line"/>
      <point x="840" y="248" type="line"/>
      <point x="160" y="248" type="line"/>
      <point x="160" y="-74" type="line"/>
    </contour>
    <contour>
      <point x="775" y="39" type="line"/>
      <point x="225" y="39" type="line"/>
      <point x="225" y="191" type="line"/>
      <point x="775" y="191" type="line"/>
    </contour>
    <contour>
      <point x="557" y="711" type="line"/>
      <point x="535" y="758"/>
      <point x="510" y="805"/>
      <point x="483" y="847" type="curve"/>
      <point x="427" y="820" type="line"/>
      <point x="453" y="781"/>
      <point x="476" y="741"/>
      <point x="497" y="703" type="curve"/>
    </contour>
  </outline>
</glyph>
<glyph name="uni8C55" format="2">
  <advance width="1000"/>
  <unicode hex="2F97"/>
  <unicode hex="8C55"/>
  <outline>
    <contour>
      <point x="402" y="-59" type="line" smooth="yes"/>
      <point x="540" y="-59"/>
      <point x="592" y="1"/>
      <point x="592" y="150" type="curve" smooth="yes"/>
      <point x="592" y="328"/>
      <point x="534" y="483"/>
      <point x="390" y="632" type="curve"/>
      <point x="343" y="593" type="line"/>
      <point x="484" y="454"/>
      <point x="528" y="308"/>
      <point x="528" y="149" type="curve" smooth="yes"/>
      <point x="528" y="40"/>
      <point x="487" y="2"/>
      <point x="396" y="2" type="curve" smooth="yes"/>
      <point x="305" y="2" type="line"/>
      <point x="320" y="-59" type="line"/>
    </contour>
    <contour>
      <point x="68" y="16" type="line"/>
      <point x="267" y="84"/>
      <point x="427" y="178"/>
      <point x="534" y="293" type="curve"/>
      <point x="509" y="353" type="line"/>
      <point x="394" y="232"/>
      <point x="241" y="141"/>
      <point x="42" y="77" type="curve"/>
    </contour>
    <contour>
      <point x="73" y="243" type="line"/>
      <point x="245" y="300"/>
      <point x="387" y="378"/>
      <point x="482" y="468" type="curve"/>
      <point x="451" y="520" type="line"/>
      <point x="357" y="432"/>
      <point x="217" y="356"/>
      <point x="48" y="303" type="curve"/>
    </contour>
    <contour>
      <point x="82" y="468" type="line"/>
      <point x="269" y="519"/>
      <point x="459" y="613"/>
      <point x="559" y="744" type="curve"/>
      <point x="494" y="763" type="line"/>
      <point x="410" y="654"/>
      <point x="242" y="574"/>
      <point x="58" y="528" type="curve"/>
    </contour>
    <contour>
      <point x="959" y="64" type="line"/>
      <point x="824" y="185"/>
      <point x="744" y="327"/>
      <point x="699" y="498" type="curve"/>
      <point x="639" y="472" type="line"/>
      <point x="687" y="303"/>
      <point x="777" y="136"/>
      <point x="916" y="14" type="curve"/>
    </contour>
    <contour>
      <point x="540" y="386" type="line"/>
      <point x="673" y="439"/>
      <point x="806" y="522"/>
      <point x="907" y="608" type="curve"/>
      <point x="865" y="654" type="line"/>
      <point x="767" y="568"/>
      <point x="636" y="491"/>
      <point x="515" y="442" type="curve"/>
    </contour>
    <contour>
      <point x="933" y="736" type="line"/>
      <point x="933" y="795" type="line"/>
      <point x="69" y="795" type="line"/>
      <point x="69" y="736" type="line"/>
    </contour>
  </outline>
</glyph>
<glyph name="uni8C78" format="2">
  <advance width="1000"/>
  <unicode hex="2F98"/>
  <unicode hex="8C78"/>
  <outline>
    <contour>
      <point x="822" y="647" type="line"/>
      <point x="669" y="562"/>
      <point x="429" y="484"/>
      <point x="138" y="457" type="curve"/>
      <point x="157" y="398" type="line"/>
      <point x="445" y="428"/>
      <point x="690" y="503"/>
      <point x="856" y="596" type="curve"/>
    </contour>
    <contour>
      <point x="647" y="435" type="line"/>
      <point x="521" y="348"/>
      <point x="340" y="289"/>
      <point x="132" y="257" type="curve"/>
      <point x="150" y="198" type="line"/>
      <point x="365" y="232"/>
      <point x="550" y="295"/>
      <point x="679" y="387" type="curve"/>
    </contour>
    <contour>
      <point x="710" y="298" type="line"/>
      <point x="573" y="181"/>
      <point x="358" y="102"/>
      <point x="138" y="64" type="curve"/>
      <point x="157" y="5" type="line"/>
      <point x="389" y="44"/>
      <point x="603" y="129"/>
      <point x="733" y="242" type="curve"/>
    </contour>
    <contour>
      <point x="722" y="839" type="line"/>
      <point x="570" y="769"/>
      <point x="372" y="733"/>
      <point x="154" y="709" type="curve"/>
      <point x="171" y="651" type="line"/>
      <point x="393" y="675"/>
      <point x="607" y="718"/>
      <point x="755" y="788" type="curve"/>
    </contour>
    <contour>
      <point x="458" y="503" type="line"/>
      <point x="422" y="552"/>
      <point x="379" y="604"/>
      <point x="335" y="646" type="curve"/>
      <point x="287" y="609" type="line"/>
      <point x="327" y="570"/>
      <point x="376" y="515"/>
      <point x="411" y="467" type="curve"/>
    </contour>
    <contour>
      <point x="664" y="567" type="line"/>
      <point x="633" y="613"/>
      <point x="595" y="659"/>
      <point x="560" y="696" type="curve"/>
      <point x="511" y="661" type="line"/>
      <point x="544" y="627"/>
      <point x="585" y="579"/>
      <point x="616" y="536" type="curve"/>
    </contour>
    <contour>
      <point x="729" y="139" type="curve" smooth="yes"/>
      <point x="729" y="47"/>
      <point x="708" y="1"/>
      <point x="607" y="1" type="curve" smooth="yes"/>
      <point x="503" y="1" type="line"/>
      <point x="520" y="-58" type="line"/>
      <point x="620" y="-58" type="line" smooth="yes"/>
      <point x="747" y="-58"/>
      <point x="791" y="4"/>
      <point x="791" y="142" type="curve" smooth="yes"/>
      <point x="791" y="276"/>
      <point x="717" y="415"/>
      <point x="597" y="519" type="curve"/>
      <point x="554" y="484" type="line"/>
      <point x="664" y="388"/>
      <point x="729" y="266"/>
    </contour>
  </outline>
</glyph>
<glyph name="uni8D70" format="2">
  <advance width="1000"/>
  <unicode hex="2F9B"/>
  <unicode hex="8D70"/>
  <outline>
    <contour>
      <point x="79" y="-65" type="line"/>
      <point x="186" y="16"/>
      <point x="220" y="75"/>
      <point x="229" y="181" type="curve"/>
      <point x="236" y="181" type="line"/>
      <point x="255" y="5"/>
      <point x="370" y="-48"/>
      <point x="576" y="-48" type="curve" smooth="yes"/>
      <point x="937" y="-48" type="line"/>
      <point x="947" y="12" type="line"/>
      <point x="561" y="12" type="line" smooth="yes"/>
      <point x="358" y="12"/>
      <point x="265" y="95"/>
      <point x="265" y="284" type="curve" smooth="yes"/>
      <point x="265" y="337" type="line"/>
      <point x="200" y="337" type="line"/>
      <point x="200" y="285" type="line" smooth="yes"/>
      <point x="200" y="130"/>
      <point x="159" y="78"/>
      <point x="43" y="-10" type="curve"/>
    </contour>
    <contour>
      <point x="524" y="-5" type="line"/>
      <point x="524" y="834" type="line"/>
      <point x="458" y="834" type="line"/>
      <point x="458" y="-5" type="line"/>
    </contour>
    <contour>
      <point x="894" y="204" type="line"/>
      <point x="894" y="261" type="line"/>
      <point x="495" y="261" type="line"/>
      <point x="496" y="204" type="line"/>
    </contour>
    <contour>
      <point x="949" y="426" type="line"/>
      <point x="949" y="484" type="line"/>
      <point x="50" y="484" type="line"/>
      <point x="50" y="426" type="line"/>
    </contour>
    <contour>
      <point x="894" y="642" type="line"/>
      <point x="894" y="699" type="line"/>
      <point x="106" y="699" type="line"/>
      <point x="106" y="642" type="line"/>
    </contour>
  </outline>
</glyph>
<glyph name="uni8DB3" format="2">
  <advance width="1000"/>
  <unicode hex="2F9C"/>
  <unicode hex="8DB3"/>
  <outline>
    <contour>
      <point x="81" y="-67" type="line"/>
      <point x="193" y="13"/>
      <point x="226" y="65"/>
      <point x="236" y="165" type="curve"/>
      <point x="243" y="165" type="line"/>
      <point x="257" y="17"/>
      <point x="382" y="-42"/>
      <point x="543" y="-42" type="curve" smooth="yes"/>
      <point x="937" y="-42" type="line"/>
      <point x="947" y="18" type="line"/>
      <point x="533" y="18" type="line" smooth="yes"/>
      <point x="367" y="18"/>
      <point x="272" y="108"/>
      <point x="272" y="249" type="curve" smooth="yes"/>
      <point x="272" y="386" type="line"/>
      <point x="208" y="386" type="line"/>
      <point x="208" y="256" type="line" smooth="yes"/>
      <point x="208" y="138"/>
      <point x="170" y="76"/>
      <point x="44" y="-10" type="curve"/>
    </contour>
    <contour>
      <point x="548" y="0" type="line"/>
      <point x="548" y="501" type="line"/>
      <point x="481" y="501" type="line"/>
      <point x="481" y="0" type="line"/>
    </contour>
    <contour>
      <point x="890" y="243" type="line"/>
      <point x="890" y="300" type="line"/>
      <point x="517" y="300" type="line"/>
      <point x="517" y="243" type="line"/>
    </contour>
    <contour>
      <point x="851" y="474" type="line"/>
      <point x="851" y="803" type="line"/>
      <point x="150" y="803" type="line"/>
      <point x="150" y="474" type="line"/>
    </contour>
    <contour>
      <point x="216" y="746" type="line"/>
      <point x="785" y="746" type="line"/>
      <point x="785" y="531" type="line"/>
      <point x="216" y="531" type="line"/>
    </contour>
  </outline>
</glyph>
<glyph name="uni8EAB" format="2">
  <advance width="1000"/>
  <unicode hex="2F9D"/>
  <unicode hex="8EAB"/>
  <outline>
    <contour>
      <point x="732" y="-54" type="line" smooth="yes"/>
      <point x="778" y="-54"/>
      <point x="797" y="-36"/>
      <point x="797" y="11" type="curve" smooth="yes"/>
      <point x="797" y="741" type="line"/>
      <point x="184" y="741" type="line"/>
      <point x="184" y="231" type="line"/>
      <point x="246" y="231" type="line"/>
      <point x="246" y="688" type="line"/>
      <point x="735" y="688" type="line"/>
      <point x="735" y="4" type="line"/>
      <point x="537" y="4" type="line"/>
      <point x="552" y="-54" type="line"/>
    </contour>
    <contour>
      <point x="72" y="-32" type="line"/>
      <point x="522" y="55"/>
      <point x="810" y="182"/>
      <point x="953" y="469" type="curve"/>
      <point x="903" y="500" type="line"/>
      <point x="759" y="214"/>
      <point x="495" y="105"/>
      <point x="56" y="28" type="curve"/>
    </contour>
    <contour>
      <point x="762" y="385" type="line"/>
      <point x="762" y="436" type="line"/>
      <point x="209" y="436" type="line"/>
      <point x="209" y="385" type="line"/>
    </contour>
    <contour>
      <point x="762" y="537" type="line"/>
      <point x="762" y="588" type="line"/>
      <point x="209" y="588" type="line"/>
      <point x="209" y="537" type="line"/>
    </contour>
    <contour>
      <point x="474" y="703" type="line"/>
      <point x="506" y="744"/>
      <point x="527" y="792"/>
      <point x="543" y="837" type="curve"/>
      <point x="477" y="847" type="line"/>
      <point x="462" y="799"/>
      <point x="438" y="750"/>
      <point x="407" y="705" type="curve"/>
    </contour>
    <contour>
      <point x="762" y="225" type="line"/>
      <point x="762" y="279" type="line"/>
      <point x="61" y="279" type="line"/>
      <point x="61" y="225" type="line"/>
    </contour>
  </outline>
</glyph>
<glyph name="uni9091" format="2">
  <advance width="1000"/>
  <unicode hex="2FA2"/>
  <unicode hex="9091"/>
  <outline>
    <contour>
      <point x="159" y="803" type="line"/>
      <point x="159" y="565" type="line"/>
      <point x="841" y="565" type="line"/>
      <point x="841" y="803" type="line"/>
    </contour>
    <contour>
      <point x="222" y="749" type="line"/>
      <point x="778" y="749" type="line"/>
      <point x="778" y="619" type="line"/>
      <point x="222" y="619" type="line"/>
    </contour>
    <contour>
      <point x="459" y="424" type="line"/>
      <point x="459" y="263" type="line"/>
      <point x="126" y="263" type="line"/>
      <point x="126" y="208" type="line"/>
      <point x="879" y="208" type="line"/>
      <point x="879" y="479" type="line"/>
      <point x="109" y="479" type="line"/>
      <point x="109" y="424" type="line"/>
    </contour>
    <contour>
      <point x="521" y="424" type="line"/>
      <point x="815" y="424" type="line"/>
      <point x="815" y="263" type="line"/>
      <point x="521" y="263" type="line"/>
    </contour>
    <contour>
      <point x="867" y="-54" type="line" smooth="yes"/>
      <point x="916" y="-54"/>
      <point x="934" y="-39"/>
      <point x="934" y="9" type="curve" smooth="yes"/>
      <point x="934" y="116" type="line"/>
      <point x="875" y="131" type="line"/>
      <point x="875" y="5" type="line"/>
      <point x="276" y="5" type="line" smooth="yes"/>
      <point x="193" y="5"/>
      <point x="173" y="17"/>
      <point x="173" y="90" type="curve" smooth="yes"/>
      <point x="173" y="461" type="line"/>
      <point x="109" y="461" type="line"/>
      <point x="109" y="81" type="line" smooth="yes"/>
      <point x="109" y="-21"/>
      <point x="143" y="-54"/>
      <point x="274" y="-54" type="curve" smooth="yes"/>
    </contour>
  </outline>
</glyph>
<glyph name="uni9149" format="2">
  <advance width="1000"/>
  <unicode hex="2FA3"/>
  <unicode hex="9149"/>
  <outline>
    <contour>
      <point x="162" y="-74" type="line"/>
      <point x="162" y="551" type="line"/>
      <point x="837" y="551" type="line"/>
      <point x="837" y="-74" type="line"/>
      <point x="900" y="-74" type="line"/>
      <point x="900" y="608" type="line"/>
      <point x="100" y="608" type="line"/>
      <point x="100" y="-74" type="line"/>
    </contour>
    <contour>
      <point x="860" y="-8" type="line"/>
      <point x="860" y="49" type="line"/>
      <point x="137" y="49" type="line"/>
      <point x="137" y="-8" type="line"/>
    </contour>
    <contour>
      <point x="862" y="158" type="line"/>
      <point x="862" y="213" type="line"/>
      <point x="136" y="213" type="line"/>
      <point x="136" y="158" type="line"/>
    </contour>
    <contour>
      <point x="234" y="265" type="line"/>
      <point x="386" y="365"/>
      <point x="425" y="442"/>
      <point x="425" y="598" type="curve" smooth="yes"/>
      <point x="425" y="758" type="line"/>
      <point x="365" y="758" type="line"/>
      <point x="365" y="598" type="line" smooth="yes"/>
      <point x="365" y="461"/>
      <point x="341" y="405"/>
      <point x="200" y="315" type="curve"/>
    </contour>
    <contour>
      <point x="846" y="322" type="line"/>
      <point x="855" y="378" type="line"/>
      <point x="673" y="378" type="line" smooth="yes"/>
      <point x="639" y="378"/>
      <point x="627" y="387"/>
      <point x="627" y="427" type="curve" smooth="yes"/>
      <point x="627" y="758" type="line"/>
      <point x="567" y="758" type="line"/>
      <point x="567" y="420" type="line" smooth="yes"/>
      <point x="567" y="344"/>
      <point x="593" y="322"/>
      <point x="662" y="322" type="curve" smooth="yes"/>
    </contour>
    <contour>
      <point x="954" y="735" type="line"/>
      <point x="954" y="794" type="line"/>
      <point x="46" y="794" type="line"/>
      <point x="46" y="735" type="line"/>
    </contour>
  </outline>
</glyph>
<glyph name="uni961C" format="2">
  <advance width="1000"/>
  <unicode hex="2FA9"/>
  <unicode hex="961C"/>
  <outline>
    <contour>
      <point x="888" y="253" type="line"/>
      <point x="888" y="468" type="line"/>
      <point x="201" y="468" type="line"/>
      <point x="201" y="544" type="line"/>
      <point x="852" y="544" type="line"/>
      <point x="852" y="757" type="line"/>
      <point x="139" y="757" type="line"/>
      <point x="139" y="253" type="line"/>
    </contour>
    <contour>
      <point x="524" y="-74" type="line"/>
      <point x="524" y="283" type="line"/>
      <point x="460" y="283" type="line"/>
      <point x="460" y="-74" type="line"/>
    </contour>
    <contour>
      <point x="954" y="101" type="line"/>
      <point x="954" y="158" type="line"/>
      <point x="46" y="158" type="line"/>
      <point x="46" y="101" type="line"/>
    </contour>
    <contour>
      <point x="201" y="414" type="line"/>
      <point x="826" y="414" type="line"/>
      <point x="826" y="308" type="line"/>
      <point x="201" y="308" type="line"/>
    </contour>
    <contour>
      <point x="201" y="702" type="line"/>
      <point x="790" y="702" type="line"/>
      <point x="790" y="598" type="line"/>
      <point x="201" y="598" type="line"/>
    </contour>
    <contour>
      <point x="487" y="737" type="line"/>
      <point x="507" y="769"/>
      <point x="524" y="807"/>
      <point x="533" y="834" type="curve"/>
      <point x="470" y="847" type="line"/>
      <point x="460" y="817"/>
      <point x="444" y="780"/>
      <point x="424" y="748" type="curve"/>
    </contour>
  </outline>
</glyph>
<glyph name="uni97F3" format="2">
  <advance width="1000"/>
  <unicode hex="2FB3"/>
  <unicode hex="97F3"/>
  <outline>
    <contour>
      <point x="366" y="555" type="line"/>
      <point x="348" y="595"/>
      <point x="318" y="652"/>
      <point x="296" y="684" type="curve"/>
      <point x="235" y="657" type="line"/>
      <point x="256" y="625"/>
      <point x="287" y="570"/>
      <point x="304" y="529" type="curve"/>
    </contour>
    <contour>
      <point x="946" y="460" type="line"/>
      <point x="946" y="517" type="line"/>
      <point x="55" y="517" type="line"/>
      <point x="55" y="460" type="line"/>
    </contour>
    <contour>
      <point x="916" y="698" type="line"/>
      <point x="916" y="754" type="line"/>
      <point x="85" y="754" type="line"/>
      <point x="85" y="698" type="line"/>
    </contour>
    <contour>
      <point x="674" y="491" type="line"/>
      <point x="710" y="541"/>
      <point x="742" y="599"/>
      <point x="771" y="658" type="curve"/>
      <point x="705" y="680" type="line"/>
      <point x="679" y="623"/>
      <point x="647" y="562"/>
      <point x="609" y="507" type="curve"/>
    </contour>
    <contour>
      <point x="553" y="738" type="line"/>
      <point x="537" y="775"/>
      <point x="517" y="812"/>
      <point x="496" y="847" type="curve"/>
      <point x="437" y="819" type="line"/>
      <point x="457" y="786"/>
      <point x="477" y="753"/>
      <point x="494" y="721" type="curve"/>
    </contour>
    <contour>
      <point x="784" y="208" type="line"/>
      <point x="214" y="208" type="line"/>
      <point x="214" y="153" type="line"/>
      <point x="784" y="153" type="line"/>
    </contour>
    <contour>
      <point x="163" y="371" type="line"/>
      <point x="163" y="-74" type="line"/>
      <point x="226" y="-74" type="line"/>
      <point x="226" y="-17" type="line"/>
      <point x="774" y="-17" type="line"/>
      <point x="774" y="-74" type="line"/>
      <point x="838" y="-74" type="line"/>
      <point x="838" y="371" type="line"/>
    </contour>
    <contour>
      <point x="226" y="314" type="line"/>
      <point x="774" y="314" type="line"/>
      <point x="774" y="40" type="line"/>
      <point x="226" y="40" type="line"/>
    </contour>
  </outline>
</glyph>
<glyph name="uni98DF" format="2">
  <advance width="1000"/>
  <unicode hex="2FB7"/>
  <unicode hex="98DF"/>
  <outline>
    <contour>
      <point x="263" y="-15" type="line"/>
      <point x="263" y="221" type="line"/>
      <point x="800" y="221" type="line"/>
      <point x="800" y="567" type="line"/>
      <point x="200" y="567" type="line"/>
      <point x="200" y="26" type="line" smooth="yes"/>
      <point x="200" y="3"/>
      <point x="193" y="-4"/>
      <point x="163" y="-12" type="curve"/>
    </contour>
    <contour>
      <point x="263" y="517" type="line"/>
      <point x="737" y="517" type="line"/>
      <point x="737" y="273" type="line"/>
      <point x="263" y="273" type="line"/>
    </contour>
    <contour>
      <point x="529" y="75" type="line"/>
      <point x="414" y="41"/>
      <point x="286" y="9"/>
      <point x="163" y="-12" type="curve"/>
      <point x="176" y="-68" type="line"/>
      <point x="303" y="-45"/>
      <point x="419" y="-17"/>
      <point x="539" y="18" type="curve"/>
    </contour>
    <contour>
      <point x="865" y="235" type="line"/>
      <point x="813" y="188"/>
      <point x="738" y="141"/>
      <point x="662" y="105" type="curve"/>
      <point x="698" y="60" type="line"/>
      <point x="772" y="95"/>
      <point x="850" y="145"/>
      <point x="907" y="194" type="curve"/>
    </contour>
    <contour>
      <point x="757" y="372" type="line"/>
      <point x="757" y="422" type="line"/>
      <point x="242" y="422" type="line"/>
      <point x="242" y="372" type="line"/>
    </contour>
    <contour>
      <point x="574" y="548" type="line"/>
      <point x="547" y="596"/>
      <point x="517" y="643"/>
      <point x="481" y="686" type="curve"/>
      <point x="426" y="656" type="line"/>
      <point x="463" y="613"/>
      <point x="491" y="574"/>
      <point x="518" y="528" type="curve"/>
    </contour>
    <contour>
      <point x="459" y="141" type="line"/>
      <point x="601" y="82"/>
      <point x="746" y="9"/>
      <point x="902" y="-78" type="curve"/>
      <point x="935" y="-27" type="line"/>
      <point x="778" y="60"/>
      <point x="636" y="131"/>
      <point x="492" y="189" type="curve"/>
    </contour>
    <contour>
      <point x="55" y="518" type="line"/>
      <point x="315" y="613"/>
      <point x="441" y="700"/>
      <point x="488" y="805" type="curve"/>
      <point x="495" y="805" type="line"/>
      <point x="540" y="700"/>
      <point x="678" y="614"/>
      <point x="946" y="518" type="curve"/>
      <point x="971" y="577" type="line"/>
      <point x="714" y="665"/>
      <point x="583" y="744"/>
      <point x="526" y="836" type="curve"/>
      <point x="457" y="836" type="line"/>
      <point x="400" y="743"/>
      <point x="284" y="665"/>
      <point x="29" y="577" type="curve"/>
    </contour>
  </outline>
</glyph>
<glyph name="uni9996" format="2">
  <advance width="1000"/>
  <unicode hex="2FB8"/>
  <unicode hex="9996"/>
  <outline>
    <contour>
      <point x="219" y="-74" type="line"/>
      <point x="219" y="-17" type="line"/>
      <point x="781" y="-17" type="line"/>
      <point x="781" y="-74" type="line"/>
      <point x="845" y="-74" type="line"/>
      <point x="845" y="537" type="line"/>
      <point x="156" y="537" type="line"/>
      <point x="156" y="-74" type="line"/>
    </contour>
    <contour>
      <point x="219" y="157" type="line"/>
      <point x="781" y="157" type="line"/>
      <point x="781" y="37" type="line"/>
      <point x="219" y="37" type="line"/>
    </contour>
    <contour>
      <point x="219" y="321" type="line"/>
      <point x="781" y="321" type="line"/>
      <point x="781" y="209" type="line"/>
      <point x="219" y="209" type="line"/>
    </contour>
    <contour>
      <point x="219" y="483" type="line"/>
      <point x="781" y="483" type="line"/>
      <point x="781" y="373" type="line"/>
      <point x="219" y="373" type="line"/>
    </contour>
    <contour>
      <point x="470" y="518" type="line"/>
      <point x="495" y="570"/>
      <point x="511" y="623"/>
      <point x="524" y="667" type="curve"/>
      <point x="461" y="667" type="line"/>
      <point x="449" y="622"/>
      <point x="430" y="570"/>
      <point x="404" y="518" type="curve"/>
    </contour>
    <contour>
      <point x="369" y="726" type="line"/>
      <point x="347" y="765"/>
      <point x="319" y="802"/>
      <point x="289" y="838" type="curve"/>
      <point x="238" y="808" type="line"/>
      <point x="269" y="770"/>
      <point x="294" y="736"/>
      <point x="315" y="698" type="curve"/>
    </contour>
    <contour>
      <point x="950" y="638" type="line"/>
      <point x="950" y="694" type="line"/>
      <point x="50" y="694" type="line"/>
      <point x="50" y="638" type="line"/>
    </contour>
    <contour>
      <point x="665" y="662" type="line"/>
      <point x="703" y="711"/>
      <point x="736" y="762"/>
      <point x="765" y="816" type="curve"/>
      <point x="707" y="839" type="line"/>
      <point x="681" y="785"/>
      <point x="648" y="729"/>
      <point x="601" y="666" type="curve"/>
    </contour>
  </outline>
</glyph>
<glyph name="uni9999" format="2">
  <advance width="1000"/>
  <unicode hex="2FB9"/>
  <unicode hex="9999"/>
  <outline>
    <contour>
      <point x="784" y="195" type="line"/>
      <point x="224" y="195" type="line"/>
      <point x="224" y="143" type="line"/>
      <point x="784" y="143" type="line"/>
    </contour>
    <contour>
      <point x="66" y="315" type="line"/>
      <point x="300" y="397"/>
      <point x="414" y="463"/>
      <point x="454" y="564" type="curve"/>
      <point x="461" y="564" type="line"/>
      <point x="461" y="378" type="line"/>
      <point x="524" y="378" type="line"/>
      <point x="524" y="564" type="line"/>
      <point x="530" y="564" type="line"/>
      <point x="569" y="462"/>
      <point x="694" y="397"/>
      <point x="935" y="315" type="curve"/>
      <point x="963" y="370" type="line"/>
      <point x="743" y="441"/>
      <point x="610" y="505"/>
      <point x="539" y="602" type="curve"/>
      <point x="524" y="602" type="line"/>
      <point x="524" y="762" type="line"/>
      <point x="461" y="762" type="line"/>
      <point x="461" y="602" type="line"/>
      <point x="446" y="602" type="line"/>
      <point x="374" y="505"/>
      <point x="250" y="440"/>
      <point x="37" y="369" type="curve"/>
    </contour>
    <contour>
      <point x="945" y="569" type="line"/>
      <point x="945" y="624" type="line"/>
      <point x="55" y="624" type="line"/>
      <point x="55" y="569" type="line"/>
    </contour>
    <contour>
      <point x="119" y="730" type="line"/>
      <point x="365" y="729"/>
      <point x="660" y="742"/>
      <point x="876" y="781" type="curve"/>
      <point x="852" y="834" type="line"/>
      <point x="630" y="795"/>
      <point x="351" y="786"/>
      <point x="107" y="786" type="curve"/>
    </contour>
    <contour>
      <point x="183" y="352" type="line"/>
      <point x="183" y="-74" type="line"/>
      <point x="245" y="-74" type="line"/>
      <point x="245" y="-19" type="line"/>
      <point x="755" y="-19" type="line"/>
      <point x="755" y="-74" type="line"/>
      <point x="817" y="-74" type="line"/>
      <point x="817" y="352" type="line"/>
    </contour>
    <contour>
      <point x="245" y="298" type="line"/>
      <point x="755" y="298" type="line"/>
      <point x="755" y="35" type="line"/>
      <point x="245" y="35" type="line"/>
    </contour>
  </outline>
</glyph>
<glyph name="uni9ADF" format="2">
  <advance width="1000"/>
  <unicode hex="2FBD"/>
  <unicode hex="9ADF"/>
  <outline>
    <contour>
      <point x="856" y="832" type="line"/>
      <point x="779" y="733"/>
      <point x="674" y="648"/>
      <point x="547" y="590" type="curve"/>
      <point x="581" y="533" type="line"/>
      <point x="712" y="596"/>
      <point x="827" y="691"/>
      <point x="906" y="793" type="curve"/>
    </contour>
    <contour>
      <point x="878" y="570" type="line"/>
      <point x="799" y="470"/>
      <point x="682" y="373"/>
      <point x="547" y="307" type="curve"/>
      <point x="582" y="250" type="line"/>
      <point x="723" y="325"/>
      <point x="847" y="429"/>
      <point x="928" y="532" type="curve"/>
    </contour>
    <contour>
      <point x="907" y="298" type="line"/>
      <point x="814" y="174"/>
      <point x="677" y="53"/>
      <point x="525" y="-21" type="curve"/>
      <point x="562" y="-79" type="line"/>
      <point x="716" y="-1"/>
      <point x="864" y="129"/>
      <point x="959" y="261" type="curve"/>
    </contour>
    <contour>
      <point x="45" y="282" type="line"/>
      <point x="516" y="282" type="line"/>
      <point x="516" y="341" type="line"/>
      <point x="45" y="341" type="line"/>
    </contour>
    <contour>
      <point x="483" y="649" type="line"/>
      <point x="160" y="649" type="line"/>
      <point x="160" y="595" type="line"/>
      <point x="483" y="595" type="line"/>
    </contour>
    <contour>
      <point x="483" y="498" type="line"/>
      <point x="160" y="498" type="line"/>
      <point x="160" y="444" type="line"/>
      <point x="483" y="444" type="line"/>
    </contour>
    <contour>
      <point x="458" y="73" type="line"/>
      <point x="340" y="51"/>
      <point x="213" y="35"/>
      <point x="70" y="20" type="curve"/>
      <point x="81" y="-37" type="line"/>
      <point x="224" y="-22"/>
      <point x="354" y="-4"/>
      <point x="468" y="16" type="curve"/>
    </contour>
    <contour>
      <point x="531" y="-35" type="line"/>
      <point x="487" y="58"/>
      <point x="427" y="160"/>
      <point x="376" y="230" type="curve"/>
      <point x="325" y="202" type="line"/>
      <point x="375" y="130"/>
      <point x="436" y="22"/>
      <point x="478" y="-64" type="curve"/>
    </contour>
    <contour>
      <point x="135" y="13" type="line"/>
      <point x="187" y="83"/>
      <point x="236" y="189"/>
      <point x="271" y="290" type="curve"/>
      <point x="209" y="306" type="line"/>
      <point x="176" y="202"/>
      <point x="124" y="91"/>
      <point x="70" y="20" type="curve"/>
    </contour>
    <contour>
      <point x="180" y="304" type="line"/>
      <point x="180" y="746" type="line"/>
      <point x="503" y="746" type="line"/>
      <point x="503" y="803" type="line"/>
      <point x="118" y="803" type="line"/>
      <point x="118" y="304" type="line"/>
    </contour>
  </outline>
</glyph>
<glyph name="uni9B2F" format="2">
  <advance width="1000"/>
  <unicode hex="2FBF"/>
  <unicode hex="9B2F"/>
  <outline>
    <contour>
      <point x="912" y="340" type="line"/>
      <point x="912" y="813" type="line"/>
      <point x="848" y="813" type="line"/>
      <point x="848" y="394" type="line"/>
      <point x="150" y="394" type="line"/>
      <point x="150" y="813" type="line"/>
      <point x="88" y="813" type="line"/>
      <point x="88" y="340" type="line"/>
    </contour>
    <contour>
      <point x="853" y="-53" type="line" smooth="yes"/>
      <point x="904" y="-53"/>
      <point x="923" y="-38"/>
      <point x="923" y="8" type="curve" smooth="yes"/>
      <point x="923" y="108" type="line"/>
      <point x="857" y="124" type="line"/>
      <point x="857" y="6" type="line"/>
      <point x="288" y="6" type="line" smooth="yes"/>
      <point x="233" y="6"/>
      <point x="222" y="18"/>
      <point x="222" y="65" type="curve" smooth="yes"/>
      <point x="222" y="304" type="line"/>
      <point x="155" y="304" type="line"/>
      <point x="155" y="59" type="line" smooth="yes"/>
      <point x="155" y="-28"/>
      <point x="183" y="-53"/>
      <point x="279" y="-53" type="curve" smooth="yes"/>
    </contour>
    <contour>
      <point x="193" y="124" type="line"/>
      <point x="437" y="140"/>
      <point x="671" y="175"/>
      <point x="855" y="227" type="curve"/>
      <point x="824" y="282" type="line"/>
      <point x="646" y="232"/>
      <point x="420" y="197"/>
      <point x="192" y="183" type="curve"/>
    </contour>
    <contour>
      <point x="347" y="612" type="line"/>
      <point x="314" y="637"/>
      <point x="258" y="673"/>
      <point x="219" y="692" type="curve"/>
      <point x="189" y="652" type="line"/>
      <point x="227" y="634"/>
      <point x="283" y="596"/>
      <point x="315" y="571" type="curve"/>
    </contour>
    <contour>
      <point x="602" y="452" type="line"/>
      <point x="568" y="482"/>
      <point x="514" y="521"/>
      <point x="472" y="543" type="curve"/>
      <point x="442" y="504" type="line"/>
      <point x="481" y="482"/>
      <point x="537" y="443"/>
      <point x="570" y="413" type="curve"/>
    </contour>
    <contour>
      <point x="234" y="435" type="line"/>
      <point x="442" y="524"/>
      <point x="627" y="662"/>
      <point x="742" y="808" type="curve"/>
      <point x="696" y="840" type="line"/>
      <point x="587" y="698"/>
      <point x="408" y="567"/>
      <point x="204" y="481" type="curve"/>
    </contour>
    <contour>
      <point x="782" y="483" type="line"/>
      <point x="631" y="599"/>
      <point x="420" y="725"/>
      <point x="270" y="796" type="curve"/>
      <point x="239" y="756" type="line"/>
      <point x="393" y="679"/>
      <point x="603" y="555"/>
      <point x="747" y="440" type="curve"/>
    </contour>
    <contour>
      <point x="565" y="763" type="line"/>
      <point x="530" y="790"/>
      <point x="473" y="827"/>
      <point x="433" y="847" type="curve"/>
      <point x="405" y="807" type="line"/>
      <point x="443" y="787"/>
      <point x="501" y="751"/>
      <point x="535" y="723" type="curve"/>
    </contour>
    <contour>
      <point x="819" y="610" type="line"/>
      <point x="789" y="638"/>
      <point x="737" y="675"/>
      <point x="699" y="697" type="curve"/>
      <point x="667" y="659" type="line"/>
      <point x="703" y="638"/>
      <point x="757" y="599"/>
      <point x="786" y="571" type="curve"/>
    </contour>
  </outline>
</glyph>
<glyph name="uni9B3C" format="2">
  <advance width="1000"/>
  <unicode hex="2FC1"/>
  <unicode hex="9B3C"/>
  <outline>
    <contour>
      <point x="64" y="-70" type="line"/>
      <point x="403" y="55"/>
      <point x="522" y="207"/>
      <point x="522" y="548" type="curve" smooth="yes"/>
      <point x="522" y="706" type="line"/>
      <point x="461" y="706" type="line"/>
      <point x="461" y="548" type="line" smooth="yes"/>
      <point x="461" y="227"/>
      <point x="365" y="107"/>
      <point x="39" y="-12" type="curve"/>
    </contour>
    <contour>
      <point x="886" y="-52" type="line" smooth="yes"/>
      <point x="933" y="-52"/>
      <point x="950" y="-32"/>
      <point x="950" y="10" type="curve"/>
      <point x="950" y="60" type="line"/>
      <point x="888" y="76" type="line"/>
      <point x="888" y="4" type="line"/>
      <point x="637" y="4" type="line" smooth="yes"/>
      <point x="591" y="4"/>
      <point x="577" y="17"/>
      <point x="577" y="59" type="curve" smooth="yes"/>
      <point x="577" y="276" type="line"/>
      <point x="513" y="276" type="line"/>
      <point x="513" y="54" type="line" smooth="yes"/>
      <point x="513" y="-23"/>
      <point x="538" y="-52"/>
      <point x="619" y="-52" type="curve" smooth="yes"/>
    </contour>
    <contour>
      <point x="624" y="89" type="line"/>
      <point x="715" y="96"/>
      <point x="798" y="105"/>
      <point x="883" y="117" type="curve"/>
      <point x="871" y="165" type="line"/>
      <point x="790" y="153"/>
      <point x="718" y="143"/>
      <point x="613" y="137" type="curve"/>
    </contour>
    <contour>
      <point x="671" y="128" type="line"/>
      <point x="706" y="169"/>
      <point x="740" y="225"/>
      <point x="771" y="287" type="curve"/>
      <point x="722" y="308" type="line"/>
      <point x="692" y="242"/>
      <point x="655" y="180"/>
      <point x="613" y="137" type="curve"/>
    </contour>
    <contour>
      <point x="813" y="516" type="line"/>
      <point x="813" y="569" type="line"/>
      <point x="172" y="569" type="line"/>
      <point x="172" y="516" type="line"/>
    </contour>
    <contour>
      <point x="918" y="111" type="line"/>
      <point x="888" y="161"/>
      <point x="847" y="220"/>
      <point x="815" y="258" type="curve"/>
      <point x="775" y="229" type="line"/>
      <point x="806" y="191"/>
      <point x="849" y="127"/>
      <point x="875" y="81" type="curve"/>
    </contour>
    <contour>
      <point x="860" y="332" type="line"/>
      <point x="860" y="749" type="line"/>
      <point x="134" y="749" type="line"/>
      <point x="134" y="332" type="line"/>
    </contour>
    <contour>
      <point x="197" y="694" type="line"/>
      <point x="796" y="694" type="line"/>
      <point x="796" y="387" type="line"/>
      <point x="197" y="387" type="line"/>
    </contour>
    <contour>
      <point x="460" y="724" type="line"/>
      <point x="483" y="760"/>
      <point x="502" y="799"/>
      <point x="514" y="835" type="curve"/>
      <point x="455" y="847" type="line"/>
      <point x="445" y="812"/>
      <point x="425" y="769"/>
      <point x="396" y="726" type="curve"/>
    </contour>
  </outline>
</glyph>
<glyph name="uni9CE5" format="2">
  <advance width="1000"/>
  <unicode hex="2FC3"/>
  <unicode hex="9CE5"/>
  <outline>
    <contour>
      <point x="92" y="-76" type="line"/>
      <point x="147" y="-13"/>
      <point x="186" y="65"/>
      <point x="206" y="129" type="curve"/>
      <point x="151" y="149" type="line"/>
      <point x="128" y="85"/>
      <point x="88" y="14"/>
      <point x="38" y="-42" type="curve"/>
    </contour>
    <contour>
      <point x="376" y="-49" type="line"/>
      <point x="373" y="15"/>
      <point x="365" y="82"/>
      <point x="354" y="135" type="curve"/>
      <point x="296" y="128" type="line"/>
      <point x="305" y="75"/>
      <point x="312" y="4"/>
      <point x="312" y="-56" type="curve"/>
    </contour>
    <contour>
      <point x="571" y="-9" type="line"/>
      <point x="557" y="48"/>
      <point x="535" y="104"/>
      <point x="514" y="145" type="curve"/>
      <point x="463" y="130" type="line"/>
      <point x="482" y="87"/>
      <point x="502" y="30"/>
      <point x="512" y="-25" type="curve"/>
    </contour>
    <contour>
      <point x="740" y="39" type="line"/>
      <point x="724" y="82"/>
      <point x="700" y="125"/>
      <point x="677" y="162" type="curve"/>
      <point x="629" y="142" type="line"/>
      <point x="650" y="110"/>
      <point x="673" y="63"/>
      <point x="687" y="22" type="curve"/>
    </contour>
    <contour>
      <point x="229" y="577" type="line"/>
      <point x="755" y="577" type="line"/>
      <point x="755" y="497" type="line"/>
      <point x="229" y="497" type="line"/>
    </contour>
    <contour>
      <point x="229" y="699" type="line"/>
      <point x="755" y="699" type="line"/>
      <point x="755" y="624" type="line"/>
      <point x="229" y="624" type="line"/>
    </contour>
    <contour>
      <point x="459" y="704" type="line"/>
      <point x="491" y="743"/>
      <point x="513" y="789"/>
      <point x="531" y="828" type="curve"/>
      <point x="464" y="839" type="line"/>
      <point x="449" y="797"/>
      <point x="426" y="752"/>
      <point x="396" y="710" type="curve"/>
    </contour>
    <contour>
      <point x="229" y="372" type="line"/>
      <point x="229" y="447" type="line"/>
      <point x="815" y="447" type="line"/>
      <point x="815" y="751" type="line"/>
      <point x="168" y="751" type="line"/>
      <point x="168" y="192" type="line"/>
      <point x="839" y="192" type="line"/>
      <point x="839" y="178" type="line" smooth="yes"/>
      <point x="839" y="139"/>
      <point x="836" y="99"/>
      <point x="832" y="65" type="curve"/>
      <point x="824" y="14"/>
      <point x="807" y="-1"/>
      <point x="749" y="-1" type="curve" smooth="yes"/>
      <point x="677" y="-1" type="line"/>
      <point x="692" y="-58" type="line"/>
      <point x="753" y="-58" type="line" smooth="yes"/>
      <point x="845" y="-58"/>
      <point x="881" y="-32"/>
      <point x="892" y="48" type="curve" smooth="yes"/>
      <point x="899" y="97"/>
      <point x="902" y="147"/>
      <point x="902" y="201" type="curve" smooth="yes"/>
      <point x="902" y="244" type="line"/>
      <point x="229" y="244" type="line"/>
      <point x="229" y="320" type="line"/>
      <point x="940" y="320" type="line"/>
      <point x="940" y="372" type="line"/>
    </contour>
  </outline>
</glyph>
<glyph name="uni9E7F" format="2">
  <advance width="1000"/>
  <unicode hex="2FC5"/>
  <unicode hex="9E7F"/>
  <outline>
    <contour>
      <point x="89" y="-70" type="line"/>
      <point x="169" y="73"/>
      <point x="190" y="261"/>
      <point x="190" y="531" type="curve" smooth="yes"/>
      <point x="190" y="718" type="line"/>
      <point x="951" y="718" type="line"/>
      <point x="951" y="773" type="line"/>
      <point x="126" y="773" type="line"/>
      <point x="126" y="534" type="line" smooth="yes"/>
      <point x="126" y="277"/>
      <point x="106" y="103"/>
      <point x="33" y="-25" type="curve"/>
    </contour>
    <contour>
      <point x="240" y="-64" type="line"/>
      <point x="342" y="-45"/>
      <point x="474" y="-19"/>
      <point x="562" y="3" type="curve"/>
      <point x="556" y="59" type="line"/>
      <point x="455" y="35"/>
      <point x="319" y="9"/>
      <point x="228" y="-7" type="curve"/>
    </contour>
    <contour>
      <point x="327" y="320" type="line"/>
      <point x="267" y="320" type="line"/>
      <point x="267" y="43" type="line" smooth="yes"/>
      <point x="267" y="12"/>
      <point x="260" y="1"/>
      <point x="228" y="-7" type="curve"/>
      <point x="327" y="-14" type="line"/>
    </contour>
    <contour>
      <point x="544" y="175" type="line"/>
      <point x="544" y="226" type="line"/>
      <point x="318" y="226" type="line"/>
      <point x="318" y="175" type="line"/>
    </contour>
    <contour>
      <point x="876" y="-54" type="line" smooth="yes"/>
      <point x="922" y="-54"/>
      <point x="941" y="-37"/>
      <point x="941" y="9" type="curve" smooth="yes"/>
      <point x="941" y="101" type="line"/>
      <point x="884" y="119" type="line"/>
      <point x="884" y="1" type="line"/>
      <point x="712" y="1" type="line" smooth="yes"/>
      <point x="674" y="1"/>
      <point x="662" y="14"/>
      <point x="662" y="48" type="curve" smooth="yes"/>
      <point x="662" y="322" type="line"/>
      <point x="602" y="322" type="line"/>
      <point x="602" y="43" type="line" smooth="yes"/>
      <point x="602" y="-29"/>
      <point x="629" y="-54"/>
      <point x="701" y="-54" type="curve" smooth="yes"/>
    </contour>
    <contour>
      <point x="434" y="381" type="line"/>
      <point x="434" y="729" type="line"/>
      <point x="375" y="729" type="line"/>
      <point x="375" y="381" type="line"/>
    </contour>
    <contour>
      <point x="655" y="139" type="line"/>
      <point x="751" y="160"/>
      <point x="848" y="196"/>
      <point x="926" y="237" type="curve"/>
      <point x="899" y="286" type="line"/>
      <point x="821" y="243"/>
      <point x="737" y="211"/>
      <point x="641" y="190" type="curve"/>
    </contour>
    <contour>
      <point x="918" y="359" type="line"/>
      <point x="918" y="602" type="line"/>
      <point x="174" y="602" type="line"/>
      <point x="174" y="549" type="line"/>
      <point x="858" y="549" type="line"/>
      <point x="858" y="411" type="line"/>
      <point x="174" y="411" type="line"/>
      <point x="174" y="359" type="line"/>
    </contour>
    <contour>
      <point x="675" y="381" type="line"/>
      <point x="675" y="729" type="line"/>
      <point x="616" y="729" type="line"/>
      <point x="616" y="381" type="line"/>
    </contour>
    <contour>
      <point x="577" y="756" type="line"/>
      <point x="563" y="788"/>
      <point x="543" y="822"/>
      <point x="524" y="853" type="curve"/>
      <point x="466" y="828" type="line"/>
      <point x="485" y="799"/>
      <point x="504" y="765"/>
      <point x="518" y="734" type="curve"/>
    </contour>
  </outline>
</glyph>
<glyph name="uni9EBB" format="2">
  <advance width="1000"/>
  <unicode hex="2FC7"/>
  <unicode hex="9EBB"/>
  <outline>
    <contour>
      <point x="763" y="-76" type="line"/>
      <point x="763" y="361" type="line"/>
      <point x="770" y="361" type="line"/>
      <point x="775" y="253"/>
      <point x="824" y="165"/>
      <point x="937" y="57" type="curve"/>
      <point x="972" y="101" type="line"/>
      <point x="842" y="230"/>
      <point x="782" y="342"/>
      <point x="769" y="487" type="curve"/>
      <point x="764" y="487" type="line"/>
      <point x="764" y="655" type="line"/>
      <point x="706" y="655" type="line"/>
      <point x="706" y="487" type="line"/>
      <point x="701" y="487" type="line"/>
      <point x="689" y="341"/>
      <point x="629" y="223"/>
      <point x="496" y="95" type="curve"/>
      <point x="536" y="51" type="line"/>
      <point x="642" y="149"/>
      <point x="696" y="260"/>
      <point x="700" y="361" type="curve"/>
      <point x="707" y="361" type="line"/>
      <point x="707" y="-76" type="line"/>
    </contour>
    <contour>
      <point x="421" y="-77" type="line"/>
      <point x="421" y="330" type="line" smooth="yes"/>
      <point x="421" y="338"/>
      <point x="425" y="338"/>
      <point x="430" y="331" type="curve" smooth="yes"/>
      <point x="528" y="194" type="line"/>
      <point x="567" y="237" type="line"/>
      <point x="469" y="368" type="line" smooth="yes"/>
      <point x="459" y="382"/>
      <point x="450" y="386"/>
      <point x="436" y="373" type="curve" smooth="yes"/>
      <point x="427" y="365" type="line"/>
      <point x="421" y="365" type="line"/>
      <point x="421" y="655" type="line"/>
      <point x="363" y="655" type="line"/>
      <point x="363" y="486" type="line"/>
      <point x="355" y="486" type="line"/>
      <point x="350" y="359"/>
      <point x="287" y="231"/>
      <point x="162" y="112" type="curve"/>
      <point x="207" y="62" type="line"/>
      <point x="304" y="153"/>
      <point x="351" y="260"/>
      <point x="356" y="358" type="curve"/>
      <point x="363" y="358" type="line"/>
      <point x="363" y="-77" type="line"/>
    </contour>
    <contour>
      <point x="536" y="454" type="line"/>
      <point x="536" y="509" type="line"/>
      <point x="214" y="509" type="line"/>
      <point x="214" y="454" type="line"/>
    </contour>
    <contour>
      <point x="940" y="454" type="line"/>
      <point x="940" y="509" type="line"/>
      <point x="564" y="509" type="line"/>
      <point x="564" y="454" type="line"/>
    </contour>
    <contour>
      <point x="90" y="-74" type="line"/>
      <point x="156" y="58"/>
      <point x="173" y="227"/>
      <point x="173" y="497" type="curve" smooth="yes"/>
      <point x="173" y="698" type="line"/>
      <point x="954" y="698" type="line"/>
      <point x="954" y="756" type="line"/>
      <point x="112" y="756" type="line"/>
      <point x="112" y="500" type="line" smooth="yes"/>
      <point x="112" y="236"/>
      <point x="97" y="83"/>
      <point x="36" y="-35" type="curve"/>
    </contour>
    <contour>
      <point x="580" y="744" type="line"/>
      <point x="561" y="780"/>
      <point x="543" y="813"/>
      <point x="519" y="848" type="curve"/>
      <point x="466" y="826" type="line"/>
      <point x="491" y="791"/>
      <point x="512" y="756"/>
      <point x="528" y="723" type="curve"/>
    </contour>
  </outline>
</glyph>
<glyph name="uni9EC3" format="2">
  <advance width="1000"/>
  <unicode hex="2FC8"/>
  <unicode hex="9EC3"/>
  <outline>
    <contour>
      <point x="859" y="97" type="line"/>
      <point x="859" y="410" type="line"/>
      <point x="141" y="410" type="line"/>
      <point x="141" y="97" type="line"/>
    </contour>
    <contour>
      <point x="203" y="365" type="line"/>
      <point x="798" y="365" type="line"/>
      <point x="798" y="144" type="line"/>
      <point x="203" y="144" type="line"/>
    </contour>
    <contour>
      <point x="820" y="238" type="line"/>
      <point x="820" y="278" type="line"/>
      <point x="181" y="278" type="line"/>
      <point x="181" y="238" type="line"/>
    </contour>
    <contour>
      <point x="523" y="117" type="line"/>
      <point x="523" y="516" type="line"/>
      <point x="461" y="516" type="line"/>
      <point x="461" y="117" type="line"/>
    </contour>
    <contour>
      <point x="954" y="485" type="line"/>
      <point x="954" y="535" type="line"/>
      <point x="46" y="535" type="line"/>
      <point x="46" y="485" type="line"/>
    </contour>
    <contour>
      <point x="342" y="618" type="line"/>
      <point x="342" y="834" type="line"/>
      <point x="280" y="834" type="line"/>
      <point x="280" y="618" type="line"/>
    </contour>
    <contour>
      <point x="703" y="599" type="line"/>
      <point x="703" y="644" type="line"/>
      <point x="287" y="644" type="line"/>
      <point x="287" y="599" type="line"/>
    </contour>
    <contour>
      <point x="910" y="722" type="line"/>
      <point x="910" y="770" type="line"/>
      <point x="90" y="770" type="line"/>
      <point x="90" y="722" type="line"/>
    </contour>
    <contour>
      <point x="706" y="618" type="line"/>
      <point x="706" y="834" type="line"/>
      <point x="643" y="834" type="line"/>
      <point x="643" y="618" type="line"/>
    </contour>
    <contour>
      <point x="358" y="89" type="line"/>
      <point x="281" y="43"/>
      <point x="182" y="1"/>
      <point x="55" y="-30" type="curve"/>
      <point x="84" y="-83" type="line"/>
      <point x="218" y="-49"/>
      <point x="323" y="-1"/>
      <point x="400" y="48" type="curve"/>
    </contour>
    <contour>
      <point x="945" y="-31" type="line"/>
      <point x="849" y="11"/>
      <point x="729" y="58"/>
      <point x="625" y="89" type="curve"/>
      <point x="593" y="41" type="line"/>
      <point x="694" y="10"/>
      <point x="810" y="-36"/>
      <point x="909" y="-83" type="curve"/>
    </contour>
  </outline>
</glyph>
<glyph name="uni9ED1" format="2">
  <advance width="1000"/>
  <unicode hex="2FCA"/>
  <unicode hex="9ED1"/>
  <outline>
    <contour>
      <point x="849" y="462" type="line"/>
      <point x="849" y="805" type="line"/>
      <point x="151" y="805" type="line"/>
      <point x="151" y="462" type="line"/>
    </contour>
    <contour>
      <point x="99" y="-76" type="line"/>
      <point x="161" y="-21"/>
      <point x="208" y="38"/>
      <point x="240" y="95" type="curve"/>
      <point x="186" y="120" type="line"/>
      <point x="155" y="67"/>
      <point x="108" y="12"/>
      <point x="50" y="-35" type="curve"/>
    </contour>
    <contour>
      <point x="443" y="-64" type="line"/>
      <point x="437" y="-2"/>
      <point x="427" y="50"/>
      <point x="413" y="100" type="curve"/>
      <point x="351" y="93" type="line"/>
      <point x="363" y="41"/>
      <point x="373" y="-11"/>
      <point x="378" y="-72" type="curve"/>
    </contour>
    <contour>
      <point x="690" y="-55" type="line"/>
      <point x="671" y="6"/>
      <point x="648" y="59"/>
      <point x="622" y="107" type="curve"/>
      <point x="563" y="92" type="line"/>
      <point x="587" y="42"/>
      <point x="608" y="-12"/>
      <point x="624" y="-70" type="curve"/>
    </contour>
    <contour>
      <point x="951" y="-45" type="line"/>
      <point x="914" y="20"/>
      <point x="868" y="77"/>
      <point x="824" y="122" type="curve"/>
      <point x="772" y="94" type="line"/>
      <point x="817" y="44"/>
      <point x="861" y="-13"/>
      <point x="897" y="-77" type="curve"/>
    </contour>
    <contour>
      <point x="949" y="157" type="line"/>
      <point x="949" y="212" type="line"/>
      <point x="51" y="212" type="line"/>
      <point x="51" y="157" type="line"/>
    </contour>
    <contour>
      <point x="897" y="315" type="line"/>
      <point x="897" y="369" type="line"/>
      <point x="103" y="369" type="line"/>
      <point x="103" y="315" type="line"/>
    </contour>
    <contour>
      <point x="404" y="578" type="line"/>
      <point x="378" y="631"/>
      <point x="347" y="678"/>
      <point x="310" y="724" type="curve"/>
      <point x="265" y="695" type="line"/>
      <point x="302" y="647"/>
      <point x="330" y="605"/>
      <point x="358" y="549" type="curve"/>
    </contour>
    <contour>
      <point x="522" y="184" type="line"/>
      <point x="522" y="781" type="line"/>
      <point x="462" y="781" type="line"/>
      <point x="462" y="184" type="line"/>
    </contour>
    <contour>
      <point x="212" y="753" type="line"/>
      <point x="787" y="753" type="line"/>
      <point x="787" y="514" type="line"/>
      <point x="212" y="514" type="line"/>
    </contour>
    <contour>
      <point x="632" y="545" type="line"/>
      <point x="674" y="593"/>
      <point x="705" y="645"/>
      <point x="729" y="698" type="curve"/>
      <point x="681" y="721" type="line"/>
      <point x="656" y="670"/>
      <point x="625" y="620"/>
      <point x="585" y="574" type="curve"/>
    </contour>
  </outline>
</glyph>
<glyph name="uni9F13" format="2">
  <advance width="1000"/>
  <unicode hex="2FCE"/>
  <unicode hex="9F13"/>
  <outline>
    <contour>
      <point x="679" y="421" type="line"/>
      <point x="740" y="421" type="line"/>
      <point x="740" y="834" type="line"/>
      <point x="679" y="834" type="line"/>
    </contour>
    <contour>
      <point x="469" y="622" type="line"/>
      <point x="959" y="622" type="line"/>
      <point x="959" y="680" type="line"/>
      <point x="469" y="680" type="line"/>
    </contour>
    <contour>
      <point x="474" y="-78" type="line"/>
      <point x="710" y="14"/>
      <point x="873" y="177"/>
      <point x="927" y="407" type="curve"/>
      <point x="927" y="454" type="line"/>
      <point x="482" y="454" type="line"/>
      <point x="482" y="397" type="line"/>
      <point x="874" y="397" type="line"/>
      <point x="864" y="412" type="line"/>
      <point x="816" y="207"/>
      <point x="665" y="62"/>
      <point x="445" y="-20" type="curve"/>
    </contour>
    <contour>
      <point x="967" y="-21" type="line"/>
      <point x="767" y="70"/>
      <point x="657" y="189"/>
      <point x="578" y="374" type="curve"/>
      <point x="522" y="348" type="line"/>
      <point x="605" y="150"/>
      <point x="730" y="18"/>
      <point x="935" y="-78" type="curve"/>
    </contour>
    <contour>
      <point x="45" y="686" type="line"/>
      <point x="451" y="686" type="line"/>
      <point x="451" y="740" type="line"/>
      <point x="45" y="740" type="line"/>
    </contour>
    <contour>
      <point x="56" y="526" type="line"/>
      <point x="438" y="526" type="line"/>
      <point x="438" y="581" type="line"/>
      <point x="56" y="581" type="line"/>
    </contour>
    <contour>
      <point x="277" y="549" type="line"/>
      <point x="277" y="840" type="line"/>
      <point x="218" y="840" type="line"/>
      <point x="218" y="549" type="line"/>
    </contour>
    <contour>
      <point x="420" y="223" type="line"/>
      <point x="420" y="446" type="line"/>
      <point x="73" y="446" type="line"/>
      <point x="73" y="223" type="line"/>
    </contour>
    <contour>
      <point x="48" y="-68" type="line"/>
      <point x="169" y="-57"/>
      <point x="333" y="-34"/>
      <point x="445" y="-9" type="curve"/>
      <point x="442" y="47" type="line"/>
      <point x="323" y="22"/>
      <point x="160" y="1"/>
      <point x="39" y="-9" type="curve"/>
    </contour>
    <contour>
      <point x="133" y="392" type="line"/>
      <point x="362" y="392" type="line"/>
      <point x="362" y="277" type="line"/>
      <point x="133" y="277" type="line"/>
    </contour>
    <contour>
      <point x="101" y="185" type="line"/>
      <point x="124" y="137"/>
      <point x="146" y="71"/>
      <point x="159" y="24" type="curve"/>
      <point x="213" y="43" type="line"/>
      <point x="200" y="91"/>
      <point x="177" y="158"/>
      <point x="155" y="205" type="curve"/>
    </contour>
    <contour>
      <point x="329" y="208" type="line"/>
      <point x="314" y="144"/>
      <point x="288" y="65"/>
      <point x="261" y="3" type="curve"/>
      <point x="317" y="3" type="line"/>
      <point x="343" y="53"/>
      <point x="370" y="130"/>
      <point x="388" y="190" type="curve"/>
    </contour>
  </outline>
</glyph>
<glyph name="uni9FA0" format="2">
  <advance width="1000"/>
  <unicode hex="2FD5"/>
  <unicode hex="9FA0"/>
  <outline>
    <contour>
      <point x="378" y="549" type="line"/>
      <point x="378" y="369" type="line"/>
      <point x="606" y="369" type="line"/>
      <point x="606" y="549" type="line"/>
    </contour>
    <contour>
      <point x="430" y="502" type="line"/>
      <point x="554" y="502" type="line"/>
      <point x="554" y="416" type="line"/>
      <point x="430" y="416" type="line"/>
    </contour>
    <contour>
      <point x="99" y="549" type="line"/>
      <point x="99" y="369" type="line"/>
      <point x="323" y="369" type="line"/>
      <point x="323" y="549" type="line"/>
    </contour>
    <contour>
      <point x="153" y="502" type="line"/>
      <point x="271" y="502" type="line"/>
      <point x="271" y="416" type="line"/>
      <point x="153" y="416" type="line"/>
    </contour>
    <contour>
      <point x="664" y="549" type="line"/>
      <point x="664" y="369" type="line"/>
      <point x="901" y="369" type="line"/>
      <point x="901" y="549" type="line"/>
    </contour>
    <contour>
      <point x="716" y="502" type="line"/>
      <point x="847" y="502" type="line"/>
      <point x="847" y="416" type="line"/>
      <point x="716" y="416" type="line"/>
    </contour>
    <contour>
      <point x="696" y="608" type="line"/>
      <point x="696" y="659" type="line"/>
      <point x="302" y="659" type="line"/>
      <point x="302" y="608" type="line"/>
    </contour>
    <contour>
      <point x="128" y="-76" type="line"/>
      <point x="188" y="-76" type="line"/>
      <point x="188" y="257" type="line"/>
      <point x="818" y="257" type="line"/>
      <point x="818" y="-17" type="line"/>
      <point x="697" y="-17" type="line"/>
      <point x="710" y="-67" type="line"/>
      <point x="814" y="-67" type="line" smooth="yes"/>
      <point x="862" y="-67"/>
      <point x="878" y="-51"/>
      <point x="878" y="-6" type="curve" smooth="yes"/>
      <point x="878" y="307" type="line"/>
      <point x="128" y="307" type="line"/>
    </contour>
    <contour>
      <point x="832" y="108" type="line"/>
      <point x="832" y="158" type="line"/>
      <point x="170" y="158" type="line"/>
      <point x="170" y="108" type="line"/>
    </contour>
    <contour>
      <point x="411" y="-55" type="line"/>
      <point x="411" y="285" type="line"/>
      <point x="353" y="285" type="line"/>
      <point x="353" y="-55" type="line"/>
    </contour>
    <contour>
      <point x="634" y="-55" type="line"/>
      <point x="634" y="285" type="line"/>
      <point x="576" y="285" type="line"/>
      <point x="576" y="-55" type="line"/>
    </contour>
    <contour>
      <point x="56" y="567" type="line"/>
      <point x="310" y="645"/>
      <point x="439" y="717"/>
      <point x="488" y="815" type="curve"/>
      <point x="495" y="815" type="line"/>
      <point x="543" y="717"/>
      <point x="681" y="645"/>
      <point x="944" y="567" type="curve"/>
      <point x="967" y="626" type="line"/>
      <point x="717" y="695"/>
      <point x="588" y="763"/>
      <point x="532" y="845" type="curve"/>
      <point x="452" y="845" type="line"/>
      <point x="395" y="762"/>
      <point x="277" y="695"/>
      <point x="33" y="626" type="curve"/>
    </contour>
  </outline>
</glyph>
<glyph name="uni356E" format="2">
  <advance width="1000"/>
  <unicode hex="356E"/>
  <outline>
    <contour>
      <point x="412" y="492" type="line"/>
      <point x="495" y="569"/>
      <point x="561" y="671"/>
      <point x="609" y="780" type="curve"/>
      <point x="554" y="809" type="line"/>
      <point x="511" y="709"/>
      <point x="450" y="616"/>
      <point x="368" y="539" type="curve"/>
    </contour>
    <contour>
      <point x="942" y="527" type="line"/>
      <point x="884" y="632"/>
      <point x="821" y="729"/>
      <point x="755" y="809" type="curve"/>
      <point x="702" y="776" type="line"/>
      <point x="766" y="697"/>
      <point x="831" y="600"/>
      <point x="888" y="493" type="curve"/>
    </contour>
    <contour>
      <point x="943" y="5" type="line"/>
      <point x="756" y="105"/>
      <point x="613" y="274"/>
      <point x="539" y="531" type="curve"/>
      <point x="482" y="506" type="line"/>
      <point x="558" y="243"/>
      <point x="722" y="49"/>
      <point x="911" y="-50" type="curve"/>
    </contour>
    <contour>
      <point x="389" y="-48" type="line"/>
      <point x="589" y="48"/>
      <point x="751" y="236"/>
      <point x="830" y="512" type="curve"/>
      <point x="772" y="535" type="line"/>
      <point x="698" y="268"/>
      <point x="553" y="103"/>
      <point x="356" y="7" type="curve"/>
    </contour>
    <contour>
      <point x="140" y="20" type="line"/>
      <point x="140" y="714" type="line"/>
      <point x="295" y="714" type="line"/>
      <point x="295" y="125" type="line"/>
      <point x="355" y="125" type="line"/>
      <point x="355" y="770" type="line"/>
      <point x="80" y="770" type="line"/>
      <point x="80" y="20" type="line"/>
    </contour>
    <contour>
      <point x="333" y="125" type="line"/>
      <point x="333" y="182" type="line"/>
      <point x="106" y="182" type="line"/>
      <point x="106" y="125" type="line"/>
    </contour>
  </outline>
</glyph>
<glyph name="uni3666" format="2">
  <advance width="1000.0"/>
  <unicode hex="3666"/>
  <outline>
    <contour>
      <point x="264.0" y="237.0" type="line" smooth="yes"/>
      <point x="311.0" y="237.0"/>
      <point x="328.0" y="250.0"/>
      <point x="328.0" y="286.0" type="curve" smooth="yes"/>
      <point x="328.0" y="624.0" type="line"/>
      <point x="271.0" y="624.0" type="line"/>
      <point x="271.0" y="285.0" type="line"/>
      <point x="166.0" y="285.0" type="line"/>
      <point x="182.0" y="237.0" type="line"/>
    </contour>
    <contour>
      <point x="113.0" y="271.0" type="line"/>
      <point x="152.0" y="319.0"/>
      <point x="183.0" y="383.0"/>
      <point x="198.0" y="433.0" type="curve"/>
      <point x="148.0" y="446.0" type="line"/>
      <point x="133.0" y="398.0"/>
      <point x="105.0" y="343.0"/>
      <point x="70.0" y="301.0" type="curve"/>
    </contour>
    <contour>
      <point x="520.0" y="476.0" type="line"/>
      <point x="520.0" y="523.0" type="line"/>
      <point x="72.0" y="523.0" type="line"/>
      <point x="72.0" y="476.0" type="line"/>
    </contour>
    <contour>
      <point x="499.0" y="300.0" type="line"/>
      <point x="484.0" y="340.0"/>
      <point x="453.0" y="412.0"/>
      <point x="432.0" y="449.0" type="curve"/>
      <point x="384.0" y="430.0" type="line"/>
      <point x="406.0" y="390.0"/>
      <point x="434.0" y="323.0"/>
      <point x="450.0" y="280.0" type="curve"/>
    </contour>
    <contour>
      <point x="459.0" y="599.0" type="line"/>
      <point x="459.0" y="645.0" type="line"/>
      <point x="144.0" y="645.0" type="line"/>
      <point x="144.0" y="599.0" type="line"/>
    </contour>
    <contour>
      <point x="956.0" y="416.0" type="line"/>
      <point x="951.0" y="467.0" type="line"/>
      <point x="532.0" y="410.0" type="line"/>
      <point x="540.0" y="358.0" type="line"/>
    </contour>
    <contour>
      <point x="730.0" y="516.0" type="line"/>
      <point x="681.0" y="561.0"/>
      <point x="625.0" y="604.0"/>
      <point x="570.0" y="642.0" type="curve"/>
      <point x="534.0" y="602.0" type="line"/>
      <point x="589.0" y="563.0"/>
      <point x="644.0" y="520.0"/>
      <point x="693.0" y="475.0" type="curve"/>
    </contour>
    <contour>
      <point x="854.0" y="236.0" type="line"/>
      <point x="854.0" y="834.0" type="line"/>
      <point x="797.0" y="834.0" type="line"/>
      <point x="797.0" y="236.0" type="line"/>
    </contour>
    <contour>
      <point x="762.0" y="683.0" type="line"/>
      <point x="715.0" y="727.0"/>
      <point x="656.0" y="773.0"/>
      <point x="605.0" y="807.0" type="curve"/>
      <point x="571.0" y="767.0" type="line"/>
      <point x="623.0" y="732.0"/>
      <point x="681.0" y="686.0"/>
      <point x="728.0" y="644.0" type="curve"/>
    </contour>
    <contour>
      <point x="888.0" y="183.0" type="line"/>
      <point x="113.0" y="183.0" type="line"/>
      <point x="113.0" y="125.0" type="line"/>
      <point x="888.0" y="125.0" type="line"/>
    </contour>
    <contour>
      <point x="952.0" y="6.0" type="line"/>
      <point x="49.0" y="6.0" type="line"/>
      <point x="49.0" y="-53.0" type="line"/>
      <point x="952.0" y="-53.0" type="line"/>
    </contour>
    <contour>
      <point x="523.0" y="-28.0" type="line"/>
      <point x="523.0" y="248.0" type="line"/>
      <point x="461.0" y="248.0" type="line"/>
      <point x="461.0" y="-28.0" type="line"/>
    </contour>
    <contour>
      <point x="71.11155459789745" y="589.6647540871468" type="line"/>
      <point x="198.82868846478317" y="661.5841270492738"/>
      <point x="263.2094746638669" y="719.3129402846959"/>
      <point x="284.0091105182753" y="809.0177923706592" type="curve"/>
      <point x="289.87894429623555" y="809.0177923706592" type="line"/>
      <point x="308.53280291066176" y="723.9930124046804"/>
      <point x="373.5665859497915" y="670.6366915201678"/>
      <point x="504.4482365414874" y="603.9303604897735" type="curve"/>
      <point x="529.9918371069616" y="652.5648101785347" type="line"/>
      <point x="398.48691451763693" y="717.0224112456391"/>
      <point x="343.27604487311044" y="767.741620493878"/>
      <point x="317.4398283056297" y="837.4221668148756" type="curve"/>
      <point x="257.02383747178334" y="837.4221668148756" type="line"/>
      <point x="229.66729712474637" y="763.5163032127141"/>
      <point x="177.63236837905004" y="707.285302916296"/>
      <point x="46.6336728458397" y="637.4284269329867" type="curve"/>
    </contour>
  </outline>
</glyph>
<glyph name="uni3749" format="2">
  <advance width="1000"/>
  <unicode hex="3749"/>
  <outline>
    <contour>
      <point x="914" y="-23" type="line"/>
      <point x="914" y="40" type="line"/>
      <point x="86" y="40" type="line"/>
      <point x="86" y="-23" type="line"/>
    </contour>
    <contour>
      <point x="897" y="606" type="line"/>
      <point x="897" y="669" type="line"/>
      <point x="104" y="669" type="line"/>
      <point x="104" y="606" type="line"/>
    </contour>
    <contour>
      <point x="168" y="418" type="line"/>
      <point x="168" y="622" type="line"/>
      <point x="104" y="622" type="line"/>
      <point x="104" y="418" type="line"/>
    </contour>
    <contour>
      <point x="562" y="661" type="line"/>
      <point x="536" y="721"/>
      <point x="506" y="785"/>
      <point x="474" y="840" type="curve"/>
      <point x="419" y="811" type="line"/>
      <point x="451" y="755"/>
      <point x="481" y="695"/>
      <point x="506" y="636" type="curve"/>
    </contour>
    <contour>
      <point x="897" y="418" type="line"/>
      <point x="897" y="622" type="line"/>
      <point x="833" y="622" type="line"/>
      <point x="833" y="418" type="line"/>
    </contour>
  </outline>
</glyph>
<glyph name="uni37C3" format="2">
  <advance width="1000"/>
  <unicode hex="37C3"/>
  <outline>
    <contour>
      <point x="537" y="68" type="line"/>
      <point x="537" y="143" type="line"/>
      <point x="761" y="143" type="line"/>
      <point x="761" y="459" type="line"/>
      <point x="481" y="459" type="line"/>
      <point x="481" y="68" type="line"/>
    </contour>
    <contour>
      <point x="537" y="403" type="line"/>
      <point x="704" y="403" type="line"/>
      <point x="704" y="199" type="line"/>
      <point x="537" y="199" type="line"/>
    </contour>
    <contour>
      <point x="459" y="570" type="line"/>
      <point x="797" y="570" type="line"/>
      <point x="797" y="626" type="line"/>
      <point x="459" y="626" type="line"/>
    </contour>
    <contour>
      <point x="470" y="741" type="line"/>
      <point x="866" y="741" type="line"/>
      <point x="866" y="2" type="line"/>
      <point x="679" y="2" type="line"/>
      <point x="697" y="-58" type="line"/>
      <point x="862" y="-58" type="line" smooth="yes"/>
      <point x="910" y="-58"/>
      <point x="928" y="-40"/>
      <point x="928" y="8" type="curve" smooth="yes"/>
      <point x="928" y="800" type="line"/>
      <point x="470" y="800" type="line"/>
    </contour>
    <contour>
      <point x="209" y="834" type="line"/>
      <point x="209" y="72" type="line"/>
      <point x="268" y="72" type="line"/>
      <point x="268" y="834" type="line"/>
    </contour>
    <contour>
      <point x="137" y="-29" type="line"/>
      <point x="137" y="45" type="line"/>
      <point x="400" y="45" type="line"/>
      <point x="400" y="710" type="line"/>
      <point x="344" y="710" type="line"/>
      <point x="344" y="103" type="line"/>
      <point x="134" y="103" type="line"/>
      <point x="134" y="710" type="line"/>
      <point x="78" y="710" type="line"/>
      <point x="78" y="-29" type="line"/>
    </contour>
  </outline>
</glyph>
<glyph name="uni3807" format="2">
  <advance width="1000"/>
  <unicode hex="3807"/>
  <outline>
    <contour>
      <point x="503" y="-70" type="line"/>
      <point x="686" y="62"/>
      <point x="720" y="218"/>
      <point x="720" y="441" type="curve" smooth="yes"/>
      <point x="720" y="588" type="line"/>
      <point x="660" y="588" type="line"/>
      <point x="660" y="435" type="line" smooth="yes"/>
      <point x="660" y="216"/>
      <point x="625" y="87"/>
      <point x="466" y="-22" type="curve"/>
    </contour>
    <contour>
      <point x="89" y="-25" type="line"/>
      <point x="143" y="33"/>
      <point x="177" y="99"/>
      <point x="197" y="166" type="curve"/>
      <point x="144" y="181" type="line"/>
      <point x="124" y="119"/>
      <point x="94" y="63"/>
      <point x="44" y="9" type="curve"/>
    </contour>
    <contour>
      <point x="253" y="-56" type="line" smooth="yes"/>
      <point x="304" y="-56"/>
      <point x="321" y="-45"/>
      <point x="321" y="-11" type="curve" smooth="yes"/>
      <point x="321" y="238" type="line"/>
      <point x="262" y="238" type="line"/>
      <point x="262" y="-5" type="line"/>
      <point x="158" y="-5" type="line"/>
      <point x="176" y="-56" type="line"/>
    </contour>
    <contour>
      <point x="501" y="34" type="line"/>
      <point x="483" y="78"/>
      <point x="456" y="135"/>
      <point x="426" y="183" type="curve"/>
      <point x="376" y="161" type="line"/>
      <point x="407" y="113"/>
      <point x="434" y="57"/>
      <point x="452" y="11" type="curve"/>
    </contour>
    <contour>
      <point x="487" y="209" type="line"/>
      <point x="487" y="412" type="line"/>
      <point x="98" y="412" type="line"/>
      <point x="98" y="209" type="line"/>
    </contour>
    <contour>
      <point x="156" y="362" type="line"/>
      <point x="428" y="362" type="line"/>
      <point x="428" y="259" type="line"/>
      <point x="156" y="259" type="line"/>
    </contour>
    <contour>
      <point x="523" y="476" type="line"/>
      <point x="523" y="527" type="line"/>
      <point x="62" y="527" type="line"/>
      <point x="62" y="476" type="line"/>
    </contour>
    <contour>
      <point x="333" y="504" type="line"/>
      <point x="322" y="538"/>
      <point x="309" y="569"/>
      <point x="294" y="601" type="curve"/>
      <point x="237" y="584" type="line"/>
      <point x="252" y="555"/>
      <point x="264" y="523"/>
      <point x="273" y="492" type="curve"/>
    </contour>
    <contour>
      <point x="897" y="-51" type="line" smooth="yes"/>
      <point x="941" y="-51"/>
      <point x="950" y="-35"/>
      <point x="950" y="0" type="curve" smooth="yes"/>
      <point x="950" y="113" type="line"/>
      <point x="901" y="126" type="line"/>
      <point x="901" y="1" type="line"/>
      <point x="831" y="1" type="line" smooth="yes"/>
      <point x="802" y="1"/>
      <point x="794" y="8"/>
      <point x="794" y="36" type="curve" smooth="yes"/>
      <point x="794" y="280" type="line"/>
      <point x="737" y="280" type="line"/>
      <point x="737" y="16" type="line" smooth="yes"/>
      <point x="737" y="-36"/>
      <point x="757" y="-51"/>
      <point x="810" y="-51" type="curve" smooth="yes"/>
    </contour>
    <contour>
      <point x="941" y="363" type="line"/>
      <point x="941" y="416" type="line"/>
      <point x="527" y="416" type="line"/>
      <point x="527" y="363" type="line"/>
    </contour>
    <contour>
      <point x="909" y="473" type="line"/>
      <point x="886" y="504"/>
      <point x="850" y="544"/>
      <point x="817" y="573" type="curve"/>
      <point x="777" y="540" type="line"/>
      <point x="810" y="510"/>
      <point x="845" y="471"/>
      <point x="868" y="441" type="curve"/>
    </contour>
    <contour>
      <point x="885" y="630" type="line"/>
      <point x="885" y="807" type="line"/>
      <point x="824" y="807" type="line"/>
      <point x="824" y="684" type="line"/>
      <point x="523" y="684" type="line"/>
      <point x="523" y="834" type="line"/>
      <point x="461" y="834" type="line"/>
      <point x="461" y="684" type="line"/>
      <point x="175" y="684" type="line"/>
      <point x="175" y="807" type="line"/>
      <point x="114" y="807" type="line"/>
      <point x="114" y="630" type="line"/>
    </contour>
  </outline>
</glyph>
<glyph name="uni39D0" format="2">
  <advance width="1000"/>
  <unicode hex="39D0"/>
  <outline>
    <contour>
      <point x="619" y="-60" type="line"/>
      <point x="816" y="141"/>
      <point x="907" y="379"/>
      <point x="925" y="735" type="curve"/>
      <point x="925" y="780" type="line"/>
      <point x="635" y="780" type="line"/>
      <point x="635" y="723" type="line"/>
      <point x="870" y="723" type="line"/>
      <point x="851" y="378"/>
      <point x="767" y="180"/>
      <point x="581" y="-15" type="curve"/>
    </contour>
    <contour>
      <point x="963" y="-18" type="line"/>
      <point x="790" y="189"/>
      <point x="738" y="392"/>
      <point x="713" y="691" type="curve"/>
      <point x="660" y="682" type="line"/>
      <point x="683" y="375"/>
      <point x="751" y="144"/>
      <point x="923" y="-61" type="curve"/>
    </contour>
    <contour>
      <point x="359" y="572" type="line"/>
      <point x="442" y="446"/>
      <point x="527" y="293"/>
      <point x="605" y="123" type="curve"/>
      <point x="653" y="155" type="line"/>
      <point x="574" y="316"/>
      <point x="490" y="476"/>
      <point x="402" y="604" type="curve"/>
    </contour>
    <contour>
      <point x="597" y="777" type="line"/>
      <point x="350" y="777" type="line"/>
      <point x="350" y="719" type="line"/>
      <point x="564" y="719" type="line"/>
      <point x="541" y="732" type="line"/>
      <point x="527" y="403"/>
      <point x="428" y="153"/>
      <point x="306" y="-17" type="curve"/>
      <point x="348" y="-60" type="line"/>
      <point x="473" y="114"/>
      <point x="580" y="383"/>
      <point x="597" y="727" type="curve"/>
    </contour>
    <contour>
      <point x="61" y="3" type="line"/>
      <point x="78" y="-58" type="line"/>
      <point x="169" y="-58" type="line" smooth="yes"/>
      <point x="217" y="-58"/>
      <point x="234" y="-38"/>
      <point x="234" y="7" type="curve" smooth="yes"/>
      <point x="234" y="834" type="line"/>
      <point x="174" y="834" type="line"/>
      <point x="174" y="3" type="line"/>
    </contour>
    <contour>
      <point x="331" y="594" type="line"/>
      <point x="331" y="650" type="line"/>
      <point x="51" y="650" type="line"/>
      <point x="51" y="594" type="line"/>
    </contour>
    <contour>
      <point x="50" y="245" type="line"/>
      <point x="148" y="271"/>
      <point x="253" y="308"/>
      <point x="351" y="354" type="curve"/>
      <point x="341" y="408" type="line"/>
      <point x="246" y="365"/>
      <point x="136" y="327"/>
      <point x="39" y="303" type="curve"/>
    </contour>
  </outline>
</glyph>
<glyph name="uni39D1" format="2">
  <advance width="1000"/>
  <unicode hex="39D1"/>
  <outline>
    <contour>
      <point x="63" y="4" type="line"/>
      <point x="79" y="-58" type="line"/>
      <point x="179" y="-58" type="line" smooth="yes"/>
      <point x="229" y="-58"/>
      <point x="246" y="-38"/>
      <point x="246" y="8" type="curve" smooth="yes"/>
      <point x="246" y="834" type="line"/>
      <point x="185" y="834" type="line"/>
      <point x="185" y="4" type="line"/>
    </contour>
    <contour>
      <point x="345" y="594" type="line"/>
      <point x="345" y="651" type="line"/>
      <point x="51" y="651" type="line"/>
      <point x="51" y="594" type="line"/>
    </contour>
    <contour>
      <point x="50" y="245" type="line"/>
      <point x="156" y="271"/>
      <point x="271" y="310"/>
      <point x="376" y="357" type="curve"/>
      <point x="366" y="412" type="line"/>
      <point x="263" y="367"/>
      <point x="144" y="328"/>
      <point x="39" y="303" type="curve"/>
    </contour>
    <contour>
      <point x="763" y="-59" type="line" smooth="yes"/>
      <point x="849" y="-59"/>
      <point x="888" y="-22"/>
      <point x="901" y="75" type="curve" smooth="yes"/>
      <point x="916" y="185"/>
      <point x="923" y="366"/>
      <point x="923" y="601" type="curve"/>
      <point x="374" y="601" type="line"/>
      <point x="374" y="544" type="line"/>
      <point x="859" y="544" type="line"/>
      <point x="859" y="365"/>
      <point x="852" y="186"/>
      <point x="840" y="90" type="curve" smooth="yes"/>
      <point x="831" y="23"/>
      <point x="810" y="1"/>
      <point x="749" y="1" type="curve" smooth="yes"/>
      <point x="628" y="1" type="line"/>
      <point x="645" y="-59" type="line"/>
    </contour>
    <contour>
      <point x="376" y="-74" type="line"/>
      <point x="563" y="98"/>
      <point x="618" y="291"/>
      <point x="618" y="658" type="curve" smooth="yes"/>
      <point x="618" y="833" type="line"/>
      <point x="554" y="833" type="line"/>
      <point x="554" y="658" type="line" smooth="yes"/>
      <point x="554" y="307"/>
      <point x="500" y="131"/>
      <point x="330" y="-26" type="curve"/>
    </contour>
    <contour>
      <point x="802" y="206" type="line"/>
      <point x="772" y="280"/>
      <point x="731" y="360"/>
      <point x="690" y="421" type="curve"/>
      <point x="640" y="390" type="line"/>
      <point x="679" y="327"/>
      <point x="722" y="248"/>
      <point x="750" y="175" type="curve"/>
    </contour>
    <contour>
      <point x="521" y="662" type="line"/>
      <point x="495" y="707"/>
      <point x="456" y="762"/>
      <point x="418" y="803" type="curve"/>
      <point x="372" y="769" type="line"/>
      <point x="407" y="728"/>
      <point x="448" y="672"/>
      <point x="473" y="627" type="curve"/>
    </contour>
  </outline>
</glyph>
<glyph name="uni3B0E" format="2">
  <advance width="1000"/>
  <unicode hex="3B0E"/>
  <outline>
    <contour>
      <point x="143" y="171" type="line"/>
      <point x="252" y="230"/>
      <point x="375" y="322"/>
      <point x="481" y="424" type="curve"/>
      <point x="438" y="460" type="line"/>
      <point x="334" y="354"/>
      <point x="199" y="253"/>
      <point x="85" y="193" type="curve"/>
    </contour>
    <contour>
      <point x="94" y="148" type="line"/>
      <point x="223" y="157"/>
      <point x="340" y="168"/>
      <point x="451" y="183" type="curve"/>
      <point x="441" y="229" type="line"/>
      <point x="333" y="214"/>
      <point x="208" y="201"/>
      <point x="85" y="193" type="curve"/>
    </contour>
    <contour>
      <point x="91" y="306" type="line"/>
      <point x="182" y="312"/>
      <point x="264" y="319"/>
      <point x="354" y="329" type="curve"/>
      <point x="352" y="371" type="line"/>
      <point x="258" y="361"/>
      <point x="172" y="354"/>
      <point x="82" y="349" type="curve"/>
    </contour>
    <contour>
      <point x="501" y="158" type="line"/>
      <point x="478" y="210"/>
      <point x="443" y="270"/>
      <point x="413" y="310" type="curve"/>
      <point x="371" y="287" type="line"/>
      <point x="400" y="247"/>
      <point x="434" y="187"/>
      <point x="457" y="136" type="curve"/>
    </contour>
    <contour>
      <point x="126" y="321" type="line"/>
      <point x="195" y="362"/>
      <point x="270" y="424"/>
      <point x="328" y="483" type="curve"/>
      <point x="279" y="509" type="line"/>
      <point x="218" y="443"/>
      <point x="147" y="387"/>
      <point x="82" y="349" type="curve"/>
    </contour>
    <contour>
      <point x="511" y="145" type="line"/>
      <point x="642" y="155"/>
      <point x="757" y="167"/>
      <point x="873" y="182" type="curve"/>
      <point x="861" y="226" type="line"/>
      <point x="752" y="210"/>
      <point x="627" y="198"/>
      <point x="502" y="190" type="curve"/>
    </contour>
    <contour>
      <point x="500" y="303" type="line"/>
      <point x="589" y="309"/>
      <point x="676" y="315"/>
      <point x="763" y="325" type="curve"/>
      <point x="765" y="366" type="line"/>
      <point x="671" y="356"/>
      <point x="579" y="349"/>
      <point x="491" y="343" type="curve"/>
    </contour>
    <contour>
      <point x="559" y="171" type="line"/>
      <point x="664" y="224"/>
      <point x="787" y="317"/>
      <point x="888" y="416" type="curve"/>
      <point x="846" y="451" type="line"/>
      <point x="745" y="345"/>
      <point x="611" y="247"/>
      <point x="502" y="190" type="curve"/>
    </contour>
    <contour>
      <point x="939" y="147" type="line"/>
      <point x="912" y="203"/>
      <point x="869" y="269"/>
      <point x="835" y="311" type="curve"/>
      <point x="792" y="286" type="line"/>
      <point x="827" y="241"/>
      <point x="866" y="178"/>
      <point x="894" y="122" type="curve"/>
    </contour>
    <contour>
      <point x="533" y="315" type="line"/>
      <point x="599" y="357"/>
      <point x="674" y="420"/>
      <point x="731" y="481" type="curve"/>
      <point x="682" y="509" type="line"/>
      <point x="622" y="441"/>
      <point x="553" y="385"/>
      <point x="491" y="343" type="curve"/>
    </contour>
    <contour>
      <point x="109" y="-70" type="line"/>
      <point x="170" y="-15"/>
      <point x="216" y="44"/>
      <point x="247" y="102" type="curve"/>
      <point x="193" y="126" type="line"/>
      <point x="163" y="72"/>
      <point x="117" y="18"/>
      <point x="60" y="-30" type="curve"/>
    </contour>
    <contour>
      <point x="447" y="-57" type="line"/>
      <point x="440" y="5"/>
      <point x="431" y="56"/>
      <point x="417" y="106" type="curve"/>
      <point x="355" y="99" type="line"/>
      <point x="367" y="47"/>
      <point x="376" y="-4"/>
      <point x="382" y="-65" type="curve"/>
    </contour>
    <contour>
      <point x="686" y="-49" type="line"/>
      <point x="667" y="11"/>
      <point x="644" y="65"/>
      <point x="619" y="114" type="curve"/>
      <point x="560" y="99" type="line"/>
      <point x="584" y="47"/>
      <point x="605" y="-6"/>
      <point x="620" y="-64" type="curve"/>
    </contour>
    <contour>
      <point x="941" y="-40" type="line"/>
      <point x="905" y="26"/>
      <point x="859" y="83"/>
      <point x="817" y="129" type="curve"/>
      <point x="765" y="101" type="line"/>
      <point x="808" y="50"/>
      <point x="852" y="-7"/>
      <point x="887" y="-71" type="curve"/>
    </contour>
    <contour>
      <point x="827" y="684" type="line"/>
      <point x="183" y="684" type="line"/>
      <point x="183" y="636" type="line"/>
      <point x="827" y="636" type="line"/>
    </contour>
    <contour>
      <point x="203" y="803" type="line"/>
      <point x="139" y="803" type="line"/>
      <point x="139" y="516" type="line"/>
      <point x="862" y="516" type="line"/>
      <point x="862" y="803" type="line"/>
    </contour>
    <contour>
      <point x="200" y="752" type="line"/>
      <point x="801" y="752" type="line"/>
      <point x="801" y="566" type="line"/>
      <point x="200" y="566" type="line"/>
    </contour>
  </outline>
</glyph>
<glyph name="uni3B1A" format="2">
  <advance width="1000"/>
  <unicode hex="3B1A"/>
  <outline>
    <contour>
      <point x="284" y="479" type="line"/>
      <point x="108" y="479" type="line"/>
      <point x="108" y="425" type="line"/>
      <point x="284" y="425" type="line"/>
    </contour>
    <contour>
      <point x="80" y="793" type="line"/>
      <point x="80" y="-17" type="line"/>
      <point x="141" y="-17" type="line"/>
      <point x="141" y="75" type="line"/>
      <point x="307" y="75" type="line"/>
      <point x="307" y="793" type="line"/>
    </contour>
    <contour>
      <point x="138" y="738" type="line"/>
      <point x="251" y="738" type="line"/>
      <point x="251" y="130" type="line"/>
      <point x="138" y="130" type="line"/>
    </contour>
    <contour>
      <point x="690" y="-79" type="line"/>
      <point x="867" y="135"/>
      <point x="917" y="361"/>
      <point x="924" y="649" type="curve"/>
      <point x="867" y="649" type="line"/>
      <point x="859" y="380"/>
      <point x="819" y="171"/>
      <point x="652" y="-19" type="curve"/>
    </contour>
    <contour>
      <point x="608" y="120" type="line"/>
      <point x="607" y="167" type="line"/>
      <point x="403" y="167" type="line"/>
      <point x="403" y="120" type="line"/>
    </contour>
    <contour>
      <point x="428" y="-75" type="line"/>
      <point x="428" y="395" type="line"/>
      <point x="584" y="395" type="line"/>
      <point x="584" y="-9" type="line"/>
      <point x="492" y="-9" type="line"/>
      <point x="505" y="-64" type="line"/>
      <point x="581" y="-64" type="line" smooth="yes"/>
      <point x="621" y="-64"/>
      <point x="639" y="-43"/>
      <point x="639" y="1" type="curve" smooth="yes"/>
      <point x="639" y="444" type="line"/>
      <point x="372" y="444" type="line"/>
      <point x="372" y="-75" type="line"/>
    </contour>
    <contour>
      <point x="607" y="258" type="line"/>
      <point x="607" y="305" type="line"/>
      <point x="409" y="305" type="line"/>
      <point x="409" y="258" type="line"/>
    </contour>
    <contour>
      <point x="355" y="491" type="line"/>
      <point x="449" y="497"/>
      <point x="535" y="505"/>
      <point x="620" y="515" type="curve"/>
      <point x="611" y="567" type="line"/>
      <point x="547" y="556"/>
      <point x="480" y="549"/>
      <point x="412" y="545" type="curve"/>
      <point x="446" y="585"/>
      <point x="484" y="642"/>
      <point x="509" y="701" type="curve"/>
      <point x="450" y="715" type="line"/>
      <point x="425" y="650"/>
      <point x="383" y="580"/>
      <point x="346" y="538" type="curve"/>
    </contour>
    <contour>
      <point x="968" y="-16" type="line"/>
      <point x="819" y="157"/>
      <point x="766" y="350"/>
      <point x="754" y="635" type="curve"/>
      <point x="707" y="617" type="line"/>
      <point x="713" y="336"/>
      <point x="772" y="115"/>
      <point x="932" y="-79" type="curve"/>
    </contour>
    <contour>
      <point x="661" y="516" type="line"/>
      <point x="631" y="573"/>
      <point x="605" y="617"/>
      <point x="569" y="666" type="curve"/>
      <point x="526" y="642" type="line"/>
      <point x="560" y="594"/>
      <point x="587" y="544"/>
      <point x="618" y="483" type="curve"/>
    </contour>
    <contour>
      <point x="668" y="692" type="line"/>
      <point x="668" y="746" type="line"/>
      <point x="345" y="746" type="line"/>
      <point x="345" y="692" type="line"/>
    </contour>
    <contour>
      <point x="553" y="741" type="line"/>
      <point x="541" y="774"/>
      <point x="525" y="810"/>
      <point x="507" y="842" type="curve"/>
      <point x="450" y="823" type="line"/>
      <point x="468" y="792"/>
      <point x="483" y="763"/>
      <point x="496" y="734" type="curve"/>
    </contour>
    <contour>
      <point x="674" y="406" type="line"/>
      <point x="699" y="460"/>
      <point x="727" y="544"/>
      <point x="746" y="623" type="curve"/>
      <point x="758" y="646" type="line"/>
      <point x="774" y="701"/>
      <point x="787" y="768"/>
      <point x="796" y="832" type="curve"/>
      <point x="738" y="842" type="line"/>
      <point x="722" y="712"/>
      <point x="695" y="578"/>
      <point x="638" y="466" type="curve"/>
    </contour>
    <contour>
      <point x="960" y="619" type="line"/>
      <point x="960" y="679" type="line"/>
      <point x="732" y="679" type="line"/>
      <point x="732" y="619" type="line"/>
    </contour>
  </outline>
</glyph>
<glyph name="uni3B4E" format="2">
  <advance width="1000"/>
  <unicode hex="3B4E"/>
  <outline>
    <contour>
      <point x="456" y="-75" type="line"/>
      <point x="456" y="746" type="line"/>
      <point x="861" y="746" type="line"/>
      <point x="861" y="1" type="line"/>
      <point x="715" y="1" type="line"/>
      <point x="731" y="-57" type="line"/>
      <point x="854" y="-57" type="line" smooth="yes"/>
      <point x="904" y="-57"/>
      <point x="922" y="-38"/>
      <point x="922" y="13" type="curve" smooth="yes"/>
      <point x="922" y="803" type="line"/>
      <point x="396" y="803" type="line"/>
      <point x="396" y="-75" type="line"/>
    </contour>
    <contour>
      <point x="521" y="54" type="line"/>
      <point x="637" y="208"/>
      <point x="743" y="423"/>
      <point x="814" y="663" type="curve"/>
      <point x="757" y="682" type="line"/>
      <point x="695" y="450"/>
      <point x="587" y="237"/>
      <point x="474" y="92" type="curve"/>
    </contour>
    <contour>
      <point x="837" y="110" type="line"/>
      <point x="758" y="292"/>
      <point x="637" y="506"/>
      <point x="541" y="648" type="curve"/>
      <point x="494" y="618" type="line"/>
      <point x="591" y="476"/>
      <point x="710" y="260"/>
      <point x="786" y="77" type="curve"/>
    </contour>
    <contour>
      <point x="232" y="-74" type="line"/>
      <point x="232" y="433" type="line" smooth="yes"/>
      <point x="232" y="439"/>
      <point x="235" y="439"/>
      <point x="238" y="434" type="curve" smooth="yes"/>
      <point x="334" y="234" type="line"/>
      <point x="375" y="270" type="line"/>
      <point x="278" y="465" type="line" smooth="yes"/>
      <point x="270" y="482"/>
      <point x="263" y="483"/>
      <point x="250" y="473" type="curve" smooth="yes"/>
      <point x="238" y="464" type="line"/>
      <point x="232" y="464" type="line"/>
      <point x="232" y="834" type="line"/>
      <point x="175" y="834" type="line"/>
      <point x="175" y="626" type="line"/>
      <point x="170" y="626" type="line"/>
      <point x="161" y="492"/>
      <point x="124" y="335"/>
      <point x="27" y="197" type="curve"/>
      <point x="66" y="148" type="line"/>
      <point x="136" y="253"/>
      <point x="163" y="357"/>
      <point x="168" y="450" type="curve"/>
      <point x="175" y="450" type="line"/>
      <point x="175" y="-74" type="line"/>
    </contour>
    <contour>
      <point x="354" y="592" type="line"/>
      <point x="354" y="647" type="line"/>
      <point x="42" y="647" type="line"/>
      <point x="42" y="592" type="line"/>
    </contour>
  </outline>
</glyph>
<glyph name="uni3B55" format="2">
  <advance width="1000"/>
  <unicode hex="3B55"/>
  <outline>
    <contour>
      <point x="258" y="-74" type="line"/>
      <point x="258" y="461" type="line" smooth="yes"/>
      <point x="258" y="468"/>
      <point x="261" y="467"/>
      <point x="264" y="463" type="curve"/>
      <point x="350" y="314" type="line"/>
      <point x="388" y="355" type="line"/>
      <point x="307" y="495" type="line"/>
      <point x="297" y="510"/>
      <point x="290" y="511"/>
      <point x="277" y="500" type="curve" smooth="yes"/>
      <point x="263" y="488" type="line"/>
      <point x="258" y="488" type="line"/>
      <point x="258" y="834" type="line"/>
      <point x="200" y="834" type="line"/>
      <point x="200" y="626" type="line"/>
      <point x="193" y="626" type="line"/>
      <point x="183" y="493"/>
      <point x="144" y="339"/>
      <point x="32" y="194" type="curve"/>
      <point x="73" y="146" type="line"/>
      <point x="154" y="255"/>
      <point x="186" y="361"/>
      <point x="193" y="458" type="curve"/>
      <point x="200" y="458" type="line"/>
      <point x="200" y="-74" type="line"/>
    </contour>
    <contour>
      <point x="382" y="591" type="line"/>
      <point x="382" y="647" type="line"/>
      <point x="49" y="647" type="line"/>
      <point x="49" y="591" type="line"/>
    </contour>
    <contour>
      <point x="393" y="349" type="line"/>
      <point x="954" y="349" type="line"/>
      <point x="954" y="407" type="line"/>
      <point x="393" y="407" type="line"/>
    </contour>
    <contour>
      <point x="878" y="65" type="line"/>
      <point x="748" y="46"/>
      <point x="571" y="26"/>
      <point x="409" y="16" type="curve"/>
      <point x="421" y="-42" type="line"/>
      <point x="578" y="-31"/>
      <point x="763" y="-10"/>
      <point x="891" y="9" type="curve"/>
    </contour>
    <contour>
      <point x="959" y="-43" type="line"/>
      <point x="903" y="65"/>
      <point x="836" y="182"/>
      <point x="778" y="268" type="curve"/>
      <point x="727" y="235" type="line"/>
      <point x="786" y="149"/>
      <point x="853" y="29"/>
      <point x="905" y="-76" type="curve"/>
    </contour>
    <contour>
      <point x="466" y="-8" type="line"/>
      <point x="556" y="96"/>
      <point x="632" y="245"/>
      <point x="676" y="365" type="curve"/>
      <point x="614" y="380" type="line"/>
      <point x="574" y="260"/>
      <point x="492" y="115"/>
      <point x="409" y="16" type="curve"/>
    </contour>
    <contour>
      <point x="420" y="601" type="line"/>
      <point x="929" y="601" type="line"/>
      <point x="929" y="659" type="line"/>
      <point x="420" y="659" type="line"/>
    </contour>
    <contour>
      <point x="696" y="368" type="line"/>
      <point x="696" y="834" type="line"/>
      <point x="634" y="834" type="line"/>
      <point x="634" y="368" type="line"/>
    </contour>
  </outline>
</glyph>
<glyph name="uni3BBE" format="2">
  <advance width="1000"/>
  <unicode hex="3BBE"/>
  <outline>
    <contour>
      <point x="542" y="336" type="line"/>
      <point x="605" y="428"/>
      <point x="627" y="529"/>
      <point x="627" y="663" type="curve" smooth="yes"/>
      <point x="627" y="751" type="line"/>
      <point x="862" y="751" type="line"/>
      <point x="862" y="382" type="line"/>
      <point x="730" y="382" type="line"/>
      <point x="746" y="331" type="line"/>
      <point x="849" y="331" type="line" smooth="yes"/>
      <point x="899" y="331"/>
      <point x="920" y="350"/>
      <point x="920" y="401" type="curve" smooth="yes"/>
      <point x="920" y="802" type="line"/>
      <point x="569" y="802" type="line"/>
      <point x="569" y="681" type="line" smooth="yes"/>
      <point x="569" y="542"/>
      <point x="552" y="455"/>
      <point x="491" y="371" type="curve"/>
    </contour>
    <contour>
      <point x="76" y="304" type="line"/>
      <point x="182" y="319"/>
      <point x="325" y="347"/>
      <point x="418" y="371" type="curve"/>
      <point x="407" y="424" type="line"/>
      <point x="315" y="397"/>
      <point x="162" y="368"/>
      <point x="64" y="358" type="curve"/>
    </contour>
    <contour>
      <point x="154" y="492" type="line"/>
      <point x="469" y="492" type="line"/>
      <point x="469" y="782" type="line"/>
      <point x="97" y="782" type="line"/>
      <point x="97" y="411" type="line" smooth="yes"/>
      <point x="97" y="384"/>
      <point x="90" y="370"/>
      <point x="64" y="358" type="curve"/>
      <point x="154" y="356" type="line"/>
    </contour>
    <contour>
      <point x="473" y="353" type="line"/>
      <point x="448" y="400"/>
      <point x="414" y="456"/>
      <point x="387" y="493" type="curve"/>
      <point x="342" y="466" type="line"/>
      <point x="370" y="427"/>
      <point x="402" y="373"/>
      <point x="425" y="326" type="curve"/>
    </contour>
    <contour>
      <point x="154" y="613" type="line"/>
      <point x="413" y="613" type="line"/>
      <point x="413" y="543" type="line"/>
      <point x="154" y="543" type="line"/>
    </contour>
    <contour>
      <point x="154" y="731" type="line"/>
      <point x="413" y="731" type="line"/>
      <point x="413" y="663" type="line"/>
      <point x="154" y="663" type="line"/>
    </contour>
    <contour>
      <point x="318" y="761" type="line"/>
      <point x="310" y="790"/>
      <point x="299" y="816"/>
      <point x="286" y="844" type="curve"/>
      <point x="230" y="827" type="line"/>
      <point x="244" y="802"/>
      <point x="255" y="775"/>
      <point x="263" y="747" type="curve"/>
    </contour>
    <contour>
      <point x="885" y="474" type="line"/>
      <point x="885" y="524" type="line"/>
      <point x="582" y="524" type="line"/>
      <point x="582" y="474" type="line"/>
    </contour>
    <contour>
      <point x="885" y="613" type="line"/>
      <point x="885" y="663" type="line"/>
      <point x="593" y="663" type="line"/>
      <point x="593" y="613" type="line"/>
    </contour>
    <contour>
      <point x="523" y="-76" type="line"/>
      <point x="523" y="175" type="line"/>
      <point x="529" y="175" type="line"/>
      <point x="570" y="75"/>
      <point x="687" y="26"/>
      <point x="932" y="-44" type="curve"/>
      <point x="954" y="12" type="line"/>
      <point x="700" y="77"/>
      <point x="580" y="137"/>
      <point x="534" y="227" type="curve"/>
      <point x="523" y="227" type="line"/>
      <point x="523" y="326" type="line"/>
      <point x="461" y="326" type="line"/>
      <point x="461" y="227" type="line"/>
      <point x="450" y="227" type="line"/>
      <point x="404" y="136"/>
      <point x="294" y="78"/>
      <point x="46" y="12" type="curve"/>
      <point x="69" y="-44" type="line"/>
      <point x="311" y="26"/>
      <point x="414" y="75"/>
      <point x="454" y="175" type="curve"/>
      <point x="461" y="175" type="line"/>
      <point x="461" y="-76" type="line"/>
    </contour>
    <contour>
      <point x="937" y="190" type="line"/>
      <point x="937" y="246" type="line"/>
      <point x="64" y="246" type="line"/>
      <point x="64" y="190" type="line"/>
    </contour>
  </outline>
</glyph>
<glyph name="uni3C00" format="2">
  <advance width="1000"/>
  <unicode hex="3C00"/>
  <outline>
    <contour>
      <point x="521" y="384" type="line"/>
      <point x="521" y="532" type="line" smooth="yes"/>
      <point x="521" y="542"/>
      <point x="527" y="544"/>
      <point x="534" y="537" type="curve" smooth="yes"/>
      <point x="609" y="454" type="line"/>
      <point x="639" y="490" type="line"/>
      <point x="559" y="578" type="line" smooth="yes"/>
      <point x="551" y="586"/>
      <point x="544" y="586"/>
      <point x="536" y="576" type="curve" smooth="yes"/>
      <point x="526" y="564" type="line"/>
      <point x="521" y="564" type="line"/>
      <point x="521" y="783" type="line"/>
      <point x="468" y="783" type="line"/>
      <point x="468" y="651" type="line"/>
      <point x="461" y="651" type="line"/>
      <point x="454" y="590"/>
      <point x="405" y="514"/>
      <point x="323" y="447" type="curve"/>
      <point x="354" y="401" type="line"/>
      <point x="426" y="469"/>
      <point x="456" y="523"/>
      <point x="462" y="583" type="curve"/>
      <point x="468" y="583" type="line"/>
      <point x="468" y="384" type="line"/>
    </contour>
    <contour>
      <point x="365" y="-45" type="line"/>
      <point x="475" y="0"/>
      <point x="565" y="52"/>
      <point x="641" y="108" type="curve"/>
      <point x="621" y="158" type="line"/>
      <point x="543" y="100"/>
      <point x="450" y="48"/>
      <point x="341" y="5" type="curve"/>
    </contour>
    <contour>
      <point x="559" y="166" type="line"/>
      <point x="532" y="194"/>
      <point x="498" y="222"/>
      <point x="467" y="246" type="curve"/>
      <point x="430" y="210" type="line"/>
      <point x="464" y="184"/>
      <point x="495" y="155"/>
      <point x="522" y="129" type="curve"/>
    </contour>
    <contour>
      <point x="614" y="-73" type="line" smooth="yes"/>
      <point x="654" y="-73"/>
      <point x="670" y="-56"/>
      <point x="670" y="-10" type="curve" smooth="yes"/>
      <point x="670" y="77" type="line" smooth="yes"/>
      <point x="670" y="84"/>
      <point x="671" y="87"/>
      <point x="678" y="83" type="curve" smooth="yes"/>
      <point x="896" y="-48" type="line"/>
      <point x="925" y="-3" type="line"/>
      <point x="713" y="124" type="line" smooth="yes"/>
      <point x="698" y="133"/>
      <point x="691" y="131"/>
      <point x="683" y="121" type="curve" smooth="yes"/>
      <point x="674" y="110" type="line"/>
      <point x="670" y="110" type="line"/>
      <point x="670" y="295" type="line"/>
      <point x="611" y="295" type="line"/>
      <point x="611" y="-20" type="line"/>
      <point x="510" y="-20" type="line"/>
      <point x="526" y="-73" type="line"/>
    </contour>
    <contour>
      <point x="618" y="625" type="line"/>
      <point x="618" y="674" type="line"/>
      <point x="350" y="674" type="line"/>
      <point x="350" y="625" type="line"/>
    </contour>
    <contour>
      <point x="767" y="132" type="line"/>
      <point x="800" y="158"/>
      <point x="827" y="186"/>
      <point x="850" y="217" type="curve"/>
      <point x="809" y="248" type="line"/>
      <point x="789" y="221"/>
      <point x="764" y="196"/>
      <point x="730" y="171" type="curve"/>
    </contour>
    <contour>
      <point x="359" y="746" type="line"/>
      <point x="447" y="750"/>
      <point x="537" y="758"/>
      <point x="623" y="784" type="curve"/>
      <point x="608" y="830" type="line"/>
      <point x="527" y="809"/>
      <point x="451" y="798"/>
      <point x="354" y="795" type="curve"/>
    </contour>
    <contour>
      <point x="705" y="426" type="line"/>
      <point x="775" y="519"/>
      <point x="818" y="611"/>
      <point x="836" y="728" type="curve"/>
      <point x="786" y="731" type="line"/>
      <point x="769" y="636"/>
      <point x="738" y="554"/>
      <point x="666" y="462" type="curve"/>
    </contour>
    <contour>
      <point x="649" y="587" type="line"/>
      <point x="698" y="659"/>
      <point x="735" y="742"/>
      <point x="754" y="831" type="curve"/>
      <point x="709" y="842" type="line"/>
      <point x="691" y="762"/>
      <point x="662" y="685"/>
      <point x="613" y="616" type="curve"/>
    </contour>
    <contour>
      <point x="810" y="383" type="line" smooth="yes"/>
      <point x="877" y="383"/>
      <point x="909" y="404"/>
      <point x="920" y="482" type="curve" smooth="yes"/>
      <point x="929" y="543"/>
      <point x="933" y="611"/>
      <point x="933" y="758" type="curve"/>
      <point x="692" y="758" type="line"/>
      <point x="692" y="707" type="line"/>
      <point x="878" y="707" type="line"/>
      <point x="878" y="627"/>
      <point x="876" y="561"/>
      <point x="868" y="503" type="curve" smooth="yes"/>
      <point x="861" y="456"/>
      <point x="848" y="436"/>
      <point x="802" y="436" type="curve" smooth="yes"/>
      <point x="757" y="436" type="line"/>
      <point x="773" y="383" type="line"/>
    </contour>
    <contour>
      <point x="352" y="212" type="line"/>
      <point x="507" y="265"/>
      <point x="597" y="319"/>
      <point x="636" y="395" type="curve"/>
      <point x="641" y="395" type="line"/>
      <point x="681" y="316"/>
      <point x="765" y="270"/>
      <point x="932" y="214" type="curve"/>
      <point x="953" y="268" type="line"/>
      <point x="787" y="321"/>
      <point x="711" y="365"/>
      <point x="668" y="427" type="curve"/>
      <point x="610" y="427" type="line"/>
      <point x="567" y="367"/>
      <point x="487" y="316"/>
      <point x="331" y="267" type="curve"/>
    </contour>
    <contour>
      <point x="234" y="-74" type="line"/>
      <point x="234" y="433" type="line" smooth="yes"/>
      <point x="234" y="439"/>
      <point x="237" y="438"/>
      <point x="240" y="434" type="curve"/>
      <point x="309" y="278" type="line"/>
      <point x="346" y="317" type="line"/>
      <point x="279" y="465" type="line"/>
      <point x="271" y="480"/>
      <point x="264" y="479"/>
      <point x="252" y="470" type="curve"/>
      <point x="240" y="459" type="line"/>
      <point x="234" y="459" type="line"/>
      <point x="234" y="834" type="line"/>
      <point x="177" y="834" type="line"/>
      <point x="177" y="625" type="line"/>
      <point x="171" y="625" type="line"/>
      <point x="163" y="492"/>
      <point x="127" y="334"/>
      <point x="33" y="198" type="curve"/>
      <point x="72" y="149" type="line"/>
      <point x="140" y="252"/>
      <point x="165" y="356"/>
      <point x="170" y="447" type="curve"/>
      <point x="177" y="447" type="line"/>
      <point x="177" y="-74" type="line"/>
    </contour>
    <contour>
      <point x="322" y="592" type="line"/>
      <point x="322" y="646" type="line"/>
      <point x="49" y="646" type="line"/>
      <point x="49" y="592" type="line"/>
    </contour>
  </outline>
</glyph>
<glyph name="uni3CC7" format="2">
  <advance width="1000"/>
  <unicode hex="3CC7"/>
  <outline>
    <contour>
      <point x="352" y="483" type="line"/>
      <point x="436" y="563"/>
      <point x="503" y="667"/>
      <point x="551" y="780" type="curve"/>
      <point x="496" y="808" type="line"/>
      <point x="453" y="704"/>
      <point x="391" y="610"/>
      <point x="309" y="530" type="curve"/>
    </contour>
    <contour>
      <point x="949" y="521" type="line"/>
      <point x="891" y="628"/>
      <point x="828" y="727"/>
      <point x="762" y="809" type="curve"/>
      <point x="710" y="776" type="line"/>
      <point x="774" y="695"/>
      <point x="839" y="596"/>
      <point x="896" y="487" type="curve"/>
    </contour>
    <contour>
      <point x="957" y="-5" type="line"/>
      <point x="740" y="97"/>
      <point x="568" y="268"/>
      <point x="483" y="531" type="curve"/>
      <point x="428" y="506" type="line"/>
      <point x="514" y="237"/>
      <point x="709" y="40"/>
      <point x="928" y="-60" type="curve"/>
    </contour>
    <contour>
      <point x="311" y="-59" type="line"/>
      <point x="547" y="42"/>
      <point x="736" y="229"/>
      <point x="828" y="510" type="curve"/>
      <point x="772" y="535" type="line"/>
      <point x="686" y="263"/>
      <point x="513" y="95"/>
      <point x="282" y="-3" type="curve"/>
    </contour>
    <contour>
      <point x="109" y="-65" type="line"/>
      <point x="189" y="38"/>
      <point x="254" y="170"/>
      <point x="293" y="276" type="curve"/>
      <point x="237" y="301" type="line"/>
      <point x="195" y="191"/>
      <point x="138" y="75"/>
      <point x="59" y="-22" type="curve"/>
    </contour>
    <contour>
      <point x="276" y="472" type="line"/>
      <point x="221" y="515"/>
      <point x="148" y="561"/>
      <point x="80" y="594" type="curve"/>
      <point x="49" y="543" type="line"/>
      <point x="116" y="508"/>
      <point x="182" y="466"/>
      <point x="242" y="421" type="curve"/>
    </contour>
    <contour>
      <point x="308" y="726" type="line"/>
      <point x="257" y="765"/>
      <point x="197" y="803"/>
      <point x="137" y="833" type="curve"/>
      <point x="106" y="782" type="line"/>
      <point x="168" y="750"/>
      <point x="223" y="714"/>
      <point x="276" y="675" type="curve"/>
    </contour>
  </outline>
</glyph>
<glyph name="uni3CD8" format="2">
  <advance width="1000"/>
  <unicode hex="3CD8"/>
  <outline>
    <contour>
      <point x="107" y="-72" type="line"/>
      <point x="184" y="32"/>
      <point x="246" y="165"/>
      <point x="282" y="271" type="curve"/>
      <point x="227" y="294" type="line"/>
      <point x="188" y="183"/>
      <point x="133" y="68"/>
      <point x="58" y="-30" type="curve"/>
    </contour>
    <contour>
      <point x="284" y="455" type="line"/>
      <point x="226" y="501"/>
      <point x="151" y="551"/>
      <point x="79" y="587" type="curve"/>
      <point x="47" y="537" type="line"/>
      <point x="118" y="500"/>
      <point x="186" y="455"/>
      <point x="249" y="406" type="curve"/>
    </contour>
    <contour>
      <point x="287" y="715" type="line"/>
      <point x="237" y="755"/>
      <point x="177" y="795"/>
      <point x="117" y="826" type="curve"/>
      <point x="86" y="776" type="line"/>
      <point x="148" y="743"/>
      <point x="202" y="706"/>
      <point x="254" y="665" type="curve"/>
    </contour>
    <contour>
      <point x="314" y="672" type="line"/>
      <point x="952" y="672" type="line"/>
      <point x="952" y="731" type="line"/>
      <point x="314" y="731" type="line"/>
    </contour>
    <contour>
      <point x="409" y="429" type="line"/>
      <point x="470" y="481"/>
      <point x="564" y="576"/>
      <point x="622" y="674" type="curve"/>
      <point x="561" y="705" type="line"/>
      <point x="501" y="606"/>
      <point x="406" y="505"/>
      <point x="336" y="451" type="curve"/>
    </contour>
    <contour>
      <point x="343" y="389" type="line"/>
      <point x="502" y="397"/>
      <point x="697" y="414"/>
      <point x="851" y="439" type="curve"/>
      <point x="831" y="497" type="line"/>
      <point x="683" y="473"/>
      <point x="507" y="457"/>
      <point x="336" y="451" type="curve"/>
    </contour>
    <contour>
      <point x="949" y="395" type="line"/>
      <point x="892" y="476"/>
      <point x="829" y="558"/>
      <point x="762" y="635" type="curve"/>
      <point x="713" y="597" type="line"/>
      <point x="776" y="524"/>
      <point x="835" y="434"/>
      <point x="892" y="352" type="curve"/>
    </contour>
    <contour>
      <point x="296" y="-72" type="line"/>
      <point x="454" y="4"/>
      <point x="527" y="135"/>
      <point x="527" y="307" type="curve" smooth="yes"/>
      <point x="527" y="355" type="line"/>
      <point x="465" y="355" type="line"/>
      <point x="465" y="304" type="line" smooth="yes"/>
      <point x="465" y="150"/>
      <point x="398" y="55"/>
      <point x="258" y="-14" type="curve"/>
    </contour>
    <contour>
      <point x="880" y="-60" type="line" smooth="yes"/>
      <point x="931" y="-60"/>
      <point x="951" y="-40"/>
      <point x="951" y="8" type="curve" smooth="yes"/>
      <point x="951" y="186" type="line"/>
      <point x="893" y="205" type="line"/>
      <point x="893" y="4" type="line"/>
      <point x="787" y="4" type="line" smooth="yes"/>
      <point x="751" y="4"/>
      <point x="743" y="10"/>
      <point x="743" y="46" type="curve" smooth="yes"/>
      <point x="743" y="358" type="line"/>
      <point x="677" y="358" type="line"/>
      <point x="677" y="32" type="line" smooth="yes"/>
      <point x="677" y="-39"/>
      <point x="701" y="-60"/>
      <point x="771" y="-60" type="curve" smooth="yes"/>
    </contour>
    <contour>
      <point x="695" y="705" type="line"/>
      <point x="666" y="758"/>
      <point x="635" y="805"/>
      <point x="601" y="847" type="curve"/>
      <point x="537" y="819" type="line"/>
      <point x="562" y="786"/>
      <point x="591" y="746"/>
      <point x="617" y="700" type="curve"/>
    </contour>
  </outline>
</glyph>
<glyph name="uni3CDA" format="2">
  <advance width="1000"/>
  <unicode hex="3CDA"/>
  <outline>
    <contour>
      <point x="336" y="-73" type="line"/>
      <point x="403" y="78"/>
      <point x="423" y="251"/>
      <point x="423" y="494" type="curve" smooth="yes"/>
      <point x="423" y="613" type="line"/>
      <point x="945" y="613" type="line"/>
      <point x="945" y="668" type="line"/>
      <point x="364" y="668" type="line"/>
      <point x="364" y="494" type="line" smooth="yes"/>
      <point x="364" y="265"/>
      <point x="348" y="104"/>
      <point x="284" y="-31" type="curve"/>
    </contour>
    <contour>
      <point x="642" y="707" type="line" smooth="yes"/>
      <point x="642" y="374"/>
      <point x="708" y="111"/>
      <point x="809" y="-31" type="curve" smooth="yes"/>
      <point x="846" y="-83"/>
      <point x="895" y="-75"/>
      <point x="909" y="-16" type="curve" smooth="yes"/>
      <point x="958" y="186" type="line"/>
      <point x="910" y="208" type="line"/>
      <point x="861" y="0" type="line"/>
      <point x="767" y="124"/>
      <point x="703" y="371"/>
      <point x="703" y="689" type="curve" smooth="yes"/>
      <point x="703" y="834" type="line"/>
      <point x="642" y="834" type="line"/>
    </contour>
    <contour>
      <point x="924" y="714" type="line"/>
      <point x="890" y="757"/>
      <point x="856" y="795"/>
      <point x="819" y="827" type="curve"/>
      <point x="781" y="794" type="line"/>
      <point x="818" y="761"/>
      <point x="851" y="724"/>
      <point x="885" y="680" type="curve"/>
    </contour>
    <contour>
      <point x="521" y="-72" type="line"/>
      <point x="763" y="76"/>
      <point x="868" y="268"/>
      <point x="942" y="512" type="curve"/>
      <point x="888" y="529" type="line"/>
      <point x="814" y="291"/>
      <point x="725" y="119"/>
      <point x="487" y="-23" type="curve"/>
    </contour>
    <contour>
      <point x="419" y="357" type="line"/>
      <point x="420" y="368" type="line" smooth="yes"/>
      <point x="421" y="376"/>
      <point x="427" y="380"/>
      <point x="434" y="373" type="curve" smooth="yes"/>
      <point x="581" y="241" type="line"/>
      <point x="617" y="282" type="line"/>
      <point x="468" y="416" type="line" smooth="yes"/>
      <point x="457" y="426"/>
      <point x="445" y="425"/>
      <point x="435" y="413" type="curve" smooth="yes"/>
      <point x="425" y="401" type="line"/>
      <point x="419" y="401" type="line"/>
      <point x="419" y="422" type="line"/>
      <point x="409" y="422" type="line"/>
      <point x="409" y="357" type="line"/>
    </contour>
    <contour>
      <point x="107" y="-65" type="line"/>
      <point x="186" y="39"/>
      <point x="250" y="171"/>
      <point x="288" y="277" type="curve"/>
      <point x="234" y="301" type="line"/>
      <point x="193" y="190"/>
      <point x="136" y="74"/>
      <point x="59" y="-22" type="curve"/>
    </contour>
    <contour>
      <point x="271" y="472" type="line"/>
      <point x="217" y="514"/>
      <point x="146" y="560"/>
      <point x="79" y="593" type="curve"/>
      <point x="48" y="544" type="line"/>
      <point x="115" y="509"/>
      <point x="179" y="467"/>
      <point x="238" y="422" type="curve"/>
    </contour>
    <contour>
      <point x="321" y="717" type="line"/>
      <point x="266" y="759"/>
      <point x="201" y="801"/>
      <point x="135" y="832" type="curve"/>
      <point x="105" y="783" type="line"/>
      <point x="172" y="749"/>
      <point x="232" y="710"/>
      <point x="289" y="667" type="curve"/>
    </contour>
  </outline>
</glyph>
